<?xml version="1.0" encoding="UTF-8"?>
<!DOCTYPE svg PUBLIC "-//W3C//DTD SVG 1.1//EN" "http://www.w3.org/Graphics/SVG/1.1/DTD/svg11.dtd">
<!-- Creator: CorelDRAW -->
<svg xmlns="http://www.w3.org/2000/svg" xml:space="preserve" width="1920px" height="1280px" style="shape-rendering:geometricPrecision; text-rendering:geometricPrecision; image-rendering:optimizeQuality; fill-rule:evenodd; clip-rule:evenodd"
viewBox="0 0 1920 1280"
 xmlns:xlink="http://www.w3.org/1999/xlink">
 <defs>
  <style type="text/css">
   <![CDATA[
    .fil0 {fill:#EEEEEE}
    .fil1 {fill:black;fill-rule:nonzero}
    .fil2 {fill:#70B84F;fill-rule:nonzero}
    .fil3 {fill:#FEFEFE;fill-rule:nonzero}
    .fil4 {fill:black;fill-rule:nonzero}
   ]]>
  </style>
 </defs>
 <g id="Camada_x0020_1">
  <metadata id="CorelCorpID_0Corel-Layer"/>
  <g id="_157886648">
   <rect id="_42660936" class="fil0" x="-2.86102e-005" y="1.90744e-005" width="1920" height="1280"/>
   <g>
    <g>
     <path id="_155988280" class="fil1" d="M275.463 779.095c-0.977953,0.964961 -2.15906,1.44685 -3.53622,1.44685l-10.7031 0c-2.79567,0 -4.64882,-0.907087 -5.58661,-2.69882l-53.9232 -99.0709c-0.229134,-0.347244 -0.416929,-0.500787 -0.531496,-0.500787 -0.112205,0 -0.17126,0.153543 -0.17126,0.500787l0 98.55c0,0.907087 -0.288189,1.67717 -0.866929,2.27598 -0.582283,0.635433 -1.33346,0.943701 -2.26772,0.943701l-9.07205 0c-0.937795,0 -1.70197,-0.114567 -2.2748,-0.347244 -0.579921,-0.210236 -0.86811,-0.770079 -0.86811,-1.67717l0 -118.648c0,-1.34882 0.490157,-2.4685 1.48346,-3.37205 0.985039,-0.888189 2.17795,-1.35236 3.56929,-1.35236l9.6 0c2.44134,0 4.07008,0.251575 4.87913,0.752362 0.822047,0.520866 1.5815,1.38898 2.2748,2.62323l53.576 98.5512 0.35315 0.519685c0.114567,0 0.167717,-0.173622 0.167717,-0.519685l0 -98.7248c0,-0.887008 0.288189,-1.65709 0.86811,-2.27598 0.57874,-0.615354 1.32402,-0.925984 2.24173,-0.925984l9.15 0c0.912992,0 1.6689,0.31063 2.24764,0.925984 0.56811,0.618898 0.86811,1.38898 0.86811,2.27598l0 117.296c0,1.35118 -0.500787,2.50748 -1.47756,3.45118z"/>
     <path id="_155988352" class="fil1" d="M349.359 670.325c-0.579921,-2.02677 -1.69134,-3.02953 -3.32244,-3.02953 -1.74449,0 -2.91142,1.00276 -3.49134,3.02953l-15.8669 55.5236 38.5594 0 -15.8787 -55.5236zm46.7657 107.518c0,1.79173 -0.982677,2.69882 -2.97283,2.69882l-10.3004 0c-0.809055,0 -1.44094,-0.249213 -1.90276,-0.770079 -0.475984,-0.500787 -0.823228,-1.09961 -1.05236,-1.75512l-11.3539 -38.8228 -45.1925 0 -11.1685 38.8228c-0.229134,0.655512 -0.643701,1.25433 -1.22244,1.75512 -0.576378,0.520866 -1.21772,0.770079 -1.9122,0.770079l-10.2945 0c-1.9878,0 -2.96929,-0.907087 -2.96929,-2.69882 0,-0.57874 0.0531496,-0.964961 0.172441,-1.17874l32.2843 -109.87c0.692126,-2.58307 1.71378,-4.70433 3.05669,-6.32598 1.32992,-1.63701 2.81339,-2.93031 4.44449,-3.87638 1.62992,-0.962598 3.34488,-1.63701 5.14488,-2.04331 1.80827,-0.38622 3.52441,-0.57874 5.15079,-0.57874 1.6311,0 3.32244,0.153543 5.06575,0.500787 1.74685,0.329528 3.42047,0.985039 5.06102,1.94764 1.62283,0.946063 3.1063,2.23701 4.44449,3.87638 1.34409,1.64055 2.36575,3.74291 3.05906,6.32598l32.2819 110.043c0.114567,0.21378 0.175984,0.6 0.175984,1.17874z"/>
     <path id="_155988448" class="fil1" d="M504.604 779.095c-0.981496,0.964961 -2.15433,1.44685 -3.54567,1.44685l-10.6925 0c-2.79094,0 -4.65472,-0.907087 -5.58661,-2.69882l-53.9173 -99.0709c-0.238583,-0.347244 -0.41811,-0.500787 -0.532677,-0.500787 -0.116929,0 -0.173622,0.153543 -0.173622,0.500787l0 98.55c0,0.907087 -0.290551,1.67717 -0.870472,2.27598 -0.587008,0.635433 -1.34055,0.943701 -2.26063,0.943701l-9.08622 0c-0.929528,0 -1.67598,-0.114567 -2.26772,-0.347244 -0.590551,-0.210236 -0.87874,-0.770079 -0.87874,-1.67717l0 -118.648c0,-1.34882 0.504331,-2.4685 1.48346,-3.37205 0.98622,-0.888189 2.18031,-1.35236 3.59173,-1.35236l9.59528 0c2.43425,0 4.06654,0.251575 4.88976,0.752362 0.805512,0.520866 1.56142,1.38898 2.25236,2.62323l53.5878 98.5512 0.347244 0.519685c0.114567,0 0.184252,-0.173622 0.184252,-0.519685l0 -98.7248c0,-0.887008 0.277559,-1.65709 0.845669,-2.27598 0.582283,-0.615354 1.33465,-0.925984 2.25591,-0.925984l9.14173 0c0.917717,0 1.67126,0.31063 2.23937,0.925984 0.57874,0.618898 0.870472,1.38898 0.870472,2.27598l0 117.296c0,1.35118 -0.496063,2.50748 -1.47283,3.45118z"/>
     <path id="_155988520" class="fil1" d="M608.682 706.948c0,-7.07598 -0.724016,-13.0949 -2.17205,-18.052 -1.45276,-4.93701 -3.51732,-9.00354 -6.18543,-12.15 -2.66457,-3.14291 -5.91378,-5.4189 -9.74055,-6.82677 -3.82913,-1.40787 -8.11654,-2.12126 -12.8811,-2.12126 -4.75866,0 -9.04961,0.713386 -12.8752,2.12126 -3.82677,1.40787 -7.11024,3.68386 -9.83031,6.82677 -2.73425,3.14646 -4.81772,7.21299 -6.26102,12.15 -1.44803,4.95709 -2.1815,10.976 -2.1815,18.052l0 21.776c0,7.09488 0.733465,13.1138 2.1815,18.0709 1.44331,4.93701 3.50433,9.00354 6.17126,12.1476 2.66811,3.14528 5.94567,5.42126 9.83622,6.82677 3.88228,1.40787 8.20039,2.12362 12.9591,2.12362 4.76457,0 9.05197,-0.715748 12.8811,-2.12362 3.82677,-1.40551 7.07598,-3.6815 9.74055,-6.82677 2.66811,-3.14409 4.73268,-7.21063 6.18543,-12.1476 1.44803,-4.95709 2.17205,-10.976 2.17205,-18.0709l0 -21.776zm16.226 21.776c0,9.35197 -1.16339,17.3728 -3.48425,24.0461 -2.33504,6.7122 -5.60669,12.1902 -9.80197,16.4728 -4.19291,4.26024 -9.18071,7.42205 -14.9469,9.42992 -5.76024,2.02559 -12.0921,3.04724 -18.972,3.04724 -6.86575,0 -13.1976,-1.02165 -18.9638,-3.04724 -5.77441,-2.00787 -10.7563,-5.16969 -14.9516,-9.42992 -4.19291,-4.28268 -7.49646,-9.76063 -9.88701,-16.4728 -2.3811,-6.67323 -3.57638,-14.6941 -3.57638,-24.0461l0 -21.776c0,-9.33189 1.19528,-17.3575 3.57638,-24.0307 2.39055,-6.71102 5.69409,-12.1866 9.88701,-16.4693 4.19528,-4.2626 9.17717,-7.42559 14.9516,-9.44882 5.76614,-2.02677 12.098,-3.02835 18.9638,-3.02835 6.87992,0 13.2118,1.00157 18.972,3.02835 5.76614,2.02323 10.7539,5.18622 14.9469,9.44882 4.19528,4.28268 7.46693,9.75827 9.80197,16.4693 2.32087,6.67323 3.48425,14.6988 3.48425,24.0307l0 21.776z"/>
     <path id="_155988592" class="fil2" d="M623.621 855.732c-0.866929,1.08543 -1.86142,1.62638 -2.99173,1.62638l-430.7 0c-1.12559,0 -2.12126,-0.540945 -2.98937,-1.62638 -0.856299,-1.07835 -1.27913,-2.34567 -1.27913,-3.79016l0 -40.8071c0,-1.43858 0.422835,-2.65866 1.27913,-3.64724 0.86811,-0.993307 1.86378,-1.49409 2.98937,-1.49409l430.7 0c1.13031,0 2.1248,0.500787 2.99173,1.49409 0.856299,0.988583 1.28268,2.20866 1.28268,3.64724l0 40.8071c0,1.44449 -0.426378,2.71181 -1.28268,3.79016z"/>
     <path id="_155988928" class="fil1" d="M759.5 681.848l0 -21.5102c0,-0.680315 -0.108661,-1.36063 -0.32126,-1.99606 -0.218504,-0.682677 -0.540945,-1.27087 -0.968504,-1.81654 -0.431102,-0.408661 -0.896457,-0.725197 -1.43622,-0.999213 -0.500787,-0.226772 -1.03819,-0.360236 -1.57559,-0.360236l-105.188 0c-0.537402,0 -1.0748,0.133465 -1.57795,0.360236 -0.537402,0.274016 -1.00276,0.590551 -1.43386,0.999213 -0.431102,0.545669 -0.752362,1.13386 -0.968504,1.81654 -0.212598,0.635433 -0.32126,1.31575 -0.32126,1.99606l0 21.5102c0,0.680315 0.108661,1.36063 0.32126,1.95118 0.216142,0.635433 0.537402,1.1811 0.968504,1.58976 0.431102,0.408661 0.896457,0.725197 1.43386,0.99685 0.50315,0.226772 1.04055,0.36378 1.57795,0.36378l37.6417 0 0 165.276c0,0.682677 0.108661,1.36299 0.324803,1.99843 0.214961,0.680315 0.537402,1.27087 0.968504,1.81417 0.431102,0.545669 0.895276,0.954331 1.43268,1.22598 0.50315,0.271654 1.04173,0.408661 1.57913,0.408661l21.2941 0c0.537402,0 1.0748,-0.137008 1.57913,-0.408661 0.533858,-0.271654 1.00157,-0.680315 1.43031,-1.22598 0.431102,-0.543307 0.755906,-1.13386 0.968504,-1.81417 0.218504,-0.635433 0.324803,-1.31575 0.324803,-1.99843l0 -165.276 37.6441 0c0.537402,0 1.0748,-0.137008 1.57559,-0.36378 0.539764,-0.271654 1.00512,-0.588189 1.43622,-0.99685 0.427559,-0.408661 0.75,-0.954331 0.968504,-1.58976 0.212598,-0.590551 0.32126,-1.27087 0.32126,-1.95118zm142.401 170.178l0 -191.688c0,-0.680315 -0.106299,-1.36063 -0.322441,-1.99606 -0.214961,-0.682677 -0.537402,-1.27087 -0.968504,-1.81654 -0.431102,-0.408661 -0.895276,-0.725197 -1.43268,-0.999213 -0.500787,-0.226772 -1.04173,-0.360236 -1.57913,-0.360236l-21.2953 0c-0.539764,0 -1.07717,0.133465 -1.57795,0.360236 -0.537402,0.274016 -1.00512,0.590551 -1.43268,0.999213 -0.431102,0.545669 -0.753543,1.13386 -0.968504,1.81654 -0.21378,0.635433 -0.322441,1.31575 -0.322441,1.99606l0 75.1512 -61.089 0 0 -75.1512c0,-0.680315 -0.108661,-1.36063 -0.324803,-1.99606 -0.212598,-0.682677 -0.537402,-1.27087 -0.968504,-1.81654 -0.431102,-0.408661 -0.895276,-0.725197 -1.43268,-0.999213 -0.500787,-0.226772 -1.04173,-0.360236 -1.57913,-0.360236l-21.2917 0c-0.539764,0 -1.07717,0.133465 -1.5815,0.360236 -0.537402,0.274016 -1.00157,0.590551 -1.43031,0.999213 -0.433465,0.545669 -0.755906,1.13386 -0.968504,1.81654 -0.214961,0.635433 -0.324803,1.31575 -0.324803,1.99606l0 191.688c0,0.682677 0.109843,1.36299 0.324803,1.99843 0.212598,0.680315 0.535039,1.27087 0.968504,1.81417 0.42874,0.545669 0.892913,0.954331 1.43031,1.22598 0.504331,0.271654 1.04173,0.408661 1.5815,0.408661l21.2917 0c0.537402,0 1.07835,-0.137008 1.57913,-0.408661 0.537402,-0.271654 1.00157,-0.680315 1.43268,-1.22598 0.431102,-0.543307 0.755906,-1.13386 0.968504,-1.81417 0.216142,-0.635433 0.324803,-1.31575 0.324803,-1.99843l0 -83.3185 61.089 0 0 83.3185c0,0.682677 0.108661,1.36299 0.322441,1.99843 0.214961,0.680315 0.537402,1.27087 0.968504,1.81417 0.427559,0.545669 0.895276,0.954331 1.43268,1.22598 0.500787,0.271654 1.03819,0.408661 1.57795,0.408661l21.2953 0c0.537402,0 1.07835,-0.137008 1.57913,-0.408661 0.537402,-0.271654 1.00157,-0.680315 1.43268,-1.22598 0.431102,-0.543307 0.753543,-1.13386 0.968504,-1.81417 0.216142,-0.635433 0.322441,-1.31575 0.322441,-1.99843zm127.341 -1.9063l0 -17.4236c0,-0.682677 -0.102756,-1.36299 -0.32126,-1.99843 -0.212598,-0.680315 -0.537402,-1.27087 -0.966142,-1.81417 -0.431102,-0.545669 -0.897638,-0.954331 -1.43504,-1.22598 -0.501969,-0.271654 -1.03937,-0.408661 -1.57677,-0.408661l-43.8827 0c-3.11811,0 -5.80748,-0.408661 -7.9937,-1.22598 -2.22283,-0.817323 -3.9437,-2.03976 -5.1248,-3.67441 -1.29331,-1.63465 -2.26181,-3.99449 -2.90906,-7.12441 -0.640157,-3.0874 -0.964961,-6.89882 -0.964961,-11.3917l0 -35.1248 58.2921 0c0.539764,0 1.07717,-0.137008 1.57913,-0.408661 0.537402,-0.271654 1.00394,-0.680315 1.43268,-1.22598 0.431102,-0.543307 0.755906,-1.13386 0.968504,-1.81417 0.214961,-0.635433 0.324803,-1.31457 0.324803,-1.99843l0 -19.6039c0,-0.680315 -0.109843,-1.36063 -0.324803,-1.99606 -0.212598,-0.680315 -0.537402,-1.27087 -0.968504,-1.81654 -0.42874,-0.542126 -0.895276,-0.950787 -1.43268,-1.22244 -0.501969,-0.275197 -1.03937,-0.408661 -1.57913,-0.408661l-58.2921 0 0 -29.4071c0,-4.49173 0.324803,-8.30433 0.964961,-11.3917 0.647244,-3.13228 1.61575,-5.49213 2.90906,-7.12323 1.1811,-1.63465 2.90197,-2.86063 5.1248,-3.67795 2.18622,-0.814961 4.87559,-1.22362 7.9937,-1.22362l43.8827 0c0.537402,0 1.0748,-0.137008 1.57677,-0.408661 0.537402,-0.274016 1.00394,-0.680315 1.43504,-1.22598 0.42874,-0.545669 0.753543,-1.13386 0.966142,-1.81654 0.218504,-0.635433 0.32126,-1.31575 0.32126,-1.99606l0 -17.426c0,-0.951969 -0.069685,-1.76929 -0.178346,-2.44961 -0.142913,-0.680315 -0.355512,-1.22598 -0.680315,-1.63465 -0.322441,-0.408661 -0.788976,-0.772441 -1.39724,-1.04409 -0.609449,-0.271654 -1.28976,-0.453543 -2.04331,-0.590551 -0.858661,-0.134646 -1.75748,-0.316535 -2.72598,-0.588189 -0.93189,-0.225591 -1.90039,-0.500787 -2.8689,-0.772441 -1.0748,-0.137008 -2.25591,-0.318898 -3.54921,-0.545669 -1.2874,-0.226772 -2.68701,-0.405118 -4.19291,-0.542126 -1.6122,-0.138189 -3.33307,-0.320079 -5.20039,-0.54685 -1.8248,-0.226772 -3.8315,-0.408661 -5.98465,-0.542126 -2.26181,-0.137008 -4.73268,-0.226772 -7.4563,-0.226772 -2.68937,-0.0484252 -5.66575,-0.0484252 -8.89252,-0.0484252 -3.54921,0 -6.95551,0.18189 -10.1823,0.590551 -3.26102,0.364961 -6.38268,0.91063 -9.39094,1.59094 -3.01181,0.679134 -5.84528,1.67835 -8.53228,3.03898 -2.65276,1.36063 -5.12717,3.08504 -7.38661,5.12835 -2.15197,2.04331 -4.12205,4.49173 -5.91614,7.35236 -1.79173,2.85827 -3.33189,6.1252 -4.62402,9.80197 -1.29094,3.67559 -2.25591,7.85197 -2.90315,12.5232 -0.646063,4.6748 -0.968504,9.93898 -0.968504,15.7949l0 95.0268c0,5.85591 0.322441,11.1177 0.968504,15.7925 0.647244,4.67362 1.6122,8.85 2.90315,12.5256 1.29213,3.67441 2.83228,6.89646 4.62402,9.66496 1.79409,2.7685 3.76417,5.17559 5.91614,7.21535 2.25945,2.04331 4.73386,3.8126 7.38661,5.22047 2.68701,1.45276 5.52047,2.54173 8.53228,3.22205 3.00827,0.680315 6.12992,1.22598 9.39094,1.58622 3.22677,0.408661 6.63307,0.590551 10.1823,0.590551 3.22677,0 6.20315,-0.0437008 8.89252,-0.18189 2.72362,-0.0885827 5.19449,-0.226772 7.4563,-0.360236 2.15315,-0.137008 4.15984,-0.275197 5.98465,-0.408661 1.86732,-0.137008 3.58819,-0.275197 5.20039,-0.408661 1.50591,-0.137008 2.90551,-0.318898 4.19291,-0.590551 1.29331,-0.226772 2.47441,-0.498425 3.54921,-0.772441 0.968504,-0.134646 1.93701,-0.316535 2.8689,-0.543307 0.968504,-0.226772 1.86732,-0.408661 2.72598,-0.545669 0.753543,-0.134646 1.43386,-0.361417 2.04331,-0.635433 0.608268,-0.271654 1.0748,-0.588189 1.39724,-0.99685 0.324803,-0.408661 0.537402,-0.954331 0.680315,-1.63465 0.108661,-0.680315 0.178346,-1.49764 0.178346,-2.45197zm144.553 1.9063l-33.7701 -79.5059c4.51772,-2.17795 8.56772,-4.94646 12.1169,-8.34921 3.54921,-3.35906 6.59528,-7.30866 9.17835,-11.8016 2.68937,-4.49173 4.69724,-9.70984 5.98701,-15.6543 1.32638,-5.94567 1.97008,-12.5256 1.97008,-19.7421l0 -2.44843c0,-11.7083 -1.7185,-21.5138 -5.16142,-29.4094 -3.22677,-7.89685 -7.74449,-14.1579 -13.5496,-18.7878 -2.79921,-2.31378 -5.84409,-4.35472 -9.14173,-6.07913 -3.3,-1.77165 -6.77953,-3.17717 -10.435,-4.26496 -3.76417,-0.955512 -7.63465,-1.67953 -11.615,-2.2252 -3.97795,-0.498425 -8.06693,-0.773622 -12.2598,-0.773622 -3.87165,0 -7.74567,0.0484252 -11.5465,0.18189 -3.83504,0.138189 -7.59921,0.364961 -11.2547,0.635433 -3.65787,0.408661 -7.09843,0.817323 -10.3252,1.27087 -3.22795,0.408661 -6.23976,0.91063 -9.03543,1.45276 -1.07835,0.137008 -2.04331,0.408661 -2.86654,0.772441 -0.862205,0.408661 -1.54252,0.862205 -2.08228,1.40551 -0.643701,0.682677 -1.10787,1.49764 -1.43268,2.49685 -0.322441,0.954331 -0.501969,2.13307 -0.501969,3.49252l0 187.333c0,0.682677 0.109843,1.36299 0.322441,1.99843 0.214961,0.680315 0.537402,1.27087 0.968504,1.81417 0.431102,0.545669 0.895276,0.954331 1.43268,1.22598 0.504331,0.271654 1.03819,0.408661 1.57913,0.408661l21.5102 0c0.537402,0 1.0748,-0.137008 1.57913,-0.408661 0.537402,-0.271654 1.00157,-0.680315 1.43268,-1.22598 0.322441,-0.543307 0.574016,-1.13386 0.788976,-1.81417 0.179528,-0.635433 0.285827,-1.31575 0.285827,-1.99843l0 -73.5165c1.18346,0.137008 2.58071,0.226772 4.1563,0.271654 1.54488,0.0472441 3.26693,0.137008 5.09409,0.274016 1.82835,0.134646 3.58346,0.271654 5.26772,0.361417 1.68543,0.137008 3.22795,0.18189 4.62756,0.18189l3.00827 0 30.9768 72.4276c0.324803,0.682677 0.61063,1.36299 0.862205,1.99843 0.249213,0.680315 0.537402,1.27087 0.859843,1.81417 0.646063,1.08898 1.50591,1.63465 2.58071,1.63465l26.2429 0c1.7185,0 2.58071,-1.08898 2.58071,-3.26693 0,-0.408661 -0.0354331,-0.817323 -0.142913,-1.1811 -0.0720472,-0.408661 -0.178346,-0.725197 -0.288189,-0.999213zm-34.4161 -135.053c0,5.99055 -0.643701,11.028 -1.93465,15.1571 -1.29331,4.08425 -3.22677,7.30866 -5.80984,9.62008 -2.58071,2.31496 -5.91496,4.03937 -10.0016,5.13071 -4.08661,1.13386 -8.92559,1.67717 -14.5181,1.67717 -0.431102,0 -0.968504,0 -1.61575,-0.0448819 -0.643701,0 -1.39606,-0.0897638 -2.25591,-0.226772 -0.968504,0 -1.90276,0 -2.79921,-0.0448819 -0.895276,0 -1.82717,-0.092126 -2.79567,-0.226772 -0.966142,0 -1.93465,0 -2.8689,-0.0448819 -0.968504,0 -1.86378,-0.092126 -2.72362,-0.226772 -0.968504,0 -1.79409,0 -2.43543,0 -0.685039,0 -1.22008,0 -1.65118,0l0 -61.265c0.537402,-0.137008 1.14803,-0.226772 1.79173,-0.271654 0.680315,-0.0472441 1.43504,-0.137008 2.29488,-0.274016 0.752362,0 1.57559,0 2.44016,-0.0448819 0.859843,0 1.75512,-0.0897638 2.72362,-0.226772 0.966142,0 1.89803,0 2.79331,-0.0448819 0.898819,0 1.83071,-0.092126 2.79921,-0.226772 0.859843,0 1.64882,0 2.40236,0 0.715748,0 1.35945,0 1.90039,0 5.37638,0 10.1102,0.543307 14.1602,1.67953 4.08661,1.08898 7.4563,2.81339 10.1457,5.12835 2.68701,2.31378 4.69724,5.30906 5.98701,9.02953 1.32756,3.67441 1.97126,8.12244 1.97126,13.298l0 2.44843zm197.252 136.416l0 -187.332c0,-1.49764 -0.214961,-2.90551 -0.609449,-4.26614 -0.42874,-1.31575 -1.00512,-2.54173 -1.75512,-3.63071 -0.862205,-0.954331 -1.83071,-1.67953 -2.8689,-2.2252 -1.0748,-0.498425 -2.18622,-0.768898 -3.37087,-0.768898l-17.6386 0c-0.859843,0 -1.68543,0.133465 -2.43543,0.408661 -0.79252,0.270472 -1.54488,0.679134 -2.29606,1.22244 -1.50472,1.36299 -2.57953,2.99528 -3.22677,4.90157l-32.4803 83.3209c-0.323622,0.680315 -0.576378,1.22598 -0.788976,1.67953 -0.214961,0.408661 -0.394488,0.770079 -0.50315,1.04409 -0.106299,0.406299 -0.252756,0.680315 -0.465354,0.862205 -0.178346,0.134646 -0.394488,0.226772 -0.609449,0.226772 -0.216142,0 -0.431102,-0.092126 -0.61063,-0.226772 -0.212598,-0.18189 -0.357874,-0.455906 -0.464173,-0.862205 -0.109843,-0.274016 -0.252756,-0.635433 -0.467717,-1.04409 -0.216142,-0.453543 -0.500787,-0.999213 -0.825591,-1.67953l-32.4803 -83.3209c-0.646063,-1.9063 -1.72087,-3.53858 -3.22677,-4.90157 -0.75,-0.543307 -1.50591,-0.951969 -2.29606,-1.22244 -0.75,-0.275197 -1.57559,-0.408661 -2.43425,-0.408661l-17.6398 0c-1.18465,0 -2.29488,0.270472 -3.33425,0.768898 -1.04055,0.545669 -1.93583,1.27087 -2.68937,2.2252 -0.859843,1.08898 -1.50591,2.31496 -1.93465,3.63071 -0.429921,1.36063 -0.646063,2.7685 -0.646063,4.26614l0 187.332c0,0.680315 0.108661,1.27087 0.288189,1.81417 0.212598,0.500787 0.465354,0.909449 0.786614,1.1811 0.322441,0.408661 0.719291,0.680315 1.14803,0.862205 0.431102,0.137008 0.895276,0.226772 1.43504,0.226772l21.724 0c1.0748,0 1.93701,-0.545669 2.58071,-1.63465 0.324803,-0.543307 0.537402,-1.13386 0.682677,-1.81417 0.106299,-0.635433 0.179528,-1.31575 0.179528,-1.99843l0 -126.339c0,-0.954331 0.0720472,-1.63465 0.178346,-2.08819 0.106299,-0.408661 0.252756,-0.635433 0.465354,-0.635433 0.108661,0 0.214961,0.137008 0.394488,0.408661 0.142913,0.271654 0.361417,0.680315 0.682677,1.22598l20.8642 52.0051c0.324803,0.680315 0.752362,1.27087 1.25433,1.81654 0.537402,0.543307 1.11378,1.04409 1.75748,1.45039 0.537402,0.408661 1.14685,0.727559 1.79055,0.999213 0.647244,0.226772 1.32756,0.36378 2.08346,0.36378l21.7228 0c0.752362,0 1.46929,-0.137008 2.11654,-0.36378 0.679134,-0.271654 1.32638,-0.590551 1.97008,-0.999213 0.537402,-0.406299 1.0748,-0.907087 1.57913,-1.45039 0.464173,-0.545669 0.895276,-1.13622 1.22008,-1.81654l20.648 -52.0051c0.322441,-0.545669 0.539764,-0.954331 0.719291,-1.22598 0.142913,-0.271654 0.249213,-0.408661 0.355512,-0.408661 0.216142,0 0.394488,0.226772 0.504331,0.635433 0.106299,0.453543 0.142913,1.13386 0.142913,2.08819l0 126.339c0,0.682677 0.106299,1.36299 0.284646,1.99843 0.218504,0.680315 0.467717,1.27087 0.790157,1.81417 0.32126,0.545669 0.646063,0.954331 1.03819,1.22598 0.357874,0.271654 0.788976,0.408661 1.32638,0.408661l21.7264 0c0.537402,0 1.03819,-0.0897638 1.47165,-0.226772 0.431102,-0.18189 0.790157,-0.453543 1.11142,-0.862205 0.322441,-0.271654 0.571654,-0.680315 0.786614,-1.1811 0.179528,-0.543307 0.288189,-1.13386 0.288189,-1.81417zm62.1661 -1.36299l0 -191.688c0,-0.680315 -0.108661,-1.36063 -0.32126,-1.99606 -0.216142,-0.682677 -0.537402,-1.27087 -0.972047,-1.81654 -0.431102,-0.408661 -0.892913,-0.725197 -1.43031,-0.999213 -0.50315,-0.226772 -1.04409,-0.360236 -1.57795,-0.360236l-21.2953 0c-0.539764,0 -1.07717,0.133465 -1.57913,0.360236 -0.537402,0.274016 -1.00394,0.590551 -1.43268,0.999213 -0.431102,0.545669 -0.755906,1.13386 -0.968504,1.81654 -0.214961,0.635433 -0.324803,1.31575 -0.324803,1.99606l0 191.688c0,0.682677 0.109843,1.36299 0.324803,1.99843 0.212598,0.680315 0.537402,1.27087 0.968504,1.81417 0.42874,0.545669 0.895276,0.954331 1.43268,1.22598 0.501969,0.271654 1.03937,0.408661 1.57913,0.408661l21.2953 0c0.533858,0 1.0748,-0.137008 1.57795,-0.408661 0.537402,-0.271654 0.999213,-0.680315 1.43031,-1.22598 0.434646,-0.543307 0.755906,-1.13386 0.972047,-1.81417 0.212598,-0.635433 0.32126,-1.31575 0.32126,-1.99843zm127.342 -2.99528l0 -18.2409c0,-0.817323 -0.069685,-1.58976 -0.179528,-2.27008 -0.141732,-0.680315 -0.357874,-1.27087 -0.679134,-1.81654 -0.324803,-0.543307 -0.790157,-0.951969 -1.39724,-1.22362 -0.612992,-0.274016 -1.29331,-0.408661 -2.04331,-0.408661l-0.431102 0c-0.970866,0.134646 -2.01024,0.226772 -3.08504,0.271654 -1.11024,0.0448819 -2.29488,0.137008 -3.58465,0.271654 -1.39724,0.137008 -2.79685,0.274016 -4.22953,0.408661 -1.39961,0.137008 -2.8689,0.274016 -4.3748,0.408661 -1.50591,0.137008 -3.01181,0.226772 -4.55433,0.271654 -1.50591,0.0472441 -3.0815,0.137008 -4.69606,0.274016 -1.60984,0.134646 -3.15236,0.226772 -4.65827,0.226772 -1.50591,0.0448819 -2.9752,0.0448819 -4.3748,0.0448819 -2.25827,0 -4.44449,-0.226772 -6.56102,-0.635433 -2.11535,-0.453543 -4.08661,-1.13386 -5.91732,-2.08819 -1.93346,-0.817323 -3.72756,-1.90512 -5.33976,-3.31063 -1.64882,-1.36299 -3.15472,-3.0874 -4.55197,-5.12835 -1.39961,-2.04331 -2.61969,-4.35827 -3.69213,-6.98858 -1.07717,-2.58661 -2.00906,-5.53701 -2.7626,-8.8063 -0.752362,-3.26575 -1.32638,-6.89646 -1.75394,-10.8461 -0.398031,-3.99094 -0.61063,-8.34921 -0.61063,-13.1138l0 -40.0252c0,-4.76693 0.212598,-9.16654 0.61063,-13.2508 0.427559,-4.03937 1.00157,-7.71732 1.75394,-10.9831 0.753543,-3.26693 1.68543,-6.21732 2.7626,-8.80276 1.07244,-2.63386 2.29252,-4.94882 3.69213,-6.98976 1.39724,-1.9063 2.90315,-3.54094 4.55197,-4.94528 1.6122,-1.36417 3.4063,-2.54173 5.33976,-3.49606 1.83071,-0.817323 3.80197,-1.45276 5.91732,-1.86142 2.11654,-0.406299 4.30276,-0.588189 6.56102,-0.588189 1.39961,0 2.8689,0 4.3748,0.0448819 1.50591,0 3.04843,0.0897638 4.65827,0.226772 1.61457,0.137008 3.19016,0.226772 4.69606,0.271654 1.54252,0.0448819 3.04843,0.137008 4.55433,0.274016 1.50591,0.134646 2.9752,0.226772 4.3748,0.271654 1.43268,0.0448819 2.83228,0.134646 4.22953,0.271654 1.28976,0.137008 2.47441,0.271654 3.58465,0.408661 1.0748,0.137008 2.11417,0.271654 3.08504,0.408661l0.431102 0c0.75,0 1.43031,-0.137008 2.04331,-0.408661 0.607087,-0.271654 1.07244,-0.680315 1.39724,-1.22598 0.32126,-0.543307 0.537402,-1.17874 0.679134,-1.86142 0.109843,-0.680315 0.179528,-1.40551 0.179528,-2.22283l0 -18.2433c0,-0.951969 -0.106299,-1.81417 -0.32126,-2.58661 -0.216142,-0.770079 -0.537402,-1.36063 -0.966142,-1.76929 -0.433465,-0.408661 -0.935433,-0.772441 -1.47283,-1.04409 -0.572835,-0.318898 -1.21654,-0.590551 -1.97008,-0.862205 -0.431102,-0.137008 -1.00512,-0.271654 -1.75748,-0.453543 -0.719291,-0.137008 -1.57913,-0.36378 -2.54409,-0.635433 -2.15315,-0.545669 -4.73386,-1.0878 -7.74567,-1.63465 -1.50591,-0.133465 -3.11811,-0.315354 -4.80236,-0.542126 -1.72205,-0.226772 -3.47953,-0.408661 -5.30787,-0.545669 -1.82953,-0.138189 -3.76417,-0.271654 -5.7378,-0.364961 -2.00669,-0.133465 -4.05,-0.18189 -6.09331,-0.18189 -3.22441,0 -6.56102,0.275197 -9.96496,0.817323 -3.44173,0.54685 -6.9189,1.36417 -10.4681,2.45197 -3.55157,1.22598 -6.99213,2.85827 -10.252,4.94646 -3.30118,2.13307 -6.42165,4.7185 -9.32362,7.85079 -3.01181,3.13228 -5.70236,6.80787 -8.1378,11.028 -2.44016,4.22126 -4.66299,8.98583 -6.70276,14.2949 -1.94055,5.44488 -3.37087,11.6634 -4.33937,18.6059 -0.967323,6.98858 -1.47165,14.7508 -1.47165,23.3268l0 40.0252c0,8.44252 0.504331,16.1114 1.47165,23.0528 0.968504,6.9 2.39882,13.024 4.33937,18.3343 2.03976,5.30906 4.2626,10.076 6.70276,14.2949 2.43543,4.22008 5.12598,7.89803 8.1378,11.028 2.90197,3.13228 6.02244,5.7626 9.32362,7.94291 3.25984,2.17795 6.70039,3.90236 10.252,5.12835 3.54921,1.22362 7.02638,2.13307 10.4681,2.67638 3.40394,0.590551 6.74055,0.861024 9.96496,0.861024 2.04331,0 4.08661,-0.0437008 6.09331,-0.18189 1.97362,-0.0885827 3.90827,-0.226772 5.7378,-0.360236 1.82835,-0.137008 3.58583,-0.318898 5.30787,-0.590551 1.68425,-0.226772 3.29646,-0.498425 4.80236,-0.772441 1.50591,-0.134646 2.90551,-0.316535 4.19291,-0.588189 1.29331,-0.229134 2.47441,-0.500787 3.55276,-0.772441 0.964961,-0.137008 1.8248,-0.318898 2.54409,-0.545669 0.752362,-0.226772 1.32638,-0.408661 1.75748,-0.543307 0.753543,-0.274016 1.39724,-0.590551 1.97008,-0.999213 0.537402,-0.36378 1.03937,-0.772441 1.47283,-1.17874 0.858661,-0.817323 1.2874,-2.18031 1.2874,-4.08661z"/>
     <polygon id="_155988904" class="fil2" points="1561.3,552.833 1407.03,641.898 1426.78,641.898 1561.3,564.234 1561.3,946.096 1428.75,869.584 1408.99,869.584 1561.3,957.498 1736.53,856.348 1736.53,653.998 "/>
     <path id="_155988856" class="fil3" d="M1695.83 857.473c0.537402,0 1.0748,-0.137008 1.57559,-0.408661 0.537402,-0.271654 1.00512,-0.680315 1.43268,-1.22598 0.431102,-0.543307 0.753543,-1.13386 0.968504,-1.81417 0.216142,-0.635433 0.322441,-1.31575 0.322441,-1.99843l0 -20.6929c0,-0.680315 -0.106299,-1.36063 -0.322441,-1.99606 -0.214961,-0.590551 -0.537402,-1.13386 -0.968504,-1.54252 -0.427559,-0.408661 -0.895276,-0.727559 -1.43268,-0.999213 -0.500787,-0.226772 -1.03819,-0.36378 -1.57559,-0.36378l-28.8272 0 0 -166.094c0,-1.76929 -0.322441,-3.08504 -1.00276,-3.90236 -0.646063,-0.861024 -1.68425,-1.26969 -3.08386,-1.26969l-14.413 0c-0.537402,0 -1.03819,0 -1.46929,0.0437008 -0.464173,0 -0.895276,0.0897638 -1.32402,0.226772 -0.324803,0.138189 -0.646063,0.271654 -1.00512,0.408661 -0.32126,0.138189 -0.719291,0.271654 -1.14685,0.408661l-38.0752 15.7925c-0.537402,0.271654 -0.93189,0.680315 -1.14449,1.1811 -0.252756,0.543307 -0.361417,1.13386 -0.361417,1.81417l0 25.5945c0,1.0878 0.214961,1.90512 0.61063,2.45197 0.429921,0.542126 1.00394,0.817323 1.75394,0.817323 0.540945,0 1.04173,-0.0484252 1.47283,-0.18189 0.431102,-0.0933071 0.788976,-0.226772 1.11142,-0.364961l28.1776 -10.8909 0 133.964 -28.8248 0c-0.537402,0 -1.0748,0.137008 -1.57559,0.36378 -0.539764,0.271654 -1.00512,0.590551 -1.43622,0.999213 -0.427559,0.408661 -0.75,0.951969 -0.968504,1.54252 -0.212598,0.635433 -0.32126,1.31575 -0.32126,1.99606l0 20.6929c0,0.682677 0.108661,1.36299 0.32126,1.99843 0.218504,0.680315 0.540945,1.27087 0.968504,1.81417 0.431102,0.545669 0.896457,0.954331 1.43622,1.22598 0.500787,0.271654 1.03819,0.408661 1.57559,0.408661l87.5516 0z"/>
    </g>
    <path id="_155987656" class="fil4" d="M204.919 949.398l-10.435 0 0 27.1701 -4.92992 0 0 -56.361 11.1909 0c7.13504,0 11.8831,1.00394 14.2441,3.01299 2.35984,2.02205 3.53386,5.76496 3.53386,11.2441 0,3.83386 -0.638976,6.7689 -1.92992,8.77795 -1.29094,2.00906 -3.35197,3.33898 -6.20906,3.97795 2.85709,0.535039 4.82598,1.60394 5.93504,3.22205 1.10906,1.61693 1.67008,4.43504 1.67008,8.43898l0 3.58701c0,2.11299 0.0779528,4.34291 0.24685,6.69094 0.170079,2.33504 0.41811,4.81299 0.744094,7.40906l-5.46496 0c-0.35315,-3.92598 -0.574016,-8.1 -0.625984,-12.5091 -0.0661417,-4.42087 -0.131102,-6.88701 -0.183071,-7.39488 -0.274016,-2.63504 -1.01693,-4.5 -2.21693,-5.60906 -1.18701,-1.10906 -3.05315,-1.65709 -5.57008,-1.65709zm-10.435 -3.97795l5.96102 0c4.83898,0 8.21693,-0.848031 10.122,-2.54291 1.91693,-1.69606 2.8689,-4.68307 2.8689,-8.96102 0,-3.61299 -0.820866,-6.10512 -2.46496,-7.48701 -1.64291,-1.37008 -4.81299,-2.06102 -9.49606,-2.06102l-6.99094 0 0 21.052z"/>
    <polygon id="_1559876561" class="fil4" points="254.054,976.569 228.763,976.569 228.763,920.207 254.054,920.207 254.054,924.604 233.85,924.604 233.85,945.433 252.867,945.433 252.867,949.556 233.85,949.556 233.85,971.872 254.054,971.872 "/>
    <path id="_15598765612" class="fil4" d="M273.098 976.569l-15.522 -56.361 5.50512 0 9.78189 36.639c0.364961,1.30512 0.835039,3.26102 1.43504,5.89606 0.6,2.62205 1.26496,5.68701 2.00906,9.20906 0.638976,-2.90906 1.86496,-7.67008 3.70394,-14.2961l0.261024 -0.951969 10.0961 -36.4961 4.92992 0 -15.861 56.361 -6.33898 0z"/>
    <polygon id="_155987656123" class="fil4" points="326.394,976.569 301.103,976.569 301.103,920.207 326.394,920.207 326.394,924.604 306.19,924.604 306.19,945.433 325.207,945.433 325.207,949.556 306.19,949.556 306.19,971.872 326.394,971.872 "/>
    <path id="_1559876561234" class="fil4" d="M333.855 960.669l5.2311 0.0389764c-0.0259843,0.183071 -0.0389764,0.403937 -0.0519685,0.664961 -0.0129921,0.274016 -0.0259843,0.651969 -0.0259843,1.17402 0,3.53504 0.84685,6.19606 2.55591,7.98307 1.70906,1.78701 4.25197,2.67402 7.61811,2.67402 3.10394,0 5.58189,-0.912992 7.44685,-2.75197 1.86614,-1.84016 2.79213,-4.27913 2.79213,-7.3311 0,-2.19094 -0.6,-4.12205 -1.81299,-5.77795 -1.21299,-1.65709 -4.25315,-4.0311 -9.11811,-7.14803 -0.429921,-0.274016 -1.08189,-0.690945 -1.94291,-1.25197 -3.7311,-2.34803 -6.36614,-4.2 -7.91811,-5.54409 -1.39488,-1.25197 -2.46496,-2.77795 -3.20787,-4.59094 -0.744094,-1.8 -1.10906,-3.80906 -1.10906,-6 0,-4.14803 1.38307,-7.44803 4.14803,-9.87402 2.76496,-2.43898 6.50787,-3.65197 11.2559,-3.65197 4.70906,0 8.30906,1.22598 10.813,3.69094 2.49213,2.45197 3.74409,6 3.74409,10.6441l0 1.14803 -5.16496 0 0 -0.535039c0,-3.6 -0.796063,-6.26102 -2.38701,-8.00906 -1.59213,-1.74803 -4.0311,-2.62205 -7.31811,-2.62205 -3,0 -5.41299,0.809055 -7.21299,2.42598 -1.81299,1.61811 -2.71299,3.78307 -2.71299,6.48307 0,2.33504 0.744094,4.44803 2.21811,6.3 1.47283,1.86496 5.08701,4.59094 10.839,8.17795 5.04803,3.11811 8.32087,5.72598 9.82087,7.83898 1.5,2.11417 2.25709,4.65709 2.25709,7.64409 0,4.76102 -1.37008,8.46496 -4.12205,11.1 -2.75197,2.63504 -6.62598,3.95197 -11.622,3.95197 -4.9689,0 -8.72598,-1.26496 -11.2689,-3.78189 -2.54409,-2.51811 -3.82205,-6.23504 -3.82205,-11.1272 0,-0.533858 0,-0.938976 0.0129921,-1.21299 0.0129921,-0.287008 0.0389764,-0.520866 0.0649606,-0.729921z"/>
    <polygon id="_15598765612345" class="fil4" points="382.925,976.569 382.925,924.604 369.203,924.604 369.203,920.207 401.538,920.207 401.538,924.604 387.777,924.604 387.777,976.569 "/>
    <polygon id="_155987656123456" class="fil4" points="407.382,976.569 407.382,920.207 412.469,920.207 412.469,976.569 "/>
    <path id="_1559876561234567" class="fil4" d="M422.982 976.569l0 -56.361 8.21693 0 13.526 40.461c0.405118,1.2 0.874016,2.82992 1.40906,4.87795 0.535039,2.04803 1.08307,4.30512 1.64291,6.78307 1.01811,-4.13504 1.73504,-6.96496 2.12598,-8.51811 0.392126,-1.56496 0.679134,-2.60787 0.861024,-3.14291l13.526 -40.461 8.21811 0 0 56.361 -4.85197 0 0 -42.339c0,-0.664961 0.0259843,-1.99606 0.0909449,-3.99213 0.0649606,-1.99488 0.157087,-4.26496 0.248031,-6.78189l-17.5441 53.113 -5.64803 0 -17.5039 -53.348c0.116929,2.90906 0.222047,5.20394 0.287008,6.88701 0.0649606,1.68307 0.0909449,3.05197 0.0909449,4.12205l0 42.339 -4.69488 0z"/>
    <polygon id="_15598765612345678" class="fil4" points="508.143,976.569 482.852,976.569 482.852,920.207 508.143,920.207 508.143,924.604 487.939,924.604 487.939,945.433 506.956,945.433 506.956,949.556 487.939,949.556 487.939,971.872 508.143,971.872 "/>
    <path id="_155987656123456789" class="fil4" d="M516.596 976.569l0 -56.361 7.91693 0 23.7909 53.152c-0.325984,-2.03386 -0.572835,-4.09488 -0.716929,-6.15591 -0.155906,-2.06102 -0.235039,-4.13504 -0.235039,-6.22205l0 -40.774 4.9311 0 0 56.361 -7.60512 0 -23.8429 -52.735c0.261024,1.6311 0.455906,3.39094 0.574016,5.25709 0.129921,1.87795 0.194882,3.87402 0.194882,6.01299l0 41.465 -5.00787 0z"/>
    <polygon id="_15598765612345678910" class="fil4" points="571.783,976.569 571.783,924.604 558.061,924.604 558.061,920.207 590.396,920.207 590.396,924.604 576.635,924.604 576.635,976.569 "/>
    <path id="_1559876561234567891011" class="fil4" d="M593.8 948.407c0,-7.72205 0.340157,-13.2 1.01811,-16.422 0.664961,-3.22087 1.81299,-5.79094 3.41693,-7.69488 1.42205,-1.65709 3.20906,-2.89606 5.34803,-3.70512 2.13898,-0.820866 4.62992,-1.22598 7.48701,-1.22598 2.82992,0 5.33504,0.41811 7.51299,1.23898 2.17795,0.835039 3.95197,2.06102 5.32205,3.69213 1.62992,1.92992 2.79094,4.55197 3.45591,7.83898 0.679134,3.27402 1.01811,8.7 1.01811,16.278 0,7.59094 -0.338976,13.0311 -1.01811,16.3181 -0.664961,3.28583 -1.82598,5.88189 -3.45591,7.78583 -1.37008,1.57913 -3.18307,2.81811 -5.42598,3.69213 -2.24409,0.874016 -4.70906,1.31693 -7.40906,1.31693 -2.7,0 -5.16496,-0.442913 -7.39606,-1.31693 -2.22992,-0.874016 -4.04291,-2.11299 -5.43898,-3.69213 -1.62992,-1.90394 -2.77795,-4.5 -3.44291,-7.78583 -0.666142,-3.28701 -0.992126,-8.72717 -0.992126,-16.3181zm5.2311 -0.0129921c0,9.80906 0.874016,16.3831 2.63504,19.722 1.76102,3.33898 4.89094,5.00906 9.40394,5.00906 4.51299,0 7.62992,-1.65709 9.37795,-4.97008 1.74803,-3.31299 2.62205,-9.9 2.62205,-19.761 0,-9.9 -0.874016,-16.513 -2.62205,-19.826 -1.74803,-3.31299 -4.86496,-4.97008 -9.37795,-4.97008 -4.51299,0 -7.64291,1.67008 -9.40394,5.02205 -1.76102,3.35197 -2.63504,9.93898 -2.63504,19.774z"/>
    <path id="_155987656123456789101112" class="fil4" d="M671.448 949.398l-10.435 0 0 27.1701 -4.92992 0 0 -56.361 11.1909 0c7.13504,0 11.8831,1.00394 14.2441,3.01299 2.35984,2.02205 3.53386,5.76496 3.53386,11.2441 0,3.83386 -0.638976,6.7689 -1.92992,8.77795 -1.29094,2.00906 -3.35197,3.33898 -6.20906,3.97795 2.85709,0.535039 4.82598,1.60394 5.93504,3.22205 1.10906,1.61693 1.67008,4.43504 1.67008,8.43898l0 3.58701c0,2.11299 0.0779528,4.34291 0.24685,6.69094 0.170079,2.33504 0.41811,4.81299 0.744094,7.40906l-5.46496 0c-0.35315,-3.92598 -0.574016,-8.1 -0.625984,-12.5091 -0.0661417,-4.42087 -0.131102,-6.88701 -0.183071,-7.39488 -0.274016,-2.63504 -1.01693,-4.5 -2.21693,-5.60906 -1.18701,-1.10906 -3.05315,-1.65709 -5.57008,-1.65709zm-10.435 -3.97795l5.96102 0c4.83898,0 8.21693,-0.848031 10.122,-2.54291 1.91693,-1.69606 2.8689,-4.68307 2.8689,-8.96102 0,-3.61299 -0.820866,-6.10512 -2.46496,-7.48701 -1.64291,-1.37008 -4.81299,-2.06102 -9.49606,-2.06102l-6.99094 0 0 21.052z"/>
    <polygon id="_15598765612345678910111213" class="fil4" points="720.583,976.569 695.293,976.569 695.293,920.207 720.583,920.207 720.583,924.604 700.38,924.604 700.38,945.433 719.396,945.433 719.396,949.556 700.38,949.556 700.38,971.872 720.583,971.872 "/>
    <polygon id="_1559876561234567891011121314" class="fil4" points="729.037,976.569 729.037,920.207 752.685,920.207 752.685,924.604 734.124,924.604 734.124,945.433 751.419,945.433 751.419,949.556 734.124,949.556 734.124,976.569 "/>
    <polygon id="_155987656123456789101112131415" class="fil4" points="760.457,976.569 760.457,920.207 765.624,920.207 765.624,972.172 784.38,972.172 784.38,976.569 "/>
    <polygon id="_15598765612345678910111213141516" class="fil4" points="815.631,976.569 790.341,976.569 790.341,920.207 815.631,920.207 815.631,924.604 795.428,924.604 795.428,945.433 814.444,945.433 814.444,949.556 795.428,949.556 795.428,971.872 815.631,971.872 "/>
    <polygon id="_1559876561234567891011121314151617" class="fil4" points="832.876,976.569 832.876,924.604 819.154,924.604 819.154,920.207 851.489,920.207 851.489,924.604 837.728,924.604 837.728,976.569 "/>
    <polygon id="_155987656123456789101112131415161718" class="fil4" points="857.333,976.569 857.333,920.207 862.42,920.207 862.42,976.569 "/>
    <path id="_15598765612345678910111213141516171819" class="fil4" d="M883.824 976.569l-15.522 -56.361 5.50512 0 9.78189 36.639c0.364961,1.30512 0.835039,3.26102 1.43504,5.89606 0.6,2.62205 1.26496,5.68701 2.00906,9.20906 0.638976,-2.90906 1.86496,-7.67008 3.70394,-14.2961l0.261024 -0.951969 10.0961 -36.4961 4.92992 0 -15.861 56.361 -6.33898 0z"/>
    <path id="_1559876561234567891011121314151617181920" class="fil4" d="M910.837 948.407c0,-7.72205 0.340157,-13.2 1.01811,-16.422 0.664961,-3.22087 1.81299,-5.79094 3.41693,-7.69488 1.42205,-1.65709 3.20906,-2.89606 5.34803,-3.70512 2.13898,-0.820866 4.62992,-1.22598 7.48701,-1.22598 2.82992,0 5.33504,0.41811 7.51299,1.23898 2.17795,0.835039 3.95197,2.06102 5.32205,3.69213 1.62992,1.92992 2.79094,4.55197 3.45591,7.83898 0.679134,3.27402 1.01811,8.7 1.01811,16.278 0,7.59094 -0.338976,13.0311 -1.01811,16.3181 -0.664961,3.28583 -1.82598,5.88189 -3.45591,7.78583 -1.37008,1.57913 -3.18307,2.81811 -5.42598,3.69213 -2.24409,0.874016 -4.70906,1.31693 -7.40906,1.31693 -2.7,0 -5.16496,-0.442913 -7.39606,-1.31693 -2.22992,-0.874016 -4.04291,-2.11299 -5.43898,-3.69213 -1.62992,-1.90394 -2.77795,-4.5 -3.44291,-7.78583 -0.666142,-3.28701 -0.992126,-8.72717 -0.992126,-16.3181zm5.2311 -0.0129921c0,9.80906 0.874016,16.3831 2.63504,19.722 1.76102,3.33898 4.89094,5.00906 9.40394,5.00906 4.51299,0 7.62992,-1.65709 9.37795,-4.97008 1.74803,-3.31299 2.62205,-9.9 2.62205,-19.761 0,-9.9 -0.874016,-16.513 -2.62205,-19.826 -1.74803,-3.31299 -4.86496,-4.97008 -9.37795,-4.97008 -4.51299,0 -7.64291,1.67008 -9.40394,5.02205 -1.76102,3.35197 -2.63504,9.93898 -2.63504,19.774z"/>
    <polygon id="_490283936" class="fil4" points="200.37,401.779 200.37,324.078 207.384,324.078 207.384,401.779 "/>
    <path id="_4902839361" class="fil4" d="M220.923 379.859l7.21181 0.0543307c-0.0366142,0.251575 -0.0543307,0.55748 -0.0720472,0.916535 -0.0188976,0.377953 -0.0366142,0.898819 -0.0366142,1.61811 0,4.87323 1.16929,8.54173 3.52441,11.0055 2.3563,2.46378 5.86299,3.68622 10.5024,3.68622 4.27913,0 7.69606,-1.25906 10.2673,-3.7937 2.57126,-2.53583 3.84803,-5.89843 3.84803,-10.1067 0,-3.02126 -0.826772,-5.68228 -2.49921,-7.96535 -1.67244,-2.28425 -5.86181,-5.55709 -12.5693,-9.85512 -0.594094,-0.376772 -1.49291,-0.95315 -2.67992,-1.72559 -5.14252,-3.2374 -8.77559,-5.79094 -10.9146,-7.64291 -1.92402,-1.72559 -3.39921,-3.83031 -4.42441,-6.32953 -1.02402,-2.4815 -1.52835,-5.25118 -1.52835,-8.27126 0,-5.7189 1.9063,-10.2685 5.7189,-13.6134 3.81142,-3.3626 8.97283,-5.03386 15.5185,-5.03386 6.49134,0 11.4543,1.69016 14.9067,5.08819 3.43465,3.38031 5.16142,8.27244 5.16142,14.674l0 1.5815 -7.12087 0 0 -0.737008c0,-4.96299 -1.09724,-8.6315 -3.29055,-11.0409 -2.19449,-2.40945 -5.55709,-3.61417 -10.089,-3.61417 -4.13504,0 -7.4622,1.11496 -9.9437,3.34488 -2.49921,2.22992 -3.74055,5.21457 -3.74055,8.9374 0,3.2185 1.0252,6.1311 3.05787,8.68465 2.0315,2.57126 7.0122,6.32953 14.9421,11.2748 6.95906,4.29803 11.4732,7.89449 13.5413,10.8071 2.06811,2.91378 3.11102,6.41929 3.11102,10.5378 0,6.56339 -1.88858,11.6705 -5.68228,15.3024 -3.79488,3.63307 -9.13583,5.44843 -16.0228,5.44843 -6.85039,0 -12.0295,-1.74331 -15.5362,-5.21457 -3.50669,-3.47008 -5.2689,-8.59488 -5.2689,-15.339 0,-0.737008 0,-1.29449 0.0177165,-1.67126 0.0188976,-0.395669 0.0543307,-0.719291 0.0897638,-1.00748z"/>
    <path id="_49028393612" class="fil4" d="M275.085 362.956c0,-10.6465 0.467717,-18.1984 1.40315,-22.6394 0.916535,-4.44213 2.49921,-7.98425 4.71142,-10.6098 1.95945,-2.28425 4.42323,-3.99213 7.37244,-5.10709 2.94921,-1.13268 6.38386,-1.69016 10.3217,-1.69016 3.90236,0 7.35472,0.575197 10.3583,1.70787 3.00236,1.15157 5.44843,2.84173 7.33583,5.08937 2.24764,2.66102 3.84803,6.2752 4.76575,10.8071 0.935433,4.51299 1.40197,11.9941 1.40197,22.4421 0,10.4646 -0.466535,17.9634 -1.40197,22.4953 -0.917717,4.53189 -2.51811,8.10945 -4.76575,10.735 -1.8874,2.17559 -4.3878,3.88465 -7.47992,5.08937 -3.09331,1.20472 -6.49134,1.81535 -10.2142,1.81535 -3.72165,0 -7.12087,-0.61063 -10.1953,-1.81535 -3.07559,-1.20472 -5.5748,-2.91378 -7.49882,-5.08937 -2.24764,-2.62559 -3.83031,-6.20315 -4.74685,-10.735 -0.917717,-4.53189 -1.36772,-12.0307 -1.36772,-22.4953zm7.21181 -0.0188976c0,13.5224 1.20472,22.5862 3.63189,27.189 2.42717,4.60394 6.74291,6.90591 12.965,6.90591 6.22205,0 10.5201,-2.28425 12.9295,-6.85157 2.40945,-4.56732 3.61417,-13.6488 3.61417,-27.2433 0,-13.6476 -1.20472,-22.7646 -3.61417,-27.3319 -2.40945,-4.56732 -6.70748,-6.85157 -12.9295,-6.85157 -6.22205,0 -10.5378,2.30197 -12.965,6.92362 -2.42717,4.62047 -3.63189,13.702 -3.63189,27.2598z"/>
    <polygon id="_490283936123" class="fil4" points="337.248,401.779 337.248,324.078 344.369,324.078 344.369,395.719 370.228,395.719 370.228,401.779 "/>
    <path id="_4902839361234" class="fil4" d="M387.706 375.021l26.3622 0 -12.9827 -43.7858 -13.3795 43.7858zm-8.05512 26.7579l-7.10315 0 24.9047 -77.7012 7.85787 0 24.4028 77.7012 -7.64291 0 -6.38386 -20.6976 -29.8677 0 -6.16772 20.6976z"/>
    <path id="_49028393612345" class="fil4" d="M438.146 401.779l0 -77.7012 11.3291 0 18.6472 55.7811c0.55748,1.65472 1.20472,3.90236 1.94173,6.7252 0.738189,2.82283 1.49291,5.93386 2.26654,9.35079 1.40197,-5.7 2.39173,-9.60236 2.93031,-11.7425 0.539764,-2.15787 0.935433,-3.59646 1.18701,-4.33346l18.6472 -55.7811 11.3291 0 0 77.7012 -6.68976 0 0 -58.3701c0,-0.916535 0.0366142,-2.75079 0.126378,-5.50276 0.0897638,-2.75079 0.216142,-5.87953 0.341339,-9.35079l-24.1854 73.2236 -7.78701 0 -24.1311 -73.5472c0.161811,4.01102 0.305906,7.1752 0.395669,9.49488 0.0897638,2.31969 0.125197,4.20827 0.125197,5.68228l0 58.3701 -6.47362 0z"/>
    <polygon id="_490283936123456" class="fil4" points="555.552,401.779 520.685,401.779 520.685,324.078 555.552,324.078 555.552,330.138 527.698,330.138 527.698,358.856 553.916,358.856 553.916,364.538 527.698,364.538 527.698,395.306 555.552,395.306 "/>
    <path id="_4902839361234567" class="fil4" d="M567.206 401.779l0 -77.7012 10.9146 0 32.7992 73.278c-0.45,-2.80512 -0.791339,-5.64685 -0.988583,-8.4874 -0.216142,-2.84173 -0.323622,-5.70118 -0.323622,-8.57835l0 -56.2122 6.79724 0 0 77.7012 -10.4835 0 -32.8713 -72.7016c0.359055,2.24764 0.628346,4.6748 0.790157,7.24724 0.180709,2.58898 0.270472,5.33976 0.270472,8.28898l0 57.1654 -6.90472 0z"/>
    <polygon id="_49028393612345678" class="fil4" points="643.287,401.779 643.287,330.138 624.371,330.138 624.371,324.078 668.948,324.078 668.948,330.138 649.977,330.138 649.977,401.779 "/>
    <path id="_490283936123456789" class="fil4" d="M673.641 362.956c0,-10.6465 0.467717,-18.1984 1.40315,-22.6394 0.916535,-4.44213 2.49921,-7.98425 4.71142,-10.6098 1.95945,-2.28425 4.42323,-3.99213 7.37244,-5.10709 2.94921,-1.13268 6.38386,-1.69016 10.3217,-1.69016 3.90236,0 7.35472,0.575197 10.3583,1.70787 3.00236,1.15157 5.44843,2.84173 7.33583,5.08937 2.24764,2.66102 3.84803,6.2752 4.76575,10.8071 0.935433,4.51299 1.40197,11.9941 1.40197,22.4421 0,10.4646 -0.466535,17.9634 -1.40197,22.4953 -0.917717,4.53189 -2.51811,8.10945 -4.76575,10.735 -1.8874,2.17559 -4.3878,3.88465 -7.47992,5.08937 -3.09331,1.20472 -6.49134,1.81535 -10.2142,1.81535 -3.72165,0 -7.12087,-0.61063 -10.1953,-1.81535 -3.07559,-1.20472 -5.5748,-2.91378 -7.49882,-5.08937 -2.24764,-2.62559 -3.83031,-6.20315 -4.74685,-10.735 -0.917717,-4.53189 -1.36772,-12.0307 -1.36772,-22.4953zm7.21181 -0.0188976c0,13.5224 1.20472,22.5862 3.63189,27.189 2.42717,4.60394 6.74291,6.90591 12.965,6.90591 6.22205,0 10.5201,-2.28425 12.9295,-6.85157 2.40945,-4.56732 3.61417,-13.6488 3.61417,-27.2433 0,-13.6476 -1.20472,-22.7646 -3.61417,-27.3319 -2.40945,-4.56732 -6.70748,-6.85157 -12.9295,-6.85157 -6.22205,0 -10.5378,2.30197 -12.965,6.92362 -2.42717,4.62047 -3.63189,13.702 -3.63189,27.2598z"/>
    <polygon id="_49028393612345678910" class="fil4" points="771.625,401.779 771.625,330.138 752.708,330.138 752.708,324.078 797.285,324.078 797.285,330.138 778.315,330.138 778.315,401.779 "/>
    <path id="_4902839361234567891011" class="fil4" d="M840.1 401.779l-34.8661 0 0 -77.7012 34.8661 0 0 6.06024 -27.8539 0 0 28.7173 26.2181 0 0 5.68228 -26.2181 0 0 30.7677 27.8539 0 0 6.47362zm-18.5752 -84.7677l-4.85433 0 11.022 -18.3413 8.00197 0 -14.1697 18.3413z"/>
    <path id="_490283936123456789101112" class="fil4" d="M872.936 364.323l-14.3858 0 0 37.4563 -6.79606 0 0 -77.7012 15.4276 0c9.83622,0 16.3819,1.38543 19.637,4.15394 3.25512,2.7874 4.87323,7.94882 4.87323,15.5008 0,5.28661 -0.881102,9.33307 -2.66102,12.1028 -1.7811,2.7685 -4.62165,4.60276 -8.55945,5.48386 3.9378,0.737008 6.65315,2.2122 8.1815,4.44213 1.52835,2.22992 2.30197,6.11339 2.30197,11.6339l0 4.94528c0,2.9126 0.10748,5.98819 0.341339,9.22441 0.233858,3.21969 0.575197,6.63543 1.0252,10.2142l-7.53425 0c-0.486614,-5.41299 -0.791339,-11.1673 -0.863386,-17.2453 -0.0897638,-6.09567 -0.180709,-9.4937 -0.251575,-10.1953 -0.377953,-3.63307 -1.40315,-6.20433 -3.05787,-7.73268 -1.63583,-1.52835 -4.20709,-2.28307 -7.67835,-2.28307zm-14.3858 -5.48504l8.21811 0c6.67205,0 11.3291,-1.16929 13.9547,-3.50669 2.64331,-2.3374 3.95551,-6.45472 3.95551,-12.3531 0,-4.98071 -1.13268,-8.41535 -3.39803,-10.3217 -2.26654,-1.88858 -6.63543,-2.84173 -13.0913,-2.84173l-9.63898 0 0 29.0232z"/>
    <path id="_49028393612345678910111213" class="fil4" d="M905.394 401.779l0 -77.7012 11.3291 0 18.6472 55.7811c0.55748,1.65472 1.20472,3.90236 1.94173,6.7252 0.738189,2.82283 1.49291,5.93386 2.26654,9.35079 1.40197,-5.7 2.39173,-9.60236 2.93031,-11.7425 0.539764,-2.15787 0.935433,-3.59646 1.18701,-4.33346l18.6472 -55.7811 11.3291 0 0 77.7012 -6.68976 0 0 -58.3701c0,-0.916535 0.0366142,-2.75079 0.126378,-5.50276 0.0897638,-2.75079 0.216142,-5.87953 0.341339,-9.35079l-24.1854 73.2236 -7.78701 0 -24.1311 -73.5472c0.161811,4.01102 0.305906,7.1752 0.395669,9.49488 0.0897638,2.31969 0.125197,4.20827 0.125197,5.68228l0 58.3701 -6.47362 0z"/>
    <polygon id="_4902839361234567891011121314" class="fil4" points="988.041,401.779 988.041,324.078 995.054,324.078 995.054,401.779 "/>
    <path id="_490283936123456789101112131415" class="fil4" d="M1044.52 379.122l7.42559 0 0 0.323622c0,7.51654 -1.86969,13.324 -5.61024,17.4602 -3.73937,4.1185 -9.02717,6.18543 -15.8776,6.18543 -3.86693,0 -7.30039,-0.772441 -10.2862,-2.31969 -2.98465,-1.54606 -5.43071,-3.7937 -7.37244,-6.74291 -1.54606,-2.35512 -2.62559,-5.32205 -3.25512,-8.9374 -0.629528,-3.59646 -0.95315,-9.90827 -0.95315,-18.9343l0 -3.00354c0,-7.78583 0.180709,-13.5224 0.522047,-17.1732 0.359055,-3.64961 0.935433,-6.81496 1.74449,-9.47598 1.29449,-4.26142 3.72165,-7.58858 7.26496,-9.98031 3.55984,-2.40945 7.82126,-3.61417 12.8031,-3.61417 7.17402,0 12.3531,1.70787 15.5717,5.14252 3.21969,3.41693 4.82008,8.9374 4.82008,16.5614l0 0.413386 -7.21181 0c-0.0708661,-5.75433 -1.13268,-9.9437 -3.16417,-12.5327 -2.03268,-2.60787 -5.30433,-3.90236 -9.80079,-3.90236 -5.62795,0 -9.56575,2.17559 -11.8323,6.52795 -2.26535,4.35118 -3.39803,12.3709 -3.39803,24.0236 0,6.25748 0.10748,11.5264 0.341339,15.8067 0.233858,4.29685 0.594094,7.7315 1.07953,10.3217 0.700394,3.70394 2.21102,6.56339 4.53071,8.59488 2.31969,2.0315 5.21575,3.05669 8.70354,3.05669 4.35236,0 7.76811,-1.41969 10.2319,-4.26142 2.4815,-2.84173 3.72283,-6.77953 3.72283,-11.7957l0 -1.74449z"/>
    <path id="_49028393612345678910111213141516" class="fil4" d="M1062.75 362.956c0,-10.6465 0.467717,-18.1984 1.40315,-22.6394 0.916535,-4.44213 2.49921,-7.98425 4.71142,-10.6098 1.95945,-2.28425 4.42323,-3.99213 7.37244,-5.10709 2.94921,-1.13268 6.38386,-1.69016 10.3217,-1.69016 3.90236,0 7.35472,0.575197 10.3583,1.70787 3.00236,1.15157 5.44843,2.84173 7.33583,5.08937 2.24764,2.66102 3.84803,6.2752 4.76575,10.8071 0.935433,4.51299 1.40197,11.9941 1.40197,22.4421 0,10.4646 -0.466535,17.9634 -1.40197,22.4953 -0.917717,4.53189 -2.51811,8.10945 -4.76575,10.735 -1.8874,2.17559 -4.3878,3.88465 -7.47992,5.08937 -3.09331,1.20472 -6.49134,1.81535 -10.2142,1.81535 -3.72165,0 -7.12087,-0.61063 -10.1953,-1.81535 -3.07559,-1.20472 -5.5748,-2.91378 -7.49882,-5.08937 -2.24764,-2.62559 -3.83031,-6.20315 -4.74685,-10.735 -0.917717,-4.53189 -1.36772,-12.0307 -1.36772,-22.4953zm7.21181 -0.0188976c0,13.5224 1.20472,22.5862 3.63189,27.189 2.42717,4.60394 6.74291,6.90591 12.965,6.90591 6.22205,0 10.5201,-2.28425 12.9295,-6.85157 2.40945,-4.56732 3.61417,-13.6488 3.61417,-27.2433 0,-13.6476 -1.20472,-22.7646 -3.61417,-27.3319 -2.40945,-4.56732 -6.70748,-6.85157 -12.9295,-6.85157 -6.22205,0 -10.5378,2.30197 -12.965,6.92362 -2.42717,4.62047 -3.63189,13.702 -3.63189,27.2598z"/>
    <path id="_4902839361234567891011121314151617" class="fil4" d="M1155.63 401.779l-7.0122 0 0 -77.7012 18.3413 0c7.30039,0 12.5516,1.61929 15.7346,4.8378 3.20079,3.23622 4.80118,8.54173 4.80118,15.9142 0,7.62402 -1.67244,13.037 -5.03504,16.2201 -3.34488,3.20079 -9.11693,4.80118 -17.2996,4.80118l-9.53031 0 0 35.928zm0 -72.2705l0 30.9661 10.0524 0c5.77205,0 9.74646,-1.13386 11.9398,-3.41693 2.19449,-2.28425 3.29055,-6.36614 3.29055,-12.228 0,-5.68228 -1.11496,-9.65669 -3.32598,-11.922 -2.2122,-2.26535 -6.16772,-3.39921 -11.9043,-3.39921l-10.0524 0z"/>
    <path id="_490283936123456789101112131415161718" class="fil4" d="M1195.46 362.956c0,-10.6465 0.467717,-18.1984 1.40315,-22.6394 0.916535,-4.44213 2.49921,-7.98425 4.71142,-10.6098 1.95945,-2.28425 4.42323,-3.99213 7.37244,-5.10709 2.94921,-1.13268 6.38386,-1.69016 10.3217,-1.69016 3.90236,0 7.35472,0.575197 10.3583,1.70787 3.00236,1.15157 5.44843,2.84173 7.33583,5.08937 2.24764,2.66102 3.84803,6.2752 4.76575,10.8071 0.935433,4.51299 1.40197,11.9941 1.40197,22.4421 0,10.4646 -0.466535,17.9634 -1.40197,22.4953 -0.917717,4.53189 -2.51811,8.10945 -4.76575,10.735 -1.8874,2.17559 -4.3878,3.88465 -7.47992,5.08937 -3.09331,1.20472 -6.49134,1.81535 -10.2142,1.81535 -3.72165,0 -7.12087,-0.61063 -10.1953,-1.81535 -3.07559,-1.20472 -5.5748,-2.91378 -7.49882,-5.08937 -2.24764,-2.62559 -3.83031,-6.20315 -4.74685,-10.735 -0.917717,-4.53189 -1.36772,-12.0307 -1.36772,-22.4953zm7.21181 -0.0188976c0,13.5224 1.20472,22.5862 3.63189,27.189 2.42717,4.60394 6.74291,6.90591 12.965,6.90591 6.22205,0 10.5201,-2.28425 12.9295,-6.85157 2.40945,-4.56732 3.61417,-13.6488 3.61417,-27.2433 0,-13.6476 -1.20472,-22.7646 -3.61417,-27.3319 -2.40945,-4.56732 -6.70748,-6.85157 -12.9295,-6.85157 -6.22205,0 -10.5378,2.30197 -12.965,6.92362 -2.42717,4.62047 -3.63189,13.702 -3.63189,27.2598z"/>
    <path id="_49028393612345678910111213141516171819" class="fil4" d="M1277.69 364.323l-14.3858 0 0 37.4563 -6.79606 0 0 -77.7012 15.4276 0c9.83622,0 16.3819,1.38543 19.637,4.15394 3.25512,2.7874 4.87323,7.94882 4.87323,15.5008 0,5.28661 -0.881102,9.33307 -2.66102,12.1028 -1.7811,2.7685 -4.62165,4.60276 -8.55945,5.48386 3.9378,0.737008 6.65315,2.2122 8.1815,4.44213 1.52835,2.22992 2.30197,6.11339 2.30197,11.6339l0 4.94528c0,2.9126 0.10748,5.98819 0.341339,9.22441 0.233858,3.21969 0.575197,6.63543 1.0252,10.2142l-7.53425 0c-0.486614,-5.41299 -0.791339,-11.1673 -0.863386,-17.2453 -0.0897638,-6.09567 -0.180709,-9.4937 -0.251575,-10.1953 -0.377953,-3.63307 -1.40315,-6.20433 -3.05787,-7.73268 -1.63583,-1.52835 -4.20709,-2.28307 -7.67835,-2.28307zm-14.3858 -5.48504l8.21811 0c6.67205,0 11.3291,-1.16929 13.9547,-3.50669 2.64331,-2.3374 3.95551,-6.45472 3.95551,-12.3531 0,-4.98071 -1.13268,-8.41535 -3.39803,-10.3217 -2.26654,-1.88858 -6.63543,-2.84173 -13.0913,-2.84173l-9.63898 0 0 29.0232z"/>
    <path id="_4902839361234567891011121314151617181920" class="fil4" d="M1356.56 364.323l-14.3858 0 0 37.4563 -6.79606 0 0 -77.7012 15.4276 0c9.83622,0 16.3819,1.38543 19.637,4.15394 3.25512,2.7874 4.87323,7.94882 4.87323,15.5008 0,5.28661 -0.881102,9.33307 -2.66102,12.1028 -1.7811,2.7685 -4.62165,4.60276 -8.55945,5.48386 3.9378,0.737008 6.65315,2.2122 8.1815,4.44213 1.52835,2.22992 2.30197,6.11339 2.30197,11.6339l0 4.94528c0,2.9126 0.10748,5.98819 0.341339,9.22441 0.233858,3.21969 0.575197,6.63543 1.0252,10.2142l-7.53425 0c-0.486614,-5.41299 -0.791339,-11.1673 -0.863386,-17.2453 -0.0897638,-6.09567 -0.180709,-9.4937 -0.251575,-10.1953 -0.377953,-3.63307 -1.40315,-6.20433 -3.05787,-7.73268 -1.63583,-1.52835 -4.20709,-2.28307 -7.67835,-2.28307zm-14.3858 -5.48504l8.21811 0c6.67205,0 11.3291,-1.16929 13.9547,-3.50669 2.64331,-2.3374 3.95551,-6.45472 3.95551,-12.3531 0,-4.98071 -1.13268,-8.41535 -3.39803,-10.3217 -2.26654,-1.88858 -6.63543,-2.84173 -13.0913,-2.84173l-9.63898 0 0 29.0232z"/>
    <polygon id="_490283936123456789101112131415161718192021" class="fil4" points="1424.3,401.779 1389.44,401.779 1389.44,324.078 1424.3,324.078 1424.3,330.138 1396.45,330.138 1396.45,358.856 1422.67,358.856 1422.67,364.538 1396.45,364.538 1396.45,395.306 1424.3,395.306 "/>
    <polygon id="_49028393612345678910111213141516171819202122" class="fil4" points="1435.96,401.779 1435.96,324.078 1468.56,324.078 1468.56,330.138 1442.97,330.138 1442.97,358.856 1466.81,358.856 1466.81,364.538 1442.97,364.538 1442.97,401.779 "/>
    <polygon id="_4902839361234567891011121314151617181920212223" class="fil4" points="1479.27,401.779 1479.27,324.078 1486.39,324.078 1486.39,395.719 1512.25,395.719 1512.25,401.779 "/>
    <polygon id="_490283936123456789101112131415161718192021222324" class="fil4" points="1555.34,401.779 1520.47,401.779 1520.47,324.078 1555.34,324.078 1555.34,330.138 1527.48,330.138 1527.48,358.856 1553.7,358.856 1553.7,364.538 1527.48,364.538 1527.48,395.306 1555.34,395.306 "/>
    <polygon id="_49028393612345678910111213141516171819202122232425" class="fil4" points="1560.19,401.779 1581.05,361.319 1561.83,324.078 1569.94,324.078 1585.89,356.572 1602.81,324.078 1610.29,324.078 1590.42,361.427 1612.29,401.779 1604.12,401.779 1585.69,366.372 1568,401.779 "/>
    <path id="_4902839361234567891011121314151617181920212223242526" class="fil4" d="M1629.46 375.021l26.3622 0 -12.9827 -43.7858 -13.3795 43.7858zm-8.05512 26.7579l-7.10315 0 24.9047 -77.7012 7.85787 0 24.4028 77.7012 -7.64291 0 -6.38386 -20.6976 -29.8677 0 -6.16772 20.6976zm35.478 -98.5594c-0.844488,3.12874 -2.0315,5.48386 -3.57874,7.08425 -1.54606,1.60039 -3.41575,2.39173 -5.59134,2.39173 -0.917717,0 -1.58268,-0.0354331 -2.03268,-0.125197 -0.431102,-0.0909449 -0.826772,-0.233858 -1.18701,-0.395669l-3.25394 -1.43858c-0.522047,-0.198425 -1.0252,-0.360236 -1.51063,-0.467717 -0.467717,-0.108661 -0.935433,-0.161811 -1.38543,-0.161811 -1.16811,0 -2.15787,0.323622 -3.00236,0.95315 -0.845669,0.629528 -1.52835,1.60039 -2.06811,2.89488l-4.20827 0c0.845669,-3.12874 2.01496,-5.48504 3.52441,-7.08543 1.51063,-1.60039 3.3626,-2.39173 5.53937,-2.39173 0.916535,0 1.5815,0.0366142 2.0315,0.126378 0.431102,0.0897638 0.826772,0.233858 1.18701,0.395669l3.3626 1.43858c0.55748,0.233858 1.06063,0.413386 1.47402,0.50315 0.432283,0.0897638 0.863386,0.126378 1.31339,0.126378 1.16811,0 2.17559,-0.323622 3.00236,-0.95315 0.845669,-0.629528 1.52835,-1.60039 2.06811,-2.89488l4.31575 0z"/>
    <path id="_490283936123456789101112131415161718192021222324252627" class="fil4" d="M1678.95 362.956c0,-10.6465 0.467717,-18.1984 1.40315,-22.6394 0.916535,-4.44213 2.49921,-7.98425 4.71142,-10.6098 1.95945,-2.28425 4.42323,-3.99213 7.37244,-5.10709 2.94921,-1.13268 6.38386,-1.69016 10.3217,-1.69016 3.90236,0 7.35472,0.575197 10.3583,1.70787 3.00236,1.15157 5.44843,2.84173 7.33583,5.08937 2.24764,2.66102 3.84803,6.2752 4.76575,10.8071 0.935433,4.51299 1.40197,11.9941 1.40197,22.4421 0,10.4646 -0.466535,17.9634 -1.40197,22.4953 -0.917717,4.53189 -2.51811,8.10945 -4.76575,10.735 -1.8874,2.17559 -4.3878,3.88465 -7.47992,5.08937 -3.09331,1.20472 -6.49134,1.81535 -10.2142,1.81535 -3.72165,0 -7.12087,-0.61063 -10.1953,-1.81535 -3.07559,-1.20472 -5.5748,-2.91378 -7.49882,-5.08937 -2.24764,-2.62559 -3.83031,-6.20315 -4.74685,-10.735 -0.917717,-4.53189 -1.36772,-12.0307 -1.36772,-22.4953zm7.21181 -0.0188976c0,13.5224 1.20472,22.5862 3.63189,27.189 2.42717,4.60394 6.74291,6.90591 12.965,6.90591 6.22205,0 10.5201,-2.28425 12.9295,-6.85157 2.40945,-4.56732 3.61417,-13.6488 3.61417,-27.2433 0,-13.6476 -1.20472,-22.7646 -3.61417,-27.3319 -2.40945,-4.56732 -6.70748,-6.85157 -12.9295,-6.85157 -6.22205,0 -10.5378,2.30197 -12.965,6.92362 -2.42717,4.62047 -3.63189,13.702 -3.63189,27.2598z"/>
   </g>
  </g>
 </g>
</svg>
