<?xml version="1.0" encoding="UTF-8"?>
<!DOCTYPE svg PUBLIC "-//W3C//DTD SVG 1.1//EN" "http://www.w3.org/Graphics/SVG/1.1/DTD/svg11.dtd">
<!-- Creator: CorelDRAW -->
<svg xmlns="http://www.w3.org/2000/svg" xml:space="preserve" width="1920px" height="1280px" style="shape-rendering:geometricPrecision; text-rendering:geometricPrecision; image-rendering:optimizeQuality; fill-rule:evenodd; clip-rule:evenodd"
viewBox="0 0 1920 1280"
 xmlns:xlink="http://www.w3.org/1999/xlink">
 <defs>
  <style type="text/css">
   <![CDATA[
    .fil0 {fill:#EEEEEE}
    .fil1 {fill:black;fill-rule:nonzero}
    .fil2 {fill:#DBE134;fill-rule:nonzero}
    .fil3 {fill:black;fill-rule:nonzero}
   ]]>
  </style>
 </defs>
 <g id="Camada_x0020_1">
  <metadata id="CorelCorpID_0Corel-Layer"/>
  <g id="_157887080">
   <rect id="_42668136" class="fil0" width="1920" height="1280"/>
   <g>
    <g>
     <path id="_155985448" class="fil1" d="M316.081 813.002c-1.37008,1.34646 -3.02717,2.02913 -4.95827,2.02913l-15.0118 0c-3.92126,0 -6.51969,-1.27205 -7.83543,-3.79252l-75.626 -138.945c-0.32126,-0.478346 -0.584646,-0.699213 -0.745276,-0.699213 -0.157087,0 -0.239764,0.220866 -0.239764,0.699213l0 138.219c0,1.27205 -0.403937,2.34803 -1.21654,3.19606 -0.817323,0.883465 -1.8685,1.32283 -3.17953,1.32283l-12.7228 0c-1.31575,0 -2.38701,-0.165354 -3.19134,-0.491339 -0.812598,-0.297638 -1.21772,-1.07953 -1.21772,-2.34685l0 -166.401c0,-1.89213 0.687402,-3.46181 2.0811,-4.73386 1.38189,-1.24843 3.05433,-1.89213 5.00433,-1.89213l13.4646 0c3.42402,0 5.70827,0.344882 6.84331,1.04764 1.15394,0.738189 2.21693,1.95472 3.19134,3.68622l75.1382 138.207 0.494882 0.734646c0.161811,0 0.23622,-0.239764 0.23622,-0.734646l0 -138.45c0,-1.25197 0.403937,-2.3315 1.21654,-3.19961 0.812598,-0.863386 1.85669,-1.29094 3.14409,-1.29094l12.8327 0c1.28031,0 2.33976,0.427559 3.15236,1.29094 0.797244,0.86811 1.21654,1.94764 1.21654,3.19961l0 164.504c0,1.89213 -0.702756,3.51732 -2.07165,4.84134z"/>
     <path id="_155985568" class="fil1" d="M419.719 660.455c-0.812598,-2.84173 -2.37165,-4.25551 -4.65945,-4.25551 -2.44606,0 -4.08307,1.41378 -4.89567,4.25551l-22.2543 77.863 54.0791 0 -22.2697 -77.863zm65.5878 150.784c0,2.52047 -1.37717,3.79252 -4.16811,3.79252l-14.4461 0c-1.13504,0 -2.02205,-0.349606 -2.66929,-1.08307 -0.667323,-0.702756 -1.15512,-1.54724 -1.47638,-2.46614l-15.9224 -54.4394 -63.3815 0 -15.6638 54.4394c-0.32126,0.918898 -0.902362,1.76339 -1.71496,2.46614 -0.809055,0.733465 -1.70787,1.08307 -2.6811,1.08307l-14.4378 0c-2.7874,0 -4.16575,-1.27205 -4.16575,-3.79252 0,-0.812598 0.0744094,-1.34646 0.243307,-1.64409l45.2776 -154.098c0.969685,-3.62362 2.40236,-6.59055 4.28622,-8.87126 1.86496,-2.29252 3.94606,-4.11024 6.23386,-5.4378 2.28543,-1.34646 4.69134,-2.29606 7.21535,-2.86535 2.53583,-0.540945 4.94291,-0.812598 7.22362,-0.812598 2.2878,0 4.65945,0.216142 7.10551,0.711024 2.44961,0.459449 4.79646,1.37362 7.09724,2.73189 2.27598,1.32283 4.35709,3.13228 6.23386,5.42953 1.88386,2.30433 3.31654,5.24764 4.28976,8.87953l45.274 154.333c0.16063,0.297638 0.24685,0.831496 0.24685,1.64409z"/>
     <path id="_155985664" class="fil1" d="M637.446 813.002c-1.37717,1.34646 -3.02244,2.02913 -4.97362,2.02913l-14.9953 0c-3.91417,0 -6.52795,-1.27205 -7.83543,-3.79252l-75.6177 -138.945c-0.334252,-0.478346 -0.585827,-0.699213 -0.746457,-0.699213 -0.164173,0 -0.243307,0.220866 -0.243307,0.699213l0 138.219c0,1.27205 -0.408661,2.34803 -1.22126,3.19606 -0.824409,0.883465 -1.88031,1.32283 -3.17126,1.32283l-12.7429 0c-1.30276,0 -2.35039,-0.165354 -3.17953,-0.491339 -0.827953,-0.297638 -1.23189,-1.07953 -1.23189,-2.34685l0 -166.401c0,-1.89213 0.706299,-3.46181 2.07992,-4.73386 1.38189,-1.24843 3.05787,-1.89213 5.03622,-1.89213l13.4575 0c3.41457,0 5.70354,0.344882 6.85748,1.04764 1.13031,0.738189 2.19094,1.95472 3.16063,3.68622l75.1547 138.207 0.486614 0.734646c0.16063,0 0.258661,-0.239764 0.258661,-0.734646l0 -138.45c0,-1.25197 0.388583,-2.3315 1.18583,-3.19961 0.816142,-0.863386 1.87205,-1.29094 3.16417,-1.29094l12.8209 0c1.2874,0 2.34331,0.427559 3.14055,1.29094 0.812598,0.86811 1.22126,1.94764 1.22126,3.19961l0 164.504c0,1.89213 -0.695669,3.51732 -2.06575,4.84134z"/>
     <path id="_155985736" class="fil1" d="M783.413 711.816c0,-9.92717 -1.01575,-18.3638 -3.04606,-25.3228 -2.0374,-6.9248 -4.93346,-12.6295 -8.6752,-17.0339 -3.73701,-4.40787 -8.29488,-7.60748 -13.6606,-9.57402 -5.37047,-1.9748 -11.3846,-2.97992 -18.0661,-2.97992 -6.67323,0 -12.6909,1.00512 -18.0567,2.97992 -5.36693,1.96654 -9.97087,5.16614 -13.787,9.57402 -3.83504,4.40433 -6.75591,10.1091 -8.7815,17.0339 -2.02913,6.95906 -3.05787,15.3957 -3.05787,25.3228l0 30.5339c0,9.95906 1.02874,18.3945 3.05787,25.3429 2.02559,6.9248 4.91457,12.6283 8.6563,17.0445 3.74055,4.40433 8.3374,7.60039 13.7941,9.5752 5.44488,1.97362 11.5016,2.97165 18.1748,2.97165 6.6815,0 12.6957,-0.998031 18.0661,-2.97165 5.36575,-1.9748 9.92362,-5.17087 13.6606,-9.5752 3.74173,-4.41614 6.6378,-10.1197 8.6752,-17.0445 2.03031,-6.94843 3.04606,-15.3839 3.04606,-25.3429l0 -30.5339zm22.7575 30.5339c0,13.1232 -1.63346,24.3732 -4.8874,33.7323 -3.27402,9.41339 -7.86378,17.0953 -13.748,23.0941 -5.88071,5.98228 -12.8752,10.4185 -20.9622,13.2248 -8.07874,2.84646 -16.9583,4.27441 -26.6079,4.27441 -9.62835,0 -18.5091,-1.42795 -26.5949,-4.27441 -8.09882,-2.8063 -15.0862,-7.24252 -20.9705,-13.2248 -5.88071,-5.99882 -10.513,-13.6807 -13.865,-23.0941 -3.34134,-9.35906 -5.01732,-20.6091 -5.01732,-33.7323l0 -30.5339c0,-13.0949 1.67598,-24.3496 5.01732,-33.7004 3.35197,-9.41339 7.98425,-17.0965 13.865,-23.0976 5.88425,-5.98701 12.8717,-10.4232 20.9705,-13.2567 8.08583,-2.83819 16.9665,-4.25197 26.5949,-4.25197 9.64961,0 18.5291,1.41378 26.6079,4.25197 8.08701,2.83346 15.0815,7.26969 20.9622,13.2567 5.88425,6.00118 10.474,13.6843 13.748,23.0976 3.25394,9.35079 4.8874,20.6055 4.8874,33.7004l0 30.5339z"/>
     <path id="_155985808" class="fil2" d="M804.365 920.464c-1.21772,1.52717 -2.61024,2.28543 -4.19646,2.28543l-604.045 0c-1.57795,0 -2.97638,-0.758268 -4.19291,-2.28543 -1.20118,-1.51535 -1.79409,-3.28937 -1.79409,-5.30669l0 -57.235c0,-2.01024 0.592913,-3.7252 1.79409,-5.10354 1.21654,-1.39724 2.61496,-2.1 4.19291,-2.1l604.045 0c1.58622,0 2.97874,0.702756 4.19646,2.1 1.20118,1.37835 1.79764,3.09331 1.79764,5.10354l0 57.235c0,2.01732 -0.596457,3.79134 -1.79764,5.30669z"/>
     <path id="_155986048" class="fil1" d="M983.766 911.118l0 -25.5839c0,-1.14567 -0.0980315,-2.22874 -0.250394,-3.18307 -0.200787,-0.954331 -0.50315,-1.78228 -0.954331,-2.54764 -0.455906,-0.761811 -1.10669,-1.33465 -1.96299,-1.71614 -0.855118,-0.383858 -1.80945,-0.572835 -2.86181,-0.572835l-0.608268 0c-1.35827,0.188976 -2.81457,0.317717 -4.32165,0.381496 -1.55906,0.0625984 -3.21969,0.191339 -5.02913,0.380315 -1.95827,0.19252 -3.92126,0.385039 -5.9315,0.572835 -1.96299,0.19252 -4.02402,0.385039 -6.13583,0.572835 -2.11181,0.19252 -4.22362,0.318898 -6.38622,0.381496 -2.11181,0.0661417 -4.32283,0.19252 -6.58701,0.385039 -2.26181,0.187795 -4.42087,0.317717 -6.53268,0.317717 -2.11181,0.0625984 -4.17283,0.0625984 -6.13583,0.0625984 -3.16772,0 -6.23386,-0.317717 -9.20079,-0.890551 -2.96811,-0.636614 -5.73189,-1.59094 -8.29843,-2.92913 -2.71299,-1.14567 -5.22992,-2.67283 -7.49055,-4.64409 -2.3126,-1.91102 -4.42441,-4.32992 -6.38268,-7.19173 -1.96299,-2.86535 -3.67441,-6.1122 -5.17795,-9.80197 -1.51181,-3.62717 -2.81811,-7.76457 -3.8752,-12.3496 -1.05591,-4.5815 -1.86024,-9.67205 -2.46024,-15.2114 -0.55748,-5.59843 -0.856299,-11.7094 -0.856299,-18.3909l0 -56.1354c0,-6.68622 0.298819,-12.8563 0.856299,-18.5835 0.6,-5.66457 1.40433,-10.8236 2.46024,-15.4039 1.05709,-4.5815 2.36339,-8.7189 3.8752,-12.3461 1.50354,-3.69449 3.21496,-6.94016 5.17795,-9.80197 1.95827,-2.67402 4.07008,-4.96654 6.38268,-6.93661 2.26063,-1.9122 4.77756,-3.56457 7.49055,-4.90394 2.56654,-1.14567 5.33031,-2.03622 8.29843,-2.61024 2.96693,-0.569291 6.03307,-0.824409 9.20079,-0.824409 1.96299,0 4.02402,0 6.13583,0.0625984 2.11181,0 4.27087,0.126378 6.53268,0.318898 2.26417,0.19252 4.4752,0.317717 6.58701,0.380315 2.1626,0.0625984 4.27441,0.19252 6.38622,0.385039 2.11181,0.187795 4.17283,0.317717 6.13583,0.380315 2.01024,0.0625984 3.97323,0.188976 5.9315,0.381496 1.80945,0.191339 3.47008,0.380315 5.02913,0.572835 1.50709,0.19252 2.96339,0.380315 4.32165,0.572835l0.608268 0c1.05236,0 2.00669,-0.19252 2.86181,-0.572835 0.856299,-0.381496 1.50709,-0.954331 1.96299,-1.71969 0.451181,-0.761811 0.753543,-1.65236 0.954331,-2.61024 0.152362,-0.954331 0.250394,-1.97126 0.250394,-3.11693l0 -25.5874c0,-1.33465 -0.148819,-2.54291 -0.451181,-3.62717 -0.302362,-1.07953 -0.753543,-1.90748 -1.35354,-2.48031 -0.609449,-0.572835 -1.3122,-1.08307 -2.06575,-1.46457 -0.804331,-0.447638 -1.70787,-0.827953 -2.76732,-1.20945 -0.6,-0.191339 -1.40551,-0.380315 -2.46142,-0.635433 -1.00866,-0.19252 -2.21339,-0.510236 -3.56811,-0.890551 -3.0189,-0.766535 -6.6378,-1.52717 -10.8626,-2.29252 -2.11181,-0.188976 -4.37244,-0.444094 -6.73583,-0.761811 -2.41417,-0.317717 -4.87913,-0.572835 -7.44213,-0.765354 -2.56772,-0.19252 -5.28071,-0.381496 -8.04803,-0.510236 -2.81457,-0.188976 -5.67992,-0.255118 -8.54646,-0.255118 -4.52126,0 -9.20079,0.383858 -13.9748,1.14567 -4.82835,0.765354 -9.70394,1.9122 -14.6811,3.43937 -4.98189,1.7185 -9.80669,4.00748 -14.3799,6.93543 -4.62756,2.99173 -9.00472,6.6189 -13.076,11.0114 -4.22362,4.39252 -7.99606,9.54685 -11.4106,15.4665 -3.42402,5.91969 -6.54094,12.6012 -9.4063,20.048 -2.71654,7.63583 -4.72205,16.3583 -6.08031,26.0929 -1.36299,9.80315 -2.06457,20.6882 -2.06457,32.7165l0 56.1354c0,11.8394 0.701575,22.5957 2.06457,32.3303 1.35827,9.67677 3.36378,18.2657 6.08031,25.7126 2.86535,7.44685 5.98228,14.1319 9.4063,20.048 3.41457,5.91969 7.18701,11.0776 11.4106,15.4665 4.07126,4.39252 8.44843,8.08228 13.076,11.1402 4.57323,3.05433 9.39803,5.47323 14.3799,7.19173 4.97717,1.71614 9.85276,2.99173 14.6811,3.75354 4.77402,0.827953 9.45354,1.20827 13.9748,1.20827 2.86654,0 5.73189,-0.0625984 8.54646,-0.255118 2.76732,-0.125197 5.48031,-0.317717 8.04803,-0.505512 2.56299,-0.19252 5.02795,-0.447638 7.44213,-0.829134 2.36339,-0.317717 4.62402,-0.698031 6.73583,-1.08307 2.11299,-0.187795 4.0748,-0.444094 5.88071,-0.824409 1.81417,-0.32126 3.47008,-0.702756 4.98189,-1.08307 1.35472,-0.19252 2.55945,-0.447638 3.56811,-0.765354 1.05591,-0.318898 1.86142,-0.574016 2.46142,-0.761811 1.05945,-0.385039 1.96299,-0.827953 2.76732,-1.40197 0.753543,-0.510236 1.4563,-1.08307 2.06575,-1.65236 1.20472,-1.14567 1.80472,-3.05787 1.80472,-5.73071zm198.81 4.2l-47.3657 -111.506c6.33543,-3.05433 12.0165,-6.93661 16.9937,-11.7106 4.97717,-4.71024 9.25276,-10.2496 12.8717,-16.5496 3.77244,-6.3 6.58701,-13.6181 8.39764,-21.9555 1.86024,-8.33858 2.76732,-17.5665 2.76732,-27.6874l0 -3.43465c0,-16.4209 -2.41417,-30.1713 -7.24252,-41.2453 -4.52717,-11.074 -10.8626,-19.8555 -19.0039,-26.3492 -3.92598,-3.24567 -8.19685,-6.10748 -12.8209,-8.52638 -4.62874,-2.48386 -9.50433,-4.45512 -14.6303,-5.98228 -5.28425,-1.33819 -10.7138,-2.35512 -16.2957,-3.12047 -5.57835,-0.699213 -11.3126,-1.08307 -17.1933,-1.08307 -5.42953,0 -10.8626,0.0661417 -16.1894,0.255118 -5.38228,0.191339 -10.6583,0.510236 -15.789,0.890551 -5.13071,0.572835 -9.95433,1.14685 -14.4815,1.78228 -4.52598,0.572835 -8.74961,1.27559 -12.6709,2.0374 -1.50827,0.19252 -2.86654,0.572835 -4.02047,1.08307 -1.20827,0.574016 -2.1626,1.20945 -2.91969,1.97126 -0.9,0.957874 -1.55551,2.1 -2.01024,3.50079 -0.451181,1.33937 -0.702756,2.99173 -0.702756,4.89921l0 262.73c0,0.957874 0.153543,1.91102 0.451181,2.80276 0.302362,0.954331 0.753543,1.78228 1.36181,2.54409 0.601181,0.765354 1.25315,1.33819 2.00669,1.7185 0.706299,0.381496 1.45984,0.574016 2.21339,0.574016l30.1689 0c0.757087,0 1.51063,-0.19252 2.21339,-0.574016 0.753543,-0.380315 1.40906,-0.95315 2.01024,-1.7185 0.451181,-0.761811 0.804331,-1.58976 1.10669,-2.54409 0.251575,-0.891732 0.403937,-1.84488 0.403937,-2.80276l0 -103.106c1.65709,0.19252 3.61535,0.318898 5.82992,0.381496 2.1626,0.0661417 4.57677,0.19252 7.14094,0.385039 2.56299,0.187795 5.02795,0.380315 7.39134,0.505512 2.36339,0.19252 4.52244,0.255118 6.48543,0.255118l4.22362 0 43.4445 101.578c0.451181,0.957874 0.851575,1.91102 1.20472,2.80276 0.349606,0.954331 0.753543,1.78228 1.20472,2.54409 0.907087,1.52717 2.11181,2.29252 3.62008,2.29252l36.8055 0c2.41063,0 3.62362,-1.52717 3.62362,-4.5815 0,-0.572835 -0.0555118,-1.14685 -0.204331,-1.65709 -0.101575,-0.572835 -0.251575,-1.01575 -0.400394,-1.40079zm-48.2728 -189.409c0,8.40118 -0.902362,15.4665 -2.71181,21.2575 -1.81063,5.72717 -4.52598,10.2496 -8.14606,13.4917 -3.6189,3.24685 -8.29843,5.66457 -14.0303,7.19528 -5.72717,1.58976 -12.5185,2.35157 -20.361,2.35157 -0.604724,0 -1.35827,0 -2.26181,-0.0625984 -0.905906,0 -1.96299,-0.125197 -3.16772,-0.317717 -1.35827,0 -2.66575,0 -3.92126,-0.0625984 -1.25669,0 -2.56772,-0.129921 -3.92598,-0.318898 -1.35354,0 -2.71181,0 -4.01929,-0.0625984 -1.35827,0 -2.61496,-0.12874 -3.82323,-0.317717 -1.35827,0 -2.51339,0 -3.41575,0 -0.957874,0 -1.71142,0 -2.3126,0l0 -85.9228c0.75,-0.19252 1.60984,-0.317717 2.50866,-0.380315 0.957874,-0.0673228 2.01378,-0.19252 3.21969,-0.385039 1.05591,0 2.21339,0 3.42283,-0.0625984 1.20472,0 2.46142,-0.125197 3.81969,-0.317717 1.35354,0 2.66457,0 3.92126,-0.0625984 1.25669,0 2.56299,-0.129921 3.92126,-0.318898 1.20591,0 2.3126,0 3.3685,0 1.00866,0 1.9122,0 2.66575,0 7.54488,0 14.1791,0.761811 19.8591,2.35512 5.73189,1.52717 10.4575,3.94606 14.2299,7.19173 3.77244,3.24685 6.58701,7.44685 8.39646,12.6638 1.86142,5.15433 2.76378,11.3929 2.76378,18.6508l0 3.43465zm124.9 189.409l0 -268.838c0,-0.954331 -0.153543,-1.90866 -0.455906,-2.79921 -0.298819,-0.957874 -0.753543,-1.78228 -1.35827,-2.54764 -0.604724,-0.572835 -1.25669,-1.01693 -2.01024,-1.40197 -0.702756,-0.317717 -1.45984,-0.505512 -2.21339,-0.505512l-29.8618 0c-0.758268,0 -1.51181,0.187795 -2.21457,0.505512 -0.753543,0.385039 -1.40906,0.829134 -2.00906,1.40197 -0.604724,0.765354 -1.06063,1.58976 -1.35827,2.54764 -0.302362,0.890551 -0.455906,1.84488 -0.455906,2.79921l0 268.838c0,0.957874 0.153543,1.91102 0.455906,2.80276 0.297638,0.954331 0.753543,1.78228 1.35827,2.54409 0.6,0.765354 1.25551,1.33819 2.00906,1.7185 0.702756,0.381496 1.4563,0.574016 2.21457,0.574016l29.8618 0c0.753543,0 1.51063,-0.19252 2.21339,-0.574016 0.753543,-0.380315 1.40551,-0.95315 2.01024,-1.7185 0.604724,-0.761811 1.05945,-1.58976 1.35827,-2.54409 0.302362,-0.891732 0.455906,-1.84488 0.455906,-2.80276zm172.257 -2.67402l0 -24.4358c0,-0.957874 -0.148819,-1.9122 -0.451181,-2.80276 -0.302362,-0.954331 -0.753543,-1.78228 -1.35827,-2.54409 -0.604724,-0.765354 -1.25669,-1.33819 -2.01024,-1.71969 -0.706299,-0.380315 -1.45984,-0.572835 -2.21339,-0.572835l-55.5118 0c-4.37244,0 -8.14134,-0.572835 -11.2075,-1.71969 -3.11693,-1.14567 -5.53465,-2.86181 -7.19173,-5.15433 -1.66063,-2.29252 -2.91614,-5.60197 -3.82323,-9.98976 -0.851575,-4.32992 -1.30276,-9.67677 -1.30276,-15.978l0 -200.867c0,-0.954331 -0.153543,-1.90748 -0.455906,-2.79921 -0.298819,-0.95315 -0.753543,-1.78228 -1.35827,-2.54764 -0.604724,-0.76063 -1.25669,-1.33465 -2.01024,-1.71496 -0.702756,-0.385039 -1.45984,-0.572835 -2.21339,-0.572835l-29.8618 0c-0.758268,0 -1.51181,0.187795 -2.21457,0.572835 -0.753543,0.380315 -1.40906,0.954331 -2.00906,1.71496 -0.604724,0.765354 -1.06063,1.59449 -1.35827,2.54764 -0.302362,0.891732 -0.455906,1.84488 -0.455906,2.79921l0 200.867c0,8.2122 0.455906,15.5929 1.35827,22.148 0.907087,6.5563 2.26181,12.4134 4.0748,17.5677 1.80945,5.15433 3.92126,9.67205 6.38268,13.5543 2.41417,3.88228 5.22874,7.25906 8.40118,10.1209 3.16417,2.86535 6.58346,5.34567 10.2024,7.32047 3.67087,2.0374 7.59213,3.56457 11.8157,4.5189 4.22362,0.95315 8.59724,1.7185 13.174,2.2252 4.52598,0.572835 9.3,0.827953 14.2772,0.827953 1.96299,0 4.0748,0 6.33661,-0.0625984 2.26417,0 4.67953,-0.125197 7.24252,-0.317717 2.56299,-0.19252 5.0752,-0.380315 7.49409,-0.572835 2.46142,-0.19252 4.87087,-0.381496 7.28976,-0.572835 2.41417,-0.19252 4.77756,-0.444094 7.03465,-0.829134 2.26417,-0.317717 4.42795,-0.698031 6.53976,-1.07953 1.95827,-0.19252 3.7689,-0.447638 5.37756,-0.827953 1.5626,-0.317717 2.91732,-0.699213 3.97323,-1.08307 1.05591,-0.188976 2.00906,-0.506693 2.86535,-0.891732 0.856299,-0.380315 1.50709,-0.824409 1.96299,-1.39724 0.451181,-0.572835 0.753543,-1.33819 0.95315,-2.29252 0.153543,-0.954331 0.251575,-2.1 0.251575,-3.43937z"/>
     <polygon id="_155986024" class="fil2" points="1482.35,495.652 1265.98,620.583 1293.68,620.583 1482.35,511.664 1482.35,1047.21 1296.46,939.911 1268.75,939.911 1482.35,1063.2 1728.1,921.327 1728.1,637.545 "/>
    </g>
    <polygon id="_491490272" class="fil3" points="189.392,1056.35 189.392,986.666 194.568,986.666 194.568,1056.35 "/>
    <path id="_4914902721" class="fil3" d="M205.264 1056.35l0 -69.6815 8.35984 0 13.7622 50.0232c0.411024,1.48346 0.888189,3.49961 1.43268,6.03189 0.544488,2.5311 1.10197,5.32087 1.67244,8.38583 1.03465,-5.11299 1.76457,-8.61142 2.1626,-10.5307 0.398031,-1.93583 0.689764,-3.22559 0.875197,-3.88701l13.7622 -50.0232 8.35984 0 0 69.6815 -4.93583 0 0 -52.3465c0,-0.822047 0.0259843,-2.46732 0.092126,-4.93465 0.0673228,-2.46732 0.159449,-5.27362 0.252756,-8.38583l-17.8488 65.6669 -5.74606 0 -17.8087 -65.9563c0.119291,3.59528 0.225591,6.43346 0.291732,8.51457 0.0661417,2.07992 0.092126,3.77362 0.092126,5.09528l0 52.3465 -4.77638 0z"/>
    <path id="_49149027212" class="fil3" d="M271.349 1056.35l-5.17559 0 0 -69.6815 13.5366 0c5.38701,0 9.2622,1.45039 11.6114,4.33701 2.36102,2.90315 3.54213,7.66063 3.54213,14.2724 0,6.8374 -1.23425,11.6917 -3.71575,14.5453 -2.46732,2.87126 -6.72756,4.3063 -12.7654,4.3063l-7.03346 0 0 32.2205zm0 -64.8118l0 27.7701 7.4185 0c4.25906,0 7.19291,-1.01693 8.81102,-3.06496 1.61929,-2.04803 2.42835,-5.70827 2.42835,-10.9654 0,-5.09646 -0.822047,-8.65984 -2.45433,-10.6925 -1.63228,-2.0315 -4.55197,-3.04724 -8.78504,-3.04724l-7.4185 0z"/>
    <polygon id="_491490272123" class="fil3" points="327.482,1056.35 301.75,1056.35 301.75,986.666 327.482,986.666 327.482,992.1 306.926,992.1 306.926,1017.85 326.275,1017.85 326.275,1022.95 306.926,1022.95 306.926,1050.54 327.482,1050.54 "/>
    <path id="_4914902721234" class="fil3" d="M351.713 1022.76l-10.6169 0 0 33.5917 -5.01614 0 0 -69.6815 11.387 0c7.25787,0 12.0886,1.24134 14.4909,3.7252 2.40118,2.49921 3.59646,7.12677 3.59646,13.9004 0,4.74094 -0.650787,8.36929 -1.96535,10.8531 -1.31339,2.48386 -3.40984,4.12795 -6.31654,4.91811 2.90669,0.661417 4.91102,1.98425 6.0378,3.98386 1.12913,1.99961 1.69961,5.48268 1.69961,10.4339l0 4.43386c0,2.6126 0.0791339,5.37047 0.251575,8.27362 0.172441,2.88661 0.424016,5.95039 0.757087,9.15945l-5.56063 0c-0.359055,-4.85433 -0.583465,-10.0146 -0.637795,-15.4654 -0.0661417,-5.46614 -0.132283,-8.51457 -0.185433,-9.14291 -0.277559,-3.25866 -1.03465,-5.56417 -2.25591,-6.93543 -1.20709,-1.37008 -3.10512,-2.04803 -5.66575,-2.04803zm-10.6169 -4.91811l6.06496 0c4.92283,0 8.36102,-1.04764 10.298,-3.14409 1.95,-2.09646 2.91969,-5.78976 2.91969,-11.0787 0,-4.46811 -0.83622,-7.54724 -2.50866,-9.25748 -1.67244,-1.69252 -4.89685,-2.54764 -9.66142,-2.54764l-7.1126 0 0 26.028z"/>
    <path id="_49149027212345" class="fil3" d="M375.666 1056.35l0 -69.6815 8.35984 0 13.7622 50.0232c0.411024,1.48346 0.888189,3.49961 1.43268,6.03189 0.544488,2.5311 1.10197,5.32087 1.67244,8.38583 1.03465,-5.11299 1.76457,-8.61142 2.1626,-10.5307 0.398031,-1.93583 0.689764,-3.22559 0.875197,-3.88701l13.7622 -50.0232 8.35984 0 0 69.6815 -4.93583 0 0 -52.3465c0,-0.822047 0.0259843,-2.46732 0.092126,-4.93465 0.0673228,-2.46732 0.159449,-5.27362 0.252756,-8.38583l-17.8488 65.6669 -5.74606 0 -17.8087 -65.9563c0.119291,3.59528 0.225591,6.43346 0.291732,8.51457 0.0661417,2.07992 0.092126,3.77362 0.092126,5.09528l0 52.3465 -4.77638 0z"/>
    <polygon id="_491490272123456" class="fil3" points="462.307,1056.35 436.576,1056.35 436.576,986.666 462.307,986.666 462.307,992.1 441.751,992.1 441.751,1017.85 461.1,1017.85 461.1,1022.95 441.751,1022.95 441.751,1050.54 462.307,1050.54 "/>
    <path id="_4914902721234567" class="fil3" d="M477.741 1032.35l19.4539 0 -9.5811 -39.2669 -9.87283 39.2669zm-5.94567 23.9965l-5.24173 0 18.3791 -69.6815 5.79921 0 18.0083 69.6815 -5.63976 0 -4.71142 -18.561 -22.0417 0 -4.55197 18.561z"/>
    <path id="_49149027212345678" class="fil3" d="M515.268 1056.35l0 -69.6815 11.387 0c7.25787,0 12.0886,1.24134 14.4909,3.7252 2.40118,2.49921 3.59646,7.12677 3.59646,13.9004 0,4.70906 -0.650787,8.32087 -1.96535,10.8047 -1.31339,2.49921 -3.42402,4.14449 -6.31654,4.96654 3.26575,0.823228 5.66693,2.59606 7.19291,5.33858 1.52598,2.74134 2.29606,6.59528 2.29606,11.5783 0,4.0311 -0.398031,7.33701 -1.20709,9.93425 -0.796063,2.61142 -2.04449,4.67598 -3.72992,6.22441 -1.30039,1.16102 -2.91969,1.98307 -4.84252,2.48386 -1.93819,0.483071 -5.09646,0.725197 -9.51496,0.725197l-11.387 0zm5.01614 -38.5098l6.06496 0c4.8437,0 8.24055,-1.01575 10.2047,-3.06378 1.95118,-2.04803 2.93268,-5.57953 2.93268,-10.5957 0,-4.86969 -0.783071,-8.15906 -2.33504,-9.83622 -1.55315,-1.6937 -5.0563,-2.53228 -10.4965,-2.53228l-6.37087 0 0 26.028zm0 33.365l6.37087 0c5.81102,0 9.55394,-0.999213 11.2394,-2.99882 1.68543,-1.99961 2.53465,-5.80512 2.53465,-11.4177 0,-5.2252 -0.982677,-8.8689 -2.95866,-10.9335 -1.96417,-2.06457 -5.67992,-3.09685 -11.1213,-3.09685l-6.06496 0 0 28.4469z"/>
    <polygon id="_491490272123456789" class="fil3" points="554.774,1056.35 554.774,986.666 559.95,986.666 559.95,1056.35 "/>
    <polygon id="_49149027212345678910" class="fil3" points="571.774,1056.35 571.774,986.666 577.029,986.666 577.029,1050.91 596.112,1050.91 596.112,1056.35 "/>
    <polygon id="_4914902721234567891011" class="fil3" points="602.256,1056.35 602.256,986.666 607.431,986.666 607.431,1056.35 "/>
    <path id="_491490272123456789101112" class="fil3" d="M614.622 1056.35l0 -5.99882 19.2827 -42.7512c0.264567,-0.661417 1.63228,-3.54803 4.12795,-8.64331l3.34252 -6.85394 -24.7748 0 0 -5.43425 29.5535 0 0 6.90118 -25.9713 57.1524 25.9713 0 0 5.62795 -31.5319 0z"/>
    <path id="_49149027212345678910111213" class="fil3" d="M659.902 1032.35l19.4539 0 -9.5811 -39.2669 -9.87283 39.2669zm-5.94567 23.9965l-5.24173 0 18.3791 -69.6815 5.79921 0 18.0083 69.6815 -5.63976 0 -4.71142 -18.561 -22.0417 0 -4.55197 18.561z"/>
    <path id="_4914902721234567891011121314" class="fil3" d="M697.429 1056.35l0 -69.6815 8.05512 0 24.2055 65.7142c-0.33189,-2.51575 -0.584646,-5.06339 -0.729921,-7.61102 -0.159449,-2.54882 -0.239764,-5.11299 -0.239764,-7.69252l0 -50.4106 5.01614 0 0 69.6815 -7.73622 0 -24.2575 -65.1992c0.265748,2.01614 0.464173,4.19291 0.583465,6.49961 0.133465,2.32205 0.199606,4.78937 0.199606,7.43386l0 51.2657 -5.09646 0z"/>
    <polygon id="_491490272123456789101112131415" class="fil3" points="753.575,1056.35 753.575,992.1 739.615,992.1 739.615,986.666 772.512,986.666 772.512,992.1 758.512,992.1 758.512,1056.35 "/>
    <polygon id="_49149027212345678910111213141516" class="fil3" points="804.109,1056.35 778.377,1056.35 778.377,986.666 804.109,986.666 804.109,992.1 783.553,992.1 783.553,1017.85 802.902,1017.85 802.902,1022.95 783.553,1022.95 783.553,1050.54 804.109,1050.54 "/>
   </g>
   <polygon id="_157886384" class="fil3" points="339.873,401.779 339.873,324.057 346.887,324.057 346.887,401.779 "/>
   <path id="_1578863841" class="fil3" d="M361.385 401.779l0 -77.7224 11.3315 0 18.6531 55.7965c0.55748,1.65472 1.20472,3.90236 1.94291,6.72638 0.737008,2.82402 1.49291,5.93622 2.26654,9.35433 1.40315,-5.70236 2.39173,-9.60591 2.9315,-11.7461 0.539764,-2.15906 0.935433,-3.59764 1.18701,-4.33465l18.6531 -55.7965 11.3315 0 0 77.7224 -6.69094 0 0 -58.3866c0,-0.917717 0.0354331,-2.75197 0.126378,-5.50394 0.0897638,-2.75197 0.214961,-5.88189 0.341339,-9.35315l-24.1925 73.2437 -7.78937 0 -24.1382 -73.5673c0.161811,4.01102 0.305906,7.17638 0.395669,9.49724 0.0897638,2.31969 0.126378,4.20827 0.126378,5.68346l0 58.3866 -6.47598 0z"/>
   <path id="_15788638412" class="fil3" d="M450.963 401.779l-7.01575 0 0 -77.7224 18.3472 0c7.30276,0 12.5551,1.61811 15.7394,4.8378 3.20079,3.23858 4.80236,8.54409 4.80236,15.9189 0,7.62638 -1.67362,13.0406 -5.03622,16.2248 -3.34606,3.20197 -9.12047,4.80236 -17.3043,4.80236l-9.53268 0 0 35.9386zm0 -72.2906l0 30.9744 10.0547 0c5.77323,0 9.74882,-1.13386 11.9433,-3.41811 2.19449,-2.28425 3.29173,-6.36732 3.29173,-12.2315 0,-5.68346 -1.11496,-9.65906 -3.32835,-11.9256 -2.2122,-2.26654 -6.1689,-3.39921 -11.9067,-3.39921l-10.0547 0z"/>
   <polygon id="_157886384123" class="fil3" points="527.048,401.779 492.17,401.779 492.17,324.057 527.048,324.057 527.048,330.118 499.186,330.118 499.186,358.844 525.411,358.844 525.411,364.527 499.186,364.527 499.186,395.303 527.048,395.303 "/>
   <path id="_1578863841234" class="fil3" d="M559.892 364.312l-14.3894 0 0 37.4669 -6.79961 0 0 -77.7224 15.4335 0c9.83858,0 16.3866,1.38425 19.6417,4.15512 3.2563,2.7874 4.87441,7.95 4.87441,15.5043 0,5.28898 -0.881102,9.33543 -2.6622,12.1051 -1.77992,2.77087 -4.62283,4.60512 -8.56181,5.48622 3.93898,0.738189 6.65551,2.21339 8.18504,4.44331 1.52835,2.22992 2.30197,6.11575 2.30197,11.6374l0 4.94646c0,2.91378 0.10748,5.99055 0.341339,9.22795 0.233858,3.21969 0.576378,6.63661 1.0252,10.2165l-7.53661 0c-0.485433,-5.41417 -0.791339,-11.1697 -0.863386,-17.25 -0.0897638,-6.09685 -0.179528,-9.49724 -0.251575,-10.1988 -0.377953,-3.63307 -1.40315,-6.20551 -3.05787,-7.73386 -1.63701,-1.52953 -4.20945,-2.28425 -7.68071,-2.28425zm-14.3894 -5.48622l8.22047 0c6.67323,0 11.3315,-1.16929 13.9571,-3.50787 2.64449,-2.33858 3.95787,-6.45709 3.95787,-12.3567 0,-4.98307 -1.13386,-8.4189 -3.39921,-10.3252 -2.26654,-1.88858 -6.6378,-2.84173 -13.0949,-2.84173l-9.64134 0 0 29.0315z"/>
   <path id="_15788638412345" class="fil3" d="M592.359 401.779l0 -77.7224 11.3315 0 18.6531 55.7965c0.55748,1.65472 1.20472,3.90236 1.94291,6.72638 0.737008,2.82402 1.49291,5.93622 2.26654,9.35433 1.40315,-5.70236 2.39173,-9.60591 2.9315,-11.7461 0.539764,-2.15906 0.935433,-3.59764 1.18701,-4.33465l18.6531 -55.7965 11.3315 0 0 77.7224 -6.69094 0 0 -58.3866c0,-0.917717 0.0354331,-2.75197 0.126378,-5.50394 0.0897638,-2.75197 0.214961,-5.88189 0.341339,-9.35315l-24.1925 73.2437 -7.78937 0 -24.1382 -73.5673c0.161811,4.01102 0.305906,7.17638 0.395669,9.49724 0.0897638,2.31969 0.126378,4.20827 0.126378,5.68346l0 58.3866 -6.47598 0z"/>
   <polygon id="_157886384123456" class="fil3" points="709.799,401.779 674.921,401.779 674.921,324.057 709.799,324.057 709.799,330.118 681.937,330.118 681.937,358.844 708.162,358.844 708.162,364.527 681.937,364.527 681.937,395.303 709.799,395.303 "/>
   <path id="_1578863841234567" class="fil3" d="M730.717 375.014l26.3693 0 -12.9862 -43.7988 -13.3831 43.7988zm-8.05748 26.765l-7.10551 0 24.913 -77.7224 7.86024 0 24.4087 77.7224 -7.64528 0 -6.38504 -20.7035 -29.8772 0 -6.1689 20.7035z"/>
   <path id="_15788638412345678" class="fil3" d="M781.585 401.779l0 -77.7224 15.4335 0c9.83858,0 16.3866,1.38425 19.6417,4.15512 3.2563,2.7874 4.87441,7.95 4.87441,15.5043 0,5.25236 -0.881102,9.2811 -2.6622,12.052 -1.77992,2.7874 -4.64055,4.62283 -8.56181,5.53937 4.42559,0.917717 7.68071,2.89606 9.74882,5.95394 2.06929,3.05787 3.1122,7.35709 3.1122,12.9154 0,4.49646 -0.539764,8.18386 -1.63701,11.0799 -1.07835,2.91378 -2.76969,5.21575 -5.05394,6.94252 -1.76339,1.29567 -3.95787,2.21339 -6.56575,2.77087 -2.62559,0.539764 -6.90709,0.809055 -12.8965,0.809055l-15.4335 0zm6.79961 -42.9531l8.22047 0c6.56457,0 11.1697,-1.13386 13.8319,-3.41811 2.64449,-2.28425 3.97559,-6.22323 3.97559,-11.8169 0,-5.43307 -1.06181,-9.10157 -3.16654,-10.9724 -2.10472,-1.88858 -6.85276,-2.82402 -14.2276,-2.82402l-8.63386 0 0 29.0315zm0 37.2154l8.63386 0c7.87795,0 12.9508,-1.11496 15.235,-3.34606 2.28425,-2.22992 3.43583,-6.4748 3.43583,-12.7346 0,-5.82756 -1.3311,-9.89291 -4.01102,-12.1949 -2.6622,-2.30315 -7.69843,-3.45354 -15.0732,-3.45354l-8.22047 0 0 31.7291z"/>
   <polygon id="_157886384123456789" class="fil3" points="835.134,401.779 835.134,324.057 842.148,324.057 842.148,401.779 "/>
   <polygon id="_15788638412345678910" class="fil3" points="858.175,401.779 858.175,324.057 865.298,324.057 865.298,395.718 891.164,395.718 891.164,401.779 "/>
   <polygon id="_1578863841234567891011" class="fil3" points="899.492,401.779 899.492,324.057 906.507,324.057 906.507,401.779 "/>
   <path id="_157886384123456789101112" class="fil3" d="M916.257 401.779l0 -6.69094 26.1343 -47.6846c0.360236,-0.737008 2.21339,-3.95669 5.59488,-9.64134l4.53307 -7.64409 -33.5823 0 0 -6.06142 40.0571 0 0 7.69843 -35.2004 63.7465 35.2004 0 0 6.27756 -42.737 0z"/>
   <path id="_15788638412345678910111213" class="fil3" d="M977.628 375.014l26.3693 0 -12.9862 -43.7988 -13.3831 43.7988zm-8.05748 26.765l-7.10551 0 24.913 -77.7224 7.86024 0 24.4087 77.7224 -7.64528 0 -6.38504 -20.7035 -29.8772 0 -6.1689 20.7035z"/>
   <path id="_1578863841234567891011121314" class="fil3" d="M1063.07 379.115l7.42795 0 0 0.323622c0,7.5189 -1.86969,13.3287 -5.61142,17.4661 -3.74173,4.1185 -9.02953,6.1878 -15.8823,6.1878 -3.86811,0 -7.30394,-0.773622 -10.2898,-2.32087 -2.98583,-1.54724 -5.43189,-3.79488 -7.3748,-6.74528 -1.54606,-2.3563 -2.62559,-5.32441 -3.25512,-8.93976 -0.629528,-3.59764 -0.95315,-9.91063 -0.95315,-18.9402l0 -3.00354c0,-7.78819 0.179528,-13.5272 0.522047,-17.178 0.359055,-3.65197 0.934252,-6.81732 1.74449,-9.47953 1.29449,-4.2626 3.72283,-7.59094 7.26614,-9.98268 3.5622,-2.41063 7.8248,-3.61535 12.8067,-3.61535 7.17756,0 12.3579,1.70906 15.5776,5.1437 3.21969,3.41811 4.82008,8.93976 4.82008,16.5661l0 0.414567 -7.21299 0c-0.0708661,-5.75669 -1.13268,-9.94724 -3.16535,-12.5374 -2.03268,-2.60787 -5.30551,-3.90354 -9.80315,-3.90354 -5.62913,0 -9.56929,2.17677 -11.8358,6.52913 -2.26535,4.35354 -3.39921,12.3756 -3.39921,24.0319 0,6.25866 0.108661,11.5299 0.341339,15.8102 0.233858,4.29921 0.594094,7.73504 1.07953,10.3252 0.701575,3.70512 2.2122,6.56457 4.53307,8.59724 2.32087,2.03268 5.21575,3.05787 8.70591,3.05787 4.35236,0 7.77047,-1.42087 10.2343,-4.2626 2.48268,-2.84173 3.72402,-6.78189 3.72402,-11.8004l0 -1.74449zm-27.4488 44.6988l0 -3.99331c2.69764,0.629528 5.09055,1.09724 7.15866,1.38543 2.08701,0.304724 3.86811,0.448819 5.37874,0.448819 2.24764,0 3.93898,-0.395669 5.09055,-1.18701 1.13268,-0.791339 1.70787,-1.97835 1.70787,-3.56102 0,-1.9252 -0.61063,-3.32835 -1.81654,-4.20945 -1.22244,-0.881102 -3.12992,-1.31339 -5.72008,-1.31339 -0.664961,0 -1.16929,0 -1.51063,0.0188976 -0.323622,0.0177165 -0.647244,0.0531496 -0.970866,0.0897638l0 -9.71339 3.32717 0 0 5.86417 0.738189 0c3.86693,0 6.81614,0.773622 8.84882,2.31969 2.03268,1.54724 3.05787,3.79606 3.05787,6.74528 0,2.98583 -1.04291,5.27008 -3.11102,6.87165 -2.06929,1.60039 -5.0374,2.39173 -8.90433,2.39173 -1.88858,0 -3.90354,-0.179528 -6.02598,-0.520866 -2.12244,-0.360236 -4.55079,-0.9 -7.24843,-1.63701z"/>
   <path id="_157886384123456789101112131415" class="fil3" d="M1091.94 375.014l26.3693 0 -12.9862 -43.7988 -13.3831 43.7988zm-8.05748 26.765l-7.10551 0 24.913 -77.7224 7.86024 0 24.4087 77.7224 -7.64528 0 -6.38504 -20.7035 -29.8772 0 -6.1689 20.7035zm35.4886 -98.5878c-0.845669,3.12992 -2.03268,5.48622 -3.57992,7.08661 -1.54724,1.60157 -3.41693,2.39291 -5.5937,2.39291 -0.917717,0 -1.58268,-0.0366142 -2.03268,-0.126378 -0.431102,-0.0897638 -0.827953,-0.233858 -1.18701,-0.395669l-3.2563 -1.43858c-0.520866,-0.198425 -1.0252,-0.360236 -1.51063,-0.467717 -0.467717,-0.108661 -0.935433,-0.161811 -1.38425,-0.161811 -1.16929,0 -2.15906,0.323622 -3.00472,0.95315 -0.845669,0.629528 -1.52835,1.60039 -2.06811,2.89606l-4.20945 0c0.845669,-3.12992 2.01496,-5.48622 3.52559,-7.0878 1.51063,-1.60039 3.36378,-2.39173 5.54055,-2.39173 0.916535,0 1.58268,0.0354331 2.03268,0.126378 0.431102,0.0897638 0.826772,0.233858 1.18701,0.395669l3.36378 1.43858c0.55748,0.233858 1.06063,0.413386 1.47402,0.50315 0.432283,0.0909449 0.863386,0.126378 1.31339,0.126378 1.16929,0 2.17677,-0.323622 3.00354,-0.95315 0.845669,-0.629528 1.52953,-1.60157 2.06929,-2.89606l4.31693 0z"/>
   <path id="_15788638412345678910111213141516" class="fil3" d="M1141.44 362.944c0,-10.6476 0.467717,-18.2031 1.40315,-22.6453 0.916535,-4.44331 2.50039,-7.98661 4.7126,-10.6134 1.96063,-2.28425 4.42441,-3.99213 7.3748,-5.10827 2.94921,-1.13268 6.38504,-1.69016 10.324,-1.69016 3.90354,0 7.35709,0.575197 10.3606,1.70906 3.00472,1.15039 5.45079,2.84173 7.33937,5.08937 2.24764,2.6622 3.84921,6.27756 4.76693,10.8106 0.934252,4.51535 1.40197,11.9976 1.40197,22.448 0,10.4693 -0.467717,17.9693 -1.40197,22.5024 -0.917717,4.53307 -2.51929,8.11181 -4.76693,10.7386 -1.88858,2.17559 -4.38898,3.88465 -7.48346,5.09055 -3.09331,1.20472 -6.49252,1.81654 -10.2165,1.81654 -3.72283,0 -7.12205,-0.611811 -10.1988,-1.81654 -3.07559,-1.20591 -5.57598,-2.91496 -7.5,-5.09055 -2.24882,-2.62677 -3.8315,-6.20551 -4.74921,-10.7386 -0.916535,-4.53307 -1.36654,-12.0331 -1.36654,-22.5024zm7.21299 -0.0177165c0,13.526 1.20472,22.5921 3.63307,27.1961 2.42835,4.60512 6.74528,6.90709 12.9685,6.90709 6.22441,0 10.5224,-2.28425 12.9331,-6.85276 2.41063,-4.5685 3.61535,-13.6524 3.61535,-27.2504 0,-13.6524 -1.20472,-22.7717 -3.61535,-27.3402 -2.41063,-4.56969 -6.70866,-6.85394 -12.9331,-6.85394 -6.22323,0 -10.5402,2.30315 -12.9685,6.92598 -2.42835,4.62165 -3.63307,13.7055 -3.63307,27.2681z"/>
   <path id="_1578863841234567891011121314151617" class="fil3" d="M1236.59 375.014l26.3693 0 -12.9862 -43.7988 -13.3831 43.7988zm-8.05748 26.765l-7.10551 0 24.913 -77.7224 7.86024 0 24.4087 77.7224 -7.64528 0 -6.38504 -20.7035 -29.8772 0 -6.1689 20.7035z"/>
   <path id="_157886384123456789101112131415161718" class="fil3" d="M1322.03 379.115l7.42795 0 0 0.323622c0,7.5189 -1.86969,13.3287 -5.61142,17.4661 -3.74173,4.1185 -9.02953,6.1878 -15.8823,6.1878 -3.86811,0 -7.30394,-0.773622 -10.2898,-2.32087 -2.98583,-1.54724 -5.43189,-3.79488 -7.3748,-6.74528 -1.54606,-2.3563 -2.62559,-5.32441 -3.25512,-8.93976 -0.629528,-3.59764 -0.95315,-9.91063 -0.95315,-18.9402l0 -3.00354c0,-7.78819 0.179528,-13.5272 0.522047,-17.178 0.359055,-3.65197 0.934252,-6.81732 1.74449,-9.47953 1.29449,-4.2626 3.72283,-7.59094 7.26614,-9.98268 3.5622,-2.41063 7.8248,-3.61535 12.8067,-3.61535 7.17756,0 12.3579,1.70906 15.5776,5.1437 3.21969,3.41811 4.82008,8.93976 4.82008,16.5661l0 0.414567 -7.21299 0c-0.0708661,-5.75669 -1.13268,-9.94724 -3.16535,-12.5374 -2.03268,-2.60787 -5.30551,-3.90354 -9.80315,-3.90354 -5.62913,0 -9.56929,2.17677 -11.8358,6.52913 -2.26535,4.35354 -3.39921,12.3756 -3.39921,24.0319 0,6.25866 0.108661,11.5299 0.341339,15.8102 0.233858,4.29921 0.594094,7.73504 1.07953,10.3252 0.701575,3.70512 2.2122,6.56457 4.53307,8.59724 2.32087,2.03268 5.21575,3.05787 8.70591,3.05787 4.35236,0 7.77047,-1.42087 10.2343,-4.2626 2.48268,-2.84173 3.72402,-6.78189 3.72402,-11.8004l0 -1.74449z"/>
   <path id="_15788638412345678910111213141516171819" class="fil3" d="M1362.82 364.312l-14.3894 0 0 37.4669 -6.79961 0 0 -77.7224 15.4335 0c9.83858,0 16.3866,1.38425 19.6417,4.15512 3.2563,2.7874 4.87441,7.95 4.87441,15.5043 0,5.28898 -0.881102,9.33543 -2.6622,12.1051 -1.77992,2.77087 -4.62283,4.60512 -8.56181,5.48622 3.93898,0.738189 6.65551,2.21339 8.18504,4.44331 1.52835,2.22992 2.30197,6.11575 2.30197,11.6374l0 4.94646c0,2.91378 0.10748,5.99055 0.341339,9.22795 0.233858,3.21969 0.576378,6.63661 1.0252,10.2165l-7.53661 0c-0.485433,-5.41417 -0.791339,-11.1697 -0.863386,-17.25 -0.0897638,-6.09685 -0.179528,-9.49724 -0.251575,-10.1988 -0.377953,-3.63307 -1.40315,-6.20551 -3.05787,-7.73386 -1.63701,-1.52953 -4.20945,-2.28425 -7.68071,-2.28425zm-14.3894 -5.48622l8.22047 0c6.67323,0 11.3315,-1.16929 13.9571,-3.50787 2.64449,-2.33858 3.95787,-6.45709 3.95787,-12.3567 0,-4.98307 -1.13386,-8.4189 -3.39921,-10.3252 -2.26654,-1.88858 -6.6378,-2.84173 -13.0949,-2.84173l-9.64134 0 0 29.0315z"/>
   <path id="_1578863841234567891011121314151617181920" class="fil3" d="M1395.81 401.779l0 -77.7224 7.01457 0 0 77.7224 -7.01457 0zm1.85197 -84.7913l-4.85669 0 11.0268 -18.3472 8.00433 0 -14.1744 18.3472z"/>
   <polygon id="_157886384123456789101112131415161718192021" class="fil3" points="1418.85,401.779 1418.85,324.057 1425.98,324.057 1425.98,395.718 1451.84,395.718 1451.84,401.779 "/>
   <polygon id="_15788638412345678910111213141516171819202122" class="fil3" points="1460.17,401.779 1460.17,324.057 1467.19,324.057 1467.19,401.779 "/>
   <path id="_1578863841234567891011121314151617181920212223" class="fil3" d="M1516.67 379.115l7.42795 0 0 0.323622c0,7.5189 -1.86969,13.3287 -5.61142,17.4661 -3.74173,4.1185 -9.02953,6.1878 -15.8823,6.1878 -3.86811,0 -7.30394,-0.773622 -10.2898,-2.32087 -2.98583,-1.54724 -5.43189,-3.79488 -7.3748,-6.74528 -1.54606,-2.3563 -2.62559,-5.32441 -3.25512,-8.93976 -0.629528,-3.59764 -0.95315,-9.91063 -0.95315,-18.9402l0 -3.00354c0,-7.78819 0.179528,-13.5272 0.522047,-17.178 0.359055,-3.65197 0.934252,-6.81732 1.74449,-9.47953 1.29449,-4.2626 3.72283,-7.59094 7.26614,-9.98268 3.5622,-2.41063 7.8248,-3.61535 12.8067,-3.61535 7.17756,0 12.3579,1.70906 15.5776,5.1437 3.21969,3.41811 4.82008,8.93976 4.82008,16.5661l0 0.414567 -7.21299 0c-0.0708661,-5.75669 -1.13268,-9.94724 -3.16535,-12.5374 -2.03268,-2.60787 -5.30551,-3.90354 -9.80315,-3.90354 -5.62913,0 -9.56929,2.17677 -11.8358,6.52913 -2.26535,4.35354 -3.39921,12.3756 -3.39921,24.0319 0,6.25866 0.108661,11.5299 0.341339,15.8102 0.233858,4.29921 0.594094,7.73504 1.07953,10.3252 0.701575,3.70512 2.2122,6.56457 4.53307,8.59724 2.32087,2.03268 5.21575,3.05787 8.70591,3.05787 4.35236,0 7.77047,-1.42087 10.2343,-4.2626 2.48268,-2.84173 3.72402,-6.78189 3.72402,-11.8004l0 -1.74449z"/>
   <path id="_157886384123456789101112131415161718192021222324" class="fil3" d="M1545.54 375.014l26.3693 0 -12.9862 -43.7988 -13.3831 43.7988zm-8.05748 26.765l-7.10551 0 24.913 -77.7224 7.86024 0 24.4087 77.7224 -7.64528 0 -6.38504 -20.7035 -29.8772 0 -6.1689 20.7035z"/>
  </g>
 </g>
</svg>
