<?xml version="1.0" encoding="UTF-8"?>
<!DOCTYPE svg PUBLIC "-//W3C//DTD SVG 1.1//EN" "http://www.w3.org/Graphics/SVG/1.1/DTD/svg11.dtd">
<!-- Creator: CorelDRAW -->
<svg xmlns="http://www.w3.org/2000/svg" xml:space="preserve" width="1920px" height="1280px" style="shape-rendering:geometricPrecision; text-rendering:geometricPrecision; image-rendering:optimizeQuality; fill-rule:evenodd; clip-rule:evenodd"
viewBox="0 0 1920 1280"
 xmlns:xlink="http://www.w3.org/1999/xlink">
 <defs>
  <style type="text/css">
   <![CDATA[
    .fil0 {fill:#EEEEEE}
    .fil2 {fill:black;fill-rule:nonzero}
    .fil4 {fill:#FEFEFE;fill-rule:nonzero}
    .fil1 {fill:black;fill-rule:nonzero}
    .fil3 {fill:#0013A0;fill-rule:nonzero}
   ]]>
  </style>
 </defs>
 <g id="Camada_x0020_1">
  <metadata id="CorelCorpID_0Corel-Layer"/>
  <g id="_491616656">
   <rect id="_42667608" class="fil0" x="4.05993e-005" y="2.70662e-005" width="1920" height="1280"/>
   <path id="_490509896" class="fil1" d="M201.719 946.476l-8.98819 0 0 25.0299 -4.24606 0 0 -51.9213 9.64016 0c6.14528,0 10.2343,0.924803 12.2681,2.77559 2.03386,1.8626 3.04488,5.31024 3.04488,10.3571 0,3.53268 -0.550394,6.2374 -1.66299,8.08701 -1.11142,1.85079 -2.8878,3.07677 -5.34803,3.66496 2.46024,0.49252 4.15748,1.47874 5.11181,2.96811 0.955512,1.49055 1.43858,4.08543 1.43858,7.7752l0 3.30354c0,1.94646 0.0673228,4.00157 0.21378,6.16417 0.146457,2.15079 0.359055,4.43386 0.640157,6.82559l-4.70787 0c-0.303543,-3.61654 -0.493701,-7.4622 -0.539764,-11.524 -0.0555118,-4.07244 -0.111024,-6.3437 -0.157087,-6.8126 -0.23622,-2.42717 -0.876378,-4.14567 -1.90984,-5.16732 -1.02165,-1.02047 -2.62913,-1.52598 -4.79764,-1.52598zm-8.98819 -3.66496l5.13543 0c4.16811,0 7.07717,-0.780709 8.71772,-2.34331 1.65236,-1.56142 2.47205,-4.31339 2.47205,-8.25472 0,-3.32835 -0.70748,-5.62323 -2.12362,-6.89764 -1.41496,-1.26142 -4.14567,-1.89803 -8.17913,-1.89803l-6.02244 0 0 19.3937z"/>
   <polygon id="_4905098961" class="fil1" points="244.043,971.506 222.259,971.506 222.259,919.585 244.043,919.585 244.043,923.634 226.639,923.634 226.639,942.823 243.021,942.823 243.021,946.62 226.639,946.62 226.639,967.18 244.043,967.18 "/>
   <path id="_49050989612" class="fil1" d="M260.447 971.506l-13.3713 -51.9213 4.74213 0 8.42717 33.7524c0.312992,1.20236 0.719291,3.00472 1.23543,5.43189 0.517323,2.41535 1.09016,5.23937 1.72913,8.48386 0.551575,-2.67992 1.60748,-7.06654 3.19252,-13.1705l0.223228 -0.876378 8.69764 -33.6213 4.24606 0 -13.6618 51.9213 -5.46024 0z"/>
   <polygon id="_490509896123" class="fil1" points="306.356,971.506 284.571,971.506 284.571,919.585 306.356,919.585 306.356,923.634 288.952,923.634 288.952,942.823 305.334,942.823 305.334,946.62 288.952,946.62 288.952,967.18 306.356,967.18 "/>
   <path id="_4905098961234" class="fil1" d="M312.782 956.858l4.50591 0.0366142c-0.0224409,0.167717 -0.0330709,0.372047 -0.046063,0.612992 -0.0106299,0.251575 -0.0212598,0.6 -0.0212598,1.08071 0,3.2563 0.729921,5.70827 2.20157,7.35472 1.47283,1.64528 3.66378,2.4626 6.5622,2.4626 2.67402,0 4.80827,-0.840945 6.41575,-2.53465 1.6063,-1.69488 2.40354,-3.94134 2.40354,-6.75354 0,-2.0185 -0.516142,-3.79724 -1.56142,-5.32323 -1.04409,-1.52598 -3.6626,-3.71339 -7.85433,-6.58465 -0.369685,-0.252756 -0.93189,-0.636614 -1.67362,-1.15394 -3.2126,-2.1626 -5.48268,-3.86929 -6.81969,-5.10709 -1.20236,-1.15276 -2.12362,-2.55945 -2.76378,-4.22953 -0.641339,-1.65827 -0.954331,-3.50787 -0.954331,-5.52756 0,-3.82087 1.19055,-6.86102 3.57283,-9.09567 2.3811,-2.24764 5.60551,-3.36496 9.69567,-3.36496 4.05591,0 7.1563,1.13031 9.31417,3.40039 2.14606,2.25945 3.22441,5.52756 3.22441,9.80551l0 1.05709 -4.44921 0 0 -0.49252c0,-3.31654 -0.685039,-5.76732 -2.0563,-7.37717 -1.37008,-1.61102 -3.47244,-2.41535 -6.30354,-2.41535 -2.58307,0 -4.66299,0.745276 -6.2126,2.23465 -1.5626,1.49055 -2.3374,3.48425 -2.3374,5.97165 0,2.15079 0.640157,4.09843 1.91102,5.80394 1.2685,1.7185 4.38189,4.22953 9.33543,7.53425 4.34882,2.87244 7.16929,5.2748 8.46142,7.22126 1.29213,1.94764 1.94291,4.28976 1.94291,7.04173 0,4.38661 -1.17874,7.79882 -3.55039,10.226 -2.37047,2.42717 -5.70709,3.64134 -10.011,3.64134 -4.28031,0 -7.51654,-1.16575 -9.70748,-3.48543 -2.19094,-2.3185 -3.29173,-5.7437 -3.29173,-10.2496 0,-0.49252 0,-0.864567 0.011811,-1.11732 0.0106299,-0.264567 0.0330709,-0.480709 0.0555118,-0.673228z"/>
   <polygon id="_49050989612345" class="fil1" points="355.05,971.506 355.05,923.634 343.23,923.634 343.23,919.585 371.083,919.585 371.083,923.634 359.229,923.634 359.229,971.506 "/>
   <polygon id="_490509896123456" class="fil1" points="376.119,971.506 376.119,919.585 380.499,919.585 380.499,971.506 "/>
   <path id="_4905098961234567" class="fil1" d="M389.556 971.506l0 -51.9213 7.07717 0 11.6516 37.2732c0.349606,1.10551 0.753543,2.60787 1.21417,4.49409 0.46063,1.8874 0.93189,3.96614 1.41496,6.24921 0.876378,-3.80906 1.49409,-6.41693 1.83189,-7.84724 0.336614,-1.44213 0.583465,-2.40354 0.741732,-2.89606l11.6516 -37.2732 7.07717 0 0 51.9213 -4.17992 0 0 -39.0047c0,-0.612992 0.023622,-1.8378 0.080315,-3.67677 0.0555118,-1.8378 0.134646,-3.92953 0.212598,-6.24803l-15.1122 48.9295 -4.86496 0 -15.078 -49.1457c0.101575,2.67874 0.191339,4.79409 0.248031,6.3437 0.0555118,1.55079 0.0779528,2.8122 0.0779528,3.79724l0 39.0047 -4.04409 0z"/>
   <polygon id="_49050989612345678" class="fil1" points="462.912,971.506 441.128,971.506 441.128,919.585 462.912,919.585 462.912,923.634 445.508,923.634 445.508,942.823 461.89,942.823 461.89,946.62 445.508,946.62 445.508,967.18 462.912,967.18 "/>
   <path id="_490509896123456789" class="fil1" d="M470.193 971.506l0 -51.9213 6.8185 0 20.4945 48.965c-0.281102,-1.87441 -0.494882,-3.77244 -0.618898,-5.67165 -0.134646,-1.89803 -0.201969,-3.80906 -0.201969,-5.73189l0 -37.5614 4.24724 0 0 51.9213 -6.54921 0 -20.5394 -48.5811c0.225591,1.50236 0.393307,3.12402 0.494882,4.84252 0.112205,1.73031 0.167717,3.56811 0.167717,5.53937l0 38.1992 -4.31339 0z"/>
   <polygon id="_49050989612345678910" class="fil1" points="517.73,971.506 517.73,923.634 505.91,923.634 505.91,919.585 533.764,919.585 533.764,923.634 521.909,923.634 521.909,971.506 "/>
   <path id="_4905098961234567891011" class="fil1" d="M536.695 945.563c0,-7.11378 0.292913,-12.1606 0.876378,-15.1287 0.574016,-2.96693 1.56142,-5.33504 2.94449,-7.08898 1.22362,-1.52598 2.76378,-2.66811 4.6063,-3.4122 1.84252,-0.757087 3.98858,-1.13031 6.44882,-1.13031 2.4378,0 4.59449,0.385039 6.47126,1.14213 1.87677,0.768898 3.40512,1.89803 4.58386,3.40039 1.40551,1.77874 2.40472,4.19409 2.97756,7.22126 0.584646,3.01654 0.877559,8.01496 0.877559,14.9965 0,6.99331 -0.292913,12.0047 -0.877559,15.0319 -0.572835,3.02835 -1.57205,5.42008 -2.97756,7.17402 -1.17874,1.45394 -2.74016,2.59606 -4.67362,3.40039 -1.93228,0.805512 -4.05591,1.21417 -6.3815,1.21417 -2.32559,0 -4.44921,-0.408661 -6.36969,-1.21417 -1.92165,-0.804331 -3.48425,-1.94646 -4.68543,-3.40039 -1.40433,-1.75394 -2.39291,-4.14567 -2.96575,-7.17402 -0.574016,-3.02717 -0.855118,-8.03858 -0.855118,-15.0319zm4.50591 -0.011811c0,9.03543 0.753543,15.0921 2.2689,18.1677 1.51772,3.07677 4.21299,4.61457 8.10118,4.61457 3.88819,0 6.57283,-1.52598 8.07874,-4.57795 1.50591,-3.05197 2.25827,-9.12047 2.25827,-18.2043 0,-9.12047 -0.752362,-15.2126 -2.25827,-18.2646 -1.50591,-3.05197 -4.19055,-4.57795 -8.07874,-4.57795 -3.88819,0 -6.58346,1.5378 -8.10118,4.62638 -1.51535,3.0874 -2.2689,9.15591 -2.2689,18.2161z"/>
   <polygon id="_490509896123456789101112" class="fil1" points="597.919,971.506 597.919,923.634 586.098,923.634 586.098,919.585 613.952,919.585 613.952,923.634 602.098,923.634 602.098,971.506 "/>
   <path id="_49050989612345678910111213" class="fil1" d="M640.703 971.506l-21.7843 0 0 -51.9213 21.7843 0 0 4.04882 -17.4035 0 0 19.1894 16.3819 0 0 3.79724 -16.3819 0 0 20.5594 17.4035 0 0 4.32638zm-11.6055 -56.6445l-3.03425 0 6.88819 -12.2563 4.99961 0 -8.85354 12.2563z"/>
   <path id="_4905098961234567891011121314" class="fil1" d="M661.219 946.476l-8.98819 0 0 25.0299 -4.24606 0 0 -51.9213 9.64016 0c6.14528,0 10.2343,0.924803 12.2681,2.77559 2.03386,1.8626 3.04488,5.31024 3.04488,10.3571 0,3.53268 -0.550394,6.2374 -1.66299,8.08701 -1.11142,1.85079 -2.8878,3.07677 -5.34803,3.66496 2.46024,0.49252 4.15748,1.47874 5.11181,2.96811 0.955512,1.49055 1.43858,4.08543 1.43858,7.7752l0 3.30354c0,1.94646 0.0673228,4.00157 0.21378,6.16417 0.146457,2.15079 0.359055,4.43386 0.640157,6.82559l-4.70787 0c-0.303543,-3.61654 -0.493701,-7.4622 -0.539764,-11.524 -0.0555118,-4.07244 -0.111024,-6.3437 -0.157087,-6.8126 -0.23622,-2.42717 -0.876378,-4.14567 -1.90984,-5.16732 -1.02165,-1.02047 -2.62913,-1.52598 -4.79764,-1.52598zm-8.98819 -3.66496l5.13543 0c4.16811,0 7.07717,-0.780709 8.71772,-2.34331 1.65236,-1.56142 2.47205,-4.31339 2.47205,-8.25472 0,-3.32835 -0.70748,-5.62323 -2.12362,-6.89764 -1.41496,-1.26142 -4.14567,-1.89803 -8.17913,-1.89803l-6.02244 0 0 19.3937z"/>
   <path id="_490509896123456789101112131415" class="fil1" d="M681.501 971.506l0 -51.9213 7.07717 0 11.6516 37.2732c0.349606,1.10551 0.753543,2.60787 1.21417,4.49409 0.46063,1.8874 0.93189,3.96614 1.41496,6.24921 0.876378,-3.80906 1.49409,-6.41693 1.83189,-7.84724 0.336614,-1.44213 0.583465,-2.40354 0.741732,-2.89606l11.6516 -37.2732 7.07717 0 0 51.9213 -4.17992 0 0 -39.0047c0,-0.612992 0.023622,-1.8378 0.080315,-3.67677 0.0555118,-1.8378 0.134646,-3.92953 0.212598,-6.24803l-15.1122 48.9295 -4.86496 0 -15.078 -49.1457c0.101575,2.67874 0.191339,4.79409 0.248031,6.3437 0.0555118,1.55079 0.0779528,2.8122 0.0779528,3.79724l0 39.0047 -4.04409 0z"/>
   <polygon id="_49050989612345678910111213141516" class="fil1" points="733.139,971.506 733.139,919.585 737.519,919.585 737.519,971.506 "/>
   <path id="_4905098961234567891011121314151617" class="fil1" d="M768.428 956.366l4.64055 0 0 0.216142c0,5.02323 -1.16811,8.90433 -3.50433,11.6681 -2.3374,2.75197 -5.64094,4.13386 -9.92126,4.13386 -2.41654,0 -4.56142,-0.517323 -6.42756,-1.55079 -1.86496,-1.03346 -3.39213,-2.53465 -4.6063,-4.50591 -0.966142,-1.57441 -1.63937,-3.5563 -2.03268,-5.97165 -0.393307,-2.40354 -0.596457,-6.62126 -0.596457,-12.6531l0 -2.00669c0,-5.20276 0.112205,-9.03661 0.327165,-11.4756 0.223228,-2.43898 0.583465,-4.55433 1.08898,-6.33189 0.809055,-2.84882 2.32559,-5.07165 4.54016,-6.66969 2.22402,-1.60984 4.88622,-2.41535 7.99843,-2.41535 4.48228,0 7.7185,1.14213 9.7311,3.43701 2.01024,2.28307 3.00945,5.97165 3.00945,11.0669l0 0.276378 -4.50472 0c-0.0448819,-3.84567 -0.70748,-6.64488 -1.97717,-8.3752 -1.26969,-1.74213 -3.31417,-2.60787 -6.12402,-2.60787 -3.51614,0 -5.97638,1.45394 -7.39252,4.36181 -1.41614,2.90787 -2.12362,8.26772 -2.12362,16.0535 0,4.18228 0.0673228,7.70315 0.212598,10.5626 0.147638,2.87126 0.370866,5.16732 0.675591,6.89764 0.438189,2.47441 1.38071,4.38543 2.8311,5.7437 1.44921,1.35709 3.25748,2.04213 5.4378,2.04213 2.7189,0 4.85433,-0.949606 6.39331,-2.84764 1.54961,-1.89803 2.32441,-4.53071 2.32441,-7.88268l0 -1.16575z"/>
   <path id="_490509896123456789101112131415161718" class="fil1" d="M779.822 945.563c0,-7.11378 0.292913,-12.1606 0.876378,-15.1287 0.574016,-2.96693 1.56142,-5.33504 2.94449,-7.08898 1.22362,-1.52598 2.76378,-2.66811 4.6063,-3.4122 1.84252,-0.757087 3.98858,-1.13031 6.44882,-1.13031 2.4378,0 4.59449,0.385039 6.47126,1.14213 1.87677,0.768898 3.40512,1.89803 4.58386,3.40039 1.40551,1.77874 2.40472,4.19409 2.97756,7.22126 0.584646,3.01654 0.877559,8.01496 0.877559,14.9965 0,6.99331 -0.292913,12.0047 -0.877559,15.0319 -0.572835,3.02835 -1.57205,5.42008 -2.97756,7.17402 -1.17874,1.45394 -2.74016,2.59606 -4.67362,3.40039 -1.93228,0.805512 -4.05591,1.21417 -6.3815,1.21417 -2.32559,0 -4.44921,-0.408661 -6.36969,-1.21417 -1.92165,-0.804331 -3.48425,-1.94646 -4.68543,-3.40039 -1.40433,-1.75394 -2.39291,-4.14567 -2.96575,-7.17402 -0.574016,-3.02717 -0.855118,-8.03858 -0.855118,-15.0319zm4.50591 -0.011811c0,9.03543 0.753543,15.0921 2.2689,18.1677 1.51772,3.07677 4.21299,4.61457 8.10118,4.61457 3.88819,0 6.57283,-1.52598 8.07874,-4.57795 1.50591,-3.05197 2.25827,-9.12047 2.25827,-18.2043 0,-9.12047 -0.752362,-15.2126 -2.25827,-18.2646 -1.50591,-3.05197 -4.19055,-4.57795 -8.07874,-4.57795 -3.88819,0 -6.58346,1.5378 -8.10118,4.62638 -1.51535,3.0874 -2.2689,9.15591 -2.2689,18.2161z"/>
   <g>
    <path id="_155989312" class="fil2" d="M270.123 797.072c-0.977953,0.96378 -2.16024,1.44567 -3.53976,1.44567l-10.715 0c-2.79921,0 -4.65472,-0.904724 -5.59252,-2.70118l-53.9835 -99.1807c-0.229134,-0.347244 -0.416929,-0.501969 -0.531496,-0.501969 -0.112205,0 -0.17126,0.154724 -0.17126,0.501969l0 98.6598c0,0.904724 -0.288189,1.67835 -0.86811,2.27717 -0.583465,0.636614 -1.33465,0.944882 -2.27008,0.944882l-9.0815 0c-0.938976,0 -1.70433,-0.114567 -2.27835,-0.347244 -0.579921,-0.212598 -0.869291,-0.77126 -0.869291,-1.67835l0 -118.779c0,-1.35118 0.491339,-2.4685 1.48583,-3.37677 0.98622,-0.888189 2.18031,-1.35354 3.57283,-1.35354l9.61063 0c2.4437,0 4.0748,0.252756 4.88386,0.753543 0.824409,0.522047 1.58386,1.39016 2.27835,2.62559l53.635 98.6598 0.35315 0.520866c0.114567,0 0.168898,-0.173622 0.168898,-0.520866l0 -98.8335c0,-0.888189 0.288189,-1.66181 0.86811,-2.27717 0.579921,-0.616535 1.3252,-0.928346 2.24409,-0.928346l9.16063 0c0.912992,0 1.67008,0.311811 2.25,0.928346 0.569291,0.615354 0.86811,1.38898 0.86811,2.27717l0 117.425c0,1.35354 -0.500787,2.51102 -1.47874,3.45827z"/>
    <path id="_155989288" class="fil2" d="M344.101 688.179c-0.579921,-2.02913 -1.69252,-3.03189 -3.32598,-3.03189 -1.74567,0 -2.91496,1.00276 -3.49488,3.03189l-15.8846 55.585 38.602 0 -15.8965 -55.585zm46.8177 107.637c0,1.79646 -0.983858,2.70118 -2.97638,2.70118l-10.311 0c-0.810236,0 -1.44331,-0.249213 -1.9063,-0.770079 -0.475984,-0.501969 -0.823228,-1.10197 -1.05354,-1.75748l-11.3646 -38.8654 -45.2433 0 -11.1803 38.8654c-0.230315,0.655512 -0.644882,1.25551 -1.2248,1.75748 -0.577559,0.520866 -1.2189,0.770079 -1.91339,0.770079l-10.3063 0c-1.99016,0 -2.97283,-0.904724 -2.97283,-2.70118 0,-0.579921 0.0531496,-0.967323 0.173622,-1.17992l32.3197 -109.991c0.692126,-2.58543 1.71496,-4.71024 3.05906,-6.33189 1.3311,-1.64291 2.81693,-2.93386 4.45039,-3.8811 1.6311,-0.96378 3.34843,-1.64173 5.14961,-2.04567 1.81063,-0.38622 3.52795,-0.579921 5.15669,-0.579921 1.63346,0 3.32598,0.153543 5.07165,0.501969 1.74803,0.327165 3.42402,0.98622 5.06575,1.95 1.6252,0.947244 3.11102,2.23819 4.45039,3.8811 1.34409,1.64173 2.36693,3.74646 3.0626,6.33189l32.3161 110.165c0.114567,0.212598 0.177165,0.6 0.177165,1.17992z"/>
    <path id="_155989216" class="fil2" d="M499.517 797.072c-0.982677,0.96378 -2.15669,1.44567 -3.55039,1.44567l-10.7031 0c-2.79449,0 -4.66063,-0.904724 -5.5937,-2.70118l-53.9764 -99.1807c-0.238583,-0.347244 -0.41811,-0.501969 -0.532677,-0.501969 -0.11811,0 -0.173622,0.154724 -0.173622,0.501969l0 98.6598c0,0.904724 -0.291732,1.67835 -0.871654,2.27717 -0.588189,0.636614 -1.34173,0.944882 -2.26417,0.944882l-9.09567 0c-0.929528,0 -1.67835,-0.114567 -2.2689,-0.347244 -0.591732,-0.212598 -0.879921,-0.77126 -0.879921,-1.67835l0 -118.779c0,-1.35118 0.504331,-2.4685 1.48465,-3.37677 0.98622,-0.888189 2.18268,-1.35354 3.59528,-1.35354l9.60591 0c2.4378,0 4.07126,0.252756 4.89449,0.753543 0.806693,0.522047 1.56378,1.39016 2.25591,2.62559l53.6469 98.6598 0.347244 0.520866c0.114567,0 0.184252,-0.173622 0.184252,-0.520866l0 -98.8335c0,-0.888189 0.277559,-1.66181 0.84685,-2.27717 0.582283,-0.616535 1.33583,-0.928346 2.25827,-0.928346l9.15118 0c0.920079,0 1.67362,0.311811 2.24173,0.928346 0.581102,0.615354 0.871654,1.38898 0.871654,2.27717l0 117.425c0,1.35354 -0.496063,2.51102 -1.47402,3.45827z"/>
    <path id="_155989168" class="fil2" d="M603.71 724.845c0,-7.08661 -0.725197,-13.1114 -2.17441,-18.0744 -1.45394,-4.94291 -3.52205,-9.01654 -6.19252,-12.1642 -2.66693,-3.14646 -5.92087,-5.4248 -9.75118,-6.83386 -3.83268,-1.40906 -8.12598,-2.12362 -12.8953,-2.12362 -4.76339,0 -9.05906,0.714567 -12.8894,2.12362 -3.83031,1.40906 -7.11732,3.6874 -9.84094,6.83386 -2.7378,3.14764 -4.82244,7.22126 -6.26811,12.1642 -1.44921,4.96299 -2.18268,10.9878 -2.18268,18.0744l0 21.7937c0,7.10669 0.733465,13.1315 2.18268,18.0909 1.44567,4.94291 3.50787,9.01772 6.17835,12.1642 2.67047,3.14646 5.95157,5.4248 9.84685,6.83386 3.88583,1.4126 8.20984,2.1248 12.9732,2.1248 4.76929,0 9.0626,-0.712205 12.8953,-2.1248 3.83031,-1.40906 7.08425,-3.6874 9.75118,-6.83386 2.67047,-3.14646 4.73858,-7.22126 6.19252,-12.1642 1.44921,-4.95945 2.17441,-10.9843 2.17441,-18.0909l0 -21.7937zm16.2449 21.7937c0,9.36496 -1.16575,17.3965 -3.48898,24.0791 -2.3374,6.71693 -5.6126,12.2008 -9.8126,16.487 -4.19764,4.26496 -9.19134,7.4315 -14.9634,9.44055 -5.76732,2.02559 -12.1051,3.05197 -18.9933,3.05197 -6.87283,0 -13.2118,-1.02638 -18.9839,-3.05197 -5.78031,-2.00906 -10.7681,-5.17559 -14.9693,-9.44055 -4.19764,-4.28622 -7.50354,-9.77008 -9.89646,-16.487 -2.38465,-6.68268 -3.5811,-14.7142 -3.5811,-24.0791l0 -21.7937c0,-9.34843 1.19646,-17.3787 3.5811,-24.0591 2.39291,-6.71929 5.69882,-12.2008 9.89646,-16.4882 4.20118,-4.26732 9.18898,-7.43386 14.9693,-9.45945 5.77205,-2.02913 12.111,-3.03189 18.9839,-3.03189 6.88819,0 13.226,1.00276 18.9933,3.03189 5.77205,2.02559 10.7657,5.19213 14.9634,9.45945 4.2,4.2874 7.4752,9.7689 9.8126,16.4882 2.32323,6.68031 3.48898,14.7106 3.48898,24.0591l0 21.7937z"/>
    <path id="_155989432" class="fil3" d="M618.665 873.784c-0.86811,1.0937 -1.8626,1.63346 -2.99528,1.63346l-431.174 0c-1.12559,0 -2.12362,-0.539764 -2.99173,-1.63346 -0.85748,-1.07244 -1.2815,-2.34449 -1.2815,-3.7878l0 -40.8555c0,-1.44213 0.424016,-2.65866 1.2815,-3.64724 0.86811,-1.00039 1.86614,-1.50236 2.99173,-1.50236l431.174 0c1.13268,0 2.12717,0.501969 2.99528,1.50236 0.85748,0.988583 1.28386,2.20512 1.28386,3.64724l0 40.8555c0,1.44331 -0.426378,2.71535 -1.28386,3.7878z"/>
    <path id="_155989768" class="fil2" d="M754.694 699.715l0 -21.5339c0,-0.680315 -0.109843,-1.36181 -0.322441,-1.99724 -0.218504,-0.683858 -0.540945,-1.27205 -0.969685,-1.8189 -0.431102,-0.408661 -0.896457,-0.726378 -1.4374,-1.00039 -0.501969,-0.226772 -1.03937,-0.361417 -1.57795,-0.361417l-105.302 0c-0.538583,0 -1.07598,0.134646 -1.58031,0.361417 -0.538583,0.274016 -1.00394,0.591732 -1.43504,1.00039 -0.431102,0.54685 -0.753543,1.13504 -0.969685,1.8189 -0.212598,0.635433 -0.322441,1.31693 -0.322441,1.99724l0 21.5339c0,0.681496 0.109843,1.36181 0.322441,1.95354 0.216142,0.636614 0.538583,1.18228 0.969685,1.59213 0.431102,0.408661 0.896457,0.725197 1.43504,0.99685 0.504331,0.226772 1.04173,0.364961 1.58031,0.364961l37.6819 0 0 165.458c0,0.683858 0.109843,1.36417 0.325984,2.00079 0.214961,0.680315 0.537402,1.27205 0.968504,1.81535 0.432283,0.54685 0.897638,0.955512 1.43504,1.22717 0.504331,0.272835 1.04291,0.409843 1.58031,0.409843l21.3189 0c0.537402,0 1.07598,-0.137008 1.58031,-0.409843 0.535039,-0.271654 1.00276,-0.680315 1.4315,-1.22717 0.432283,-0.543307 0.757087,-1.13504 0.969685,-1.81535 0.218504,-0.636614 0.324803,-1.31693 0.324803,-2.00079l0 -165.458 37.6854 0c0.538583,0 1.07598,-0.138189 1.57795,-0.364961 0.540945,-0.271654 1.0063,-0.588189 1.4374,-0.99685 0.42874,-0.409843 0.751181,-0.955512 0.969685,-1.59213 0.212598,-0.591732 0.322441,-1.27205 0.322441,-1.95354zm142.557 170.366l0 -191.9c0,-0.680315 -0.106299,-1.36181 -0.322441,-1.99724 -0.214961,-0.683858 -0.537402,-1.27205 -0.969685,-1.8189 -0.431102,-0.408661 -0.896457,-0.726378 -1.43386,-1.00039 -0.501969,-0.226772 -1.04291,-0.361417 -1.58031,-0.361417l-21.3189 0c-0.540945,0 -1.07835,0.134646 -1.58031,0.361417 -0.537402,0.274016 -1.0063,0.591732 -1.43504,1.00039 -0.431102,0.54685 -0.753543,1.13504 -0.969685,1.8189 -0.212598,0.635433 -0.32126,1.31693 -0.32126,1.99724l0 75.2339 -61.1563 0 0 -75.2339c0,-0.680315 -0.109843,-1.36181 -0.324803,-1.99724 -0.21378,-0.683858 -0.538583,-1.27205 -0.969685,-1.8189 -0.431102,-0.408661 -0.896457,-0.726378 -1.43504,-1.00039 -0.501969,-0.226772 -1.04173,-0.361417 -1.58031,-0.361417l-21.3154 0c-0.540945,0 -1.07953,0.134646 -1.58386,0.361417 -0.537402,0.274016 -1.00276,0.591732 -1.4315,1.00039 -0.434646,0.54685 -0.755906,1.13504 -0.969685,1.8189 -0.214961,0.635433 -0.324803,1.31693 -0.324803,1.99724l0 191.9c0,0.683858 0.109843,1.36417 0.324803,2.00079 0.21378,0.680315 0.535039,1.27205 0.969685,1.81535 0.42874,0.54685 0.894094,0.955512 1.4315,1.22717 0.504331,0.272835 1.04291,0.409843 1.58386,0.409843l21.3154 0c0.538583,0 1.07835,-0.137008 1.58031,-0.409843 0.538583,-0.271654 1.00394,-0.680315 1.43504,-1.22717 0.431102,-0.543307 0.755906,-1.13504 0.969685,-1.81535 0.214961,-0.636614 0.324803,-1.31693 0.324803,-2.00079l0 -83.4106 61.1563 0 0 83.4106c0,0.683858 0.108661,1.36417 0.32126,2.00079 0.216142,0.680315 0.538583,1.27205 0.969685,1.81535 0.42874,0.54685 0.897638,0.955512 1.43504,1.22717 0.501969,0.272835 1.03937,0.409843 1.58031,0.409843l21.3189 0c0.537402,0 1.07835,-0.137008 1.58031,-0.409843 0.537402,-0.271654 1.00276,-0.680315 1.43386,-1.22717 0.432283,-0.543307 0.754724,-1.13504 0.969685,-1.81535 0.216142,-0.636614 0.322441,-1.31693 0.322441,-2.00079zm127.482 -1.90866l0 -17.4425c0,-0.683858 -0.103937,-1.36535 -0.322441,-2.00079 -0.212598,-0.681496 -0.538583,-1.27205 -0.967323,-1.81535 -0.431102,-0.54685 -0.898819,-0.955512 -1.4374,-1.22835 -0.500787,-0.271654 -1.03937,-0.408661 -1.57677,-0.408661l-43.9323 0c-3.12165,0 -5.81339,-0.408661 -8.00197,-1.22717 -2.2252,-0.818504 -3.94843,-2.04331 -5.13071,-3.67913 -1.29449,-1.63701 -2.26417,-3.99921 -2.91142,-7.1315 -0.64252,-3.09094 -0.967323,-6.90709 -0.967323,-11.4047l0 -35.1638 58.3571 0c0.540945,0 1.07835,-0.137008 1.58031,-0.408661 0.537402,-0.271654 1.0063,-0.681496 1.43504,-1.22717 0.431102,-0.543307 0.755906,-1.13504 0.968504,-1.81654 0.216142,-0.635433 0.325984,-1.31693 0.325984,-2.00079l0 -19.6252c0,-0.681496 -0.109843,-1.36181 -0.325984,-1.99843 -0.212598,-0.680315 -0.537402,-1.27205 -0.968504,-1.81772 -0.42874,-0.544488 -0.897638,-0.95315 -1.43504,-1.2248 -0.501969,-0.275197 -1.03937,-0.409843 -1.58031,-0.409843l-58.3571 0 0 -29.439c0,-4.49646 0.324803,-8.31378 0.967323,-11.4035 0.647244,-3.13583 1.61693,-5.49803 2.91142,-7.1315 1.18228,-1.63701 2.90551,-2.86417 5.13071,-3.68268 2.18858,-0.814961 4.88031,-1.22362 8.00197,-1.22362l43.9323 0c0.537402,0 1.07598,-0.138189 1.57677,-0.409843 0.538583,-0.274016 1.0063,-0.680315 1.4374,-1.22717 0.42874,-0.54685 0.754724,-1.13504 0.967323,-1.8189 0.218504,-0.635433 0.322441,-1.31693 0.322441,-1.99724l0 -17.4461c0,-0.95315 -0.0708661,-1.77047 -0.179528,-2.45197 -0.142913,-0.680315 -0.355512,-1.22717 -0.681496,-1.63583 -0.32126,-0.409843 -0.790157,-0.773622 -1.39724,-1.04528 -0.611811,-0.272835 -1.29213,-0.454724 -2.04567,-0.591732 -0.861024,-0.134646 -1.75984,-0.316535 -2.72953,-0.588189 -0.933071,-0.226772 -1.90276,-0.501969 -2.87244,-0.773622 -1.07598,-0.137008 -2.25827,-0.318898 -3.55276,-0.54685 -1.28858,-0.226772 -2.69055,-0.406299 -4.19764,-0.543307 -1.61457,-0.137008 -3.3378,-0.318898 -5.2063,-0.54685 -1.82717,-0.226772 -3.83622,-0.408661 -5.99055,-0.543307 -2.26417,-0.137008 -4.73858,-0.226772 -7.46575,-0.226772 -2.69291,-0.0472441 -5.67047,-0.0472441 -8.90197,-0.0472441 -3.55276,0 -6.9626,0.18189 -10.1941,0.590551 -3.26457,0.364961 -6.38858,0.91063 -9.40039,1.59213 -3.01535,0.680315 -5.85118,1.68071 -8.54173,3.04252 -2.6563,1.36181 -5.13307,3.08858 -7.39488,5.13425 -2.15433,2.04567 -4.12677,4.49646 -5.92323,7.36063 -1.79291,2.86063 -3.33425,6.1311 -4.62874,9.8126 -1.29213,3.67913 -2.25827,7.86024 -2.90551,12.5374 -0.647244,4.67953 -0.969685,9.94961 -0.969685,15.8114l0 95.1319c0,5.86181 0.322441,11.1307 0.969685,15.8102 0.647244,4.67835 1.61339,8.85945 2.90551,12.5386 1.29449,3.67913 2.83583,6.90472 4.62874,9.67559 1.79646,2.77205 3.7689,5.1815 5.92323,7.22362 2.26181,2.04567 4.73858,3.81732 7.39488,5.22638 2.69055,1.45394 5.52638,2.54409 8.54173,3.22559 3.01181,0.680315 6.13583,1.22717 9.40039,1.58858 3.2315,0.408661 6.64134,0.591732 10.1941,0.591732 3.2315,0 6.20906,-0.0448819 8.90197,-0.183071 2.72717,-0.0897638 5.20157,-0.226772 7.46575,-0.361417 2.15433,-0.137008 4.16339,-0.274016 5.99055,-0.408661 1.8685,-0.137008 3.59173,-0.275197 5.2063,-0.408661 1.50709,-0.138189 2.90906,-0.320079 4.19764,-0.591732 1.29449,-0.226772 2.47677,-0.498425 3.55276,-0.773622 0.969685,-0.134646 1.93937,-0.316535 2.87244,-0.543307 0.969685,-0.226772 1.8685,-0.408661 2.72953,-0.54685 0.753543,-0.134646 1.43386,-0.361417 2.04567,-0.635433 0.607087,-0.271654 1.07598,-0.58937 1.39724,-0.998031 0.325984,-0.408661 0.538583,-0.955512 0.681496,-1.63583 0.108661,-0.681496 0.179528,-1.5 0.179528,-2.45551zm144.711 1.90866l-33.8067 -79.5933c4.52244,-2.18031 8.57717,-4.95236 12.1299,-8.35866 3.55276,-3.3626 6.60236,-7.31693 9.1878,-11.8146 2.69291,-4.49646 4.70197,-9.72047 5.99409,-15.672 1.32874,-5.95157 1.97244,-12.5398 1.97244,-19.7634l0 -2.45197c0,-11.7213 -1.71969,-21.5362 -5.16614,-29.4413 -3.2315,-7.90512 -7.75394,-14.1732 -13.565,-18.8079 -2.80276,-2.31732 -5.85118,-4.35945 -9.15236,-6.08622 -3.30354,-1.77402 -6.78661,-3.17953 -10.4457,-4.26969 -3.7689,-0.955512 -7.64409,-1.68189 -11.6291,-2.22756 -3.9815,-0.499606 -8.0752,-0.773622 -12.2728,-0.773622 -3.8752,0 -7.75394,0.0472441 -11.5594,0.18189 -3.83858,0.137008 -7.60748,0.36378 -11.2665,0.635433 -3.6626,0.409843 -7.10669,0.818504 -10.337,1.27323 -3.2315,0.408661 -6.24685,0.91063 -9.04606,1.45394 -1.07835,0.137008 -2.04449,0.408661 -2.8689,0.773622 -0.863386,0.408661 -1.5437,0.862205 -2.08465,1.40669 -0.644882,0.683858 -1.11024,1.49882 -1.43504,2.49921 -0.322441,0.955512 -0.500787,2.13543 -0.500787,3.49724l0 187.539c0,0.683858 0.108661,1.36417 0.32126,2.00079 0.216142,0.680315 0.538583,1.27205 0.969685,1.81535 0.432283,0.54685 0.896457,0.955512 1.43504,1.22717 0.504331,0.272835 1.03937,0.409843 1.58031,0.409843l21.5339 0c0.538583,0 1.07598,-0.137008 1.58031,-0.409843 0.538583,-0.271654 1.00394,-0.680315 1.43504,-1.22717 0.322441,-0.543307 0.574016,-1.13504 0.790157,-1.81535 0.179528,-0.636614 0.285827,-1.31693 0.285827,-2.00079l0 -73.5969c1.18583,0.137008 2.58307,0.226772 4.16102,0.271654 1.54724,0.0472441 3.27047,0.137008 5.1,0.274016 1.82953,0.134646 3.58701,0.271654 5.27362,0.361417 1.68661,0.138189 3.23031,0.18189 4.63228,0.18189l3.01181 0 31.011 72.5079c0.324803,0.683858 0.61063,1.36417 0.863386,2.00079 0.249213,0.680315 0.537402,1.27205 0.859843,1.81535 0.647244,1.09016 1.50709,1.63701 2.58307,1.63701l26.2724 0c1.72087,0 2.58425,-1.09016 2.58425,-3.27047 0,-0.408661 -0.0366142,-0.818504 -0.142913,-1.18228 -0.0732283,-0.408661 -0.179528,-0.726378 -0.28937,-1.00039zm-34.4539 -135.202c0,5.99646 -0.644882,11.0409 -1.93701,15.1736 -1.29449,4.08898 -3.23031,7.31693 -5.81693,9.63071 -2.58307,2.31732 -5.92087,4.04409 -10.011,5.13661 -4.09134,1.13504 -8.93622,1.67835 -14.5346,1.67835 -0.432283,0 -0.969685,0 -1.61693,-0.0448819 -0.644882,0 -1.39843,-0.0897638 -2.25827,-0.226772 -0.969685,0 -1.9063,0 -2.80276,-0.0448819 -0.896457,0 -1.82953,-0.092126 -2.79921,-0.226772 -0.966142,0 -1.93583,0 -2.87244,-0.0448819 -0.969685,0 -1.86614,-0.092126 -2.72598,-0.226772 -0.969685,0 -1.79646,0 -2.4378,0 -0.68622,0 -1.22244,0 -1.65354,0l0 -61.3335c0.538583,-0.137008 1.14921,-0.226772 1.79291,-0.271654 0.681496,-0.0472441 1.43858,-0.137008 2.29843,-0.274016 0.753543,0 1.57795,0 2.4437,-0.0448819 0.859843,0 1.7563,-0.0897638 2.72598,-0.226772 0.967323,0 1.90039,0 2.79685,-0.0448819 0.898819,0 1.83189,-0.0933071 2.80157,-0.226772 0.861024,0 1.65118,0 2.40472,0 0.716929,0 1.36181,0 1.90276,0 5.38228,0 10.1209,0.543307 14.1756,1.68071 4.09134,1.09016 7.46457,2.81575 10.1575,5.13307 2.69055,2.31732 4.70197,5.31614 5.99409,9.04016 1.32756,3.67913 1.97244,8.13189 1.97244,13.3122l0 2.45197zm197.47 136.566l0 -187.539c0,-1.49882 -0.216142,-2.90906 -0.61063,-4.27087 -0.42874,-1.31693 -1.0063,-2.54409 -1.75748,-3.63425 -0.862205,-0.955512 -1.83189,-1.68071 -2.87126,-2.22756 -1.07598,-0.498425 -2.18858,-0.770079 -3.37441,-0.770079l-17.6587 0c-0.859843,0 -1.68661,0.134646 -2.4378,0.408661 -0.79252,0.271654 -1.54724,0.681496 -2.29724,1.2248 -1.50827,1.36417 -2.58425,2.99882 -3.2315,4.9063l-32.5157 83.413c-0.324803,0.681496 -0.577559,1.22717 -0.790157,1.68189 -0.214961,0.408661 -0.394488,0.770079 -0.504331,1.04528 -0.106299,0.406299 -0.251575,0.680315 -0.465354,0.862205 -0.179528,0.134646 -0.394488,0.227953 -0.61063,0.227953 -0.216142,0 -0.431102,-0.0933071 -0.61063,-0.227953 -0.212598,-0.18189 -0.359055,-0.455906 -0.465354,-0.862205 -0.108661,-0.275197 -0.251575,-0.636614 -0.467717,-1.04528 -0.216142,-0.454724 -0.501969,-1.00039 -0.826772,-1.68189l-32.5157 -83.413c-0.647244,-1.90748 -1.72323,-3.54213 -3.23031,-4.9063 -0.751181,-0.543307 -1.50827,-0.95315 -2.29843,-1.2248 -0.751181,-0.274016 -1.57677,-0.408661 -2.4378,-0.408661l-17.6587 0c-1.18465,0 -2.29724,0.271654 -3.33661,0.770079 -1.04291,0.54685 -1.93937,1.27205 -2.69291,2.22756 -0.861024,1.09016 -1.50827,2.31732 -1.93701,3.63425 -0.431102,1.36181 -0.647244,2.77205 -0.647244,4.27087l0 187.539c0,0.681496 0.109843,1.27205 0.28937,1.81654 0.212598,0.500787 0.464173,0.91063 0.786614,1.18228 0.322441,0.408661 0.720472,0.680315 1.14921,0.863386 0.431102,0.137008 0.896457,0.226772 1.4374,0.226772l21.7476 0c1.07598,0 1.93819,-0.54685 2.58307,-1.63701 0.324803,-0.543307 0.537402,-1.13504 0.683858,-1.81535 0.106299,-0.636614 0.179528,-1.31693 0.179528,-2.00079l0 -126.478c0,-0.955512 0.0720472,-1.63701 0.179528,-2.09055 0.106299,-0.408661 0.251575,-0.636614 0.464173,-0.636614 0.109843,0 0.216142,0.138189 0.395669,0.409843 0.142913,0.271654 0.361417,0.680315 0.683858,1.22717l20.8866 52.063c0.324803,0.680315 0.753543,1.27205 1.25551,1.8189 0.537402,0.543307 1.11496,1.04528 1.75984,1.45157 0.537402,0.408661 1.14803,0.727559 1.79291,1.00039 0.647244,0.226772 1.32874,0.36378 2.08465,0.36378l21.7476 0c0.753543,0 1.47047,-0.137008 2.11772,-0.36378 0.681496,-0.272835 1.32874,-0.591732 1.97362,-1.00039 0.537402,-0.406299 1.07598,-0.908268 1.58031,-1.45157 0.464173,-0.54685 0.896457,-1.13858 1.22126,-1.8189l20.6717 -52.063c0.32126,-0.54685 0.539764,-0.955512 0.719291,-1.22717 0.142913,-0.271654 0.249213,-0.409843 0.356693,-0.409843 0.214961,0 0.394488,0.227953 0.504331,0.636614 0.106299,0.453543 0.142913,1.13504 0.142913,2.09055l0 126.478c0,0.683858 0.106299,1.36417 0.285827,2.00079 0.218504,0.680315 0.467717,1.27205 0.790157,1.81535 0.32126,0.54685 0.647244,0.955512 1.03937,1.22717 0.357874,0.272835 0.790157,0.409843 1.32756,0.409843l21.75 0c0.538583,0 1.03937,-0.0897638 1.47402,-0.226772 0.432283,-0.183071 0.790157,-0.454724 1.1126,-0.863386 0.322441,-0.271654 0.571654,-0.681496 0.787795,-1.18228 0.179528,-0.544488 0.288189,-1.13504 0.288189,-1.81654zm62.2346 -1.36417l0 -191.9c0,-0.680315 -0.108661,-1.36181 -0.322441,-1.99724 -0.214961,-0.683858 -0.537402,-1.27205 -0.972047,-1.8189 -0.431102,-0.408661 -0.894094,-0.726378 -1.4315,-1.00039 -0.504331,-0.226772 -1.04528,-0.361417 -1.58031,-0.361417l-21.3189 0c-0.540945,0 -1.07835,0.134646 -1.58031,0.361417 -0.537402,0.274016 -1.0063,0.591732 -1.43504,1.00039 -0.431102,0.54685 -0.755906,1.13504 -0.968504,1.8189 -0.216142,0.635433 -0.325984,1.31693 -0.325984,1.99724l0 191.9c0,0.683858 0.109843,1.36417 0.325984,2.00079 0.212598,0.680315 0.537402,1.27205 0.968504,1.81535 0.42874,0.54685 0.897638,0.955512 1.43504,1.22717 0.501969,0.272835 1.03937,0.409843 1.58031,0.409843l21.3189 0c0.535039,0 1.07598,-0.137008 1.58031,-0.409843 0.537402,-0.271654 1.00039,-0.680315 1.4315,-1.22717 0.434646,-0.543307 0.757087,-1.13504 0.972047,-1.81535 0.21378,-0.636614 0.322441,-1.31693 0.322441,-2.00079zm127.482 -2.99882l0 -18.261c0,-0.818504 -0.0708661,-1.59094 -0.179528,-2.27244 -0.142913,-0.680315 -0.359055,-1.27205 -0.681496,-1.8189 -0.324803,-0.543307 -0.790157,-0.951969 -1.39724,-1.22362 -0.614173,-0.275197 -1.29567,-0.409843 -2.04567,-0.409843l-0.432283 0c-0.972047,0.134646 -2.01142,0.226772 -3.0874,0.271654 -1.1126,0.0448819 -2.29843,0.138189 -3.58937,0.272835 -1.39843,0.137008 -2.79921,0.274016 -4.23425,0.408661 -1.40079,0.137008 -2.87244,0.274016 -4.37953,0.408661 -1.50827,0.138189 -3.01535,0.226772 -4.55906,0.271654 -1.50709,0.0484252 -3.08504,0.138189 -4.70197,0.275197 -1.61102,0.134646 -3.15472,0.226772 -4.66299,0.226772 -1.50709,0.0448819 -2.97874,0.0448819 -4.37953,0.0448819 -2.26181,0 -4.44921,-0.226772 -6.56811,-0.635433 -2.1189,-0.454724 -4.09134,-1.13504 -5.92323,-2.09055 -1.93701,-0.818504 -3.73228,-1.90866 -5.34685,-3.31535 -1.65,-1.36417 -3.15827,-3.09094 -4.55669,-5.13307 -1.40079,-2.04567 -2.62205,-4.36299 -3.69567,-6.99685 -1.07835,-2.58898 -2.01142,-5.54291 -2.76496,-8.81575 -0.754724,-3.27047 -1.32874,-6.90472 -1.75748,-10.8579 -0.398031,-3.99567 -0.61063,-8.35866 -0.61063,-13.128l0 -40.0701c0,-4.77165 0.212598,-9.17717 0.61063,-13.265 0.42874,-4.04409 1.00276,-7.72559 1.75748,-10.9961 0.753543,-3.27047 1.68661,-6.22323 2.76496,-8.8122 1.07362,-2.6374 2.29488,-4.95472 3.69567,-6.99685 1.39843,-1.90866 2.90669,-3.54449 4.55669,-4.95118 1.61457,-1.36535 3.40984,-2.54528 5.34685,-3.50079 1.83189,-0.817323 3.80433,-1.45394 5.92323,-1.8626 2.1189,-0.406299 4.3063,-0.588189 6.56811,-0.588189 1.40079,0 2.87244,0 4.37953,0.0448819 1.50827,0 3.05197,0.0885827 4.66299,0.226772 1.61693,0.137008 3.19488,0.226772 4.70197,0.271654 1.5437,0.0448819 3.05079,0.137008 4.55906,0.274016 1.50709,0.134646 2.97874,0.227953 4.37953,0.271654 1.43504,0.0448819 2.83583,0.134646 4.23425,0.272835 1.29094,0.137008 2.47677,0.271654 3.58937,0.408661 1.07598,0.137008 2.11535,0.271654 3.0874,0.408661l0.432283 0c0.75,0 1.4315,-0.137008 2.04567,-0.408661 0.607087,-0.271654 1.07244,-0.681496 1.39724,-1.22717 0.322441,-0.543307 0.538583,-1.17992 0.681496,-1.86378 0.108661,-0.680315 0.179528,-1.40669 0.179528,-2.2252l0 -18.2634c0,-0.95315 -0.106299,-1.81654 -0.322441,-2.58898 -0.216142,-0.77126 -0.538583,-1.36181 -0.967323,-1.77165 -0.433465,-0.408661 -0.935433,-0.773622 -1.47283,-1.04528 -0.575197,-0.318898 -1.2189,-0.590551 -1.97362,-0.862205 -0.431102,-0.138189 -1.00512,-0.271654 -1.75984,-0.454724 -0.719291,-0.137008 -1.58031,-0.36378 -2.54646,-0.635433 -2.15551,-0.54685 -4.73858,-1.09016 -7.75394,-1.63701 -1.50709,-0.134646 -3.12165,-0.316535 -4.80827,-0.543307 -1.72323,-0.226772 -3.48307,-0.408661 -5.3126,-0.54685 -1.83307,-0.137008 -3.7689,-0.271654 -5.74488,-0.36378 -2.00906,-0.134646 -4.05354,-0.18189 -6.09921,-0.18189 -3.22795,0 -6.56811,0.274016 -9.97559,0.817323 -3.44646,0.54685 -6.92717,1.36535 -10.4799,2.45551 -3.5563,1.22717 -7.00039,2.86063 -10.2638,4.95118 -3.30472,2.13543 -6.42874,4.72441 -9.33425,7.86024 -3.01535,3.13465 -5.70827,6.81378 -8.14606,11.0398 -2.4437,4.22598 -4.66772,8.99528 -6.71102,14.3102 -1.94173,5.45079 -3.37323,11.6764 -4.34291,18.626 -0.969685,6.99685 -1.47402,14.7673 -1.47402,23.3528l0 40.0701c0,8.45079 0.504331,16.1291 1.47402,23.0776 0.969685,6.90709 2.40118,13.0382 4.34291,18.3543 2.04331,5.31496 4.26732,10.0878 6.71102,14.3102 2.4378,4.22598 5.13071,7.90748 8.14606,11.0398 2.90551,3.13583 6.02953,5.76969 9.33425,7.95236 3.26339,2.18031 6.70748,3.90709 10.2638,5.13425 3.55276,1.2248 7.03346,2.13543 10.4799,2.67874 3.40748,0.590551 6.74764,0.863386 9.97559,0.863386 2.04567,0 4.09016,-0.0448819 6.09921,-0.183071 1.97598,-0.0897638 3.91181,-0.226772 5.74488,-0.361417 1.82953,-0.137008 3.58937,-0.318898 5.3126,-0.590551 1.68661,-0.226772 3.30118,-0.499606 4.80827,-0.773622 1.50827,-0.134646 2.90906,-0.316535 4.19764,-0.588189 1.29449,-0.230315 2.47677,-0.501969 3.5563,-0.773622 0.966142,-0.137008 1.82717,-0.320079 2.54646,-0.54685 0.754724,-0.226772 1.32874,-0.408661 1.75984,-0.543307 0.754724,-0.275197 1.39843,-0.591732 1.97362,-1.00039 0.537402,-0.36378 1.03937,-0.773622 1.47283,-1.17992 0.861024,-0.818504 1.28976,-2.18268 1.28976,-4.09134z"/>
    <polygon id="_155989744" class="fil3" points="1557.37,570.555 1402.94,659.72 1422.71,659.72 1557.37,581.97 1557.37,964.253 1424.68,887.657 1404.9,887.657 1557.37,975.67 1732.8,874.401 1732.8,671.835 "/>
    <path id="_155989696" class="fil4" d="M1694.21 818.836l0 -5.7248c0,-4.36063 -0.395669,-8.58543 -1.14921,-12.6295 -0.790157,-4.0878 -1.97244,-7.95 -3.58937,-11.6315 -1.61457,-3.67913 -3.55394,-6.94961 -5.85118,-9.8126 -2.25827,-2.86181 -4.91457,-5.31614 -7.92992,-7.35827 2.90906,-2.04567 5.5252,-4.36299 7.86024,-7.04173 2.3315,-2.6374 4.3063,-5.63504 5.92087,-9.04252 1.61693,-3.27047 2.79921,-6.94961 3.58937,-10.9925 0.753543,-4.09134 1.14921,-8.49685 1.14921,-13.2685l0 -4.35945c0,-5.17913 -0.325984,-9.95079 -1.0063,-14.3102 -0.644882,-4.36299 -1.68661,-8.31496 -3.08504,-11.8594 -1.40079,-3.54094 -3.01535,-6.77008 -4.8815,-9.63071 -1.83307,-2.90787 -3.94843,-5.49803 -6.31654,-7.81535 -2.47677,-2.17913 -5.13307,-4.0878 -7.9689,-5.67638 -2.83583,-1.63701 -5.92087,-2.90906 -9.26102,-3.86102 -3.33661,-0.955512 -6.78071,-1.68189 -10.3701,-2.22756 -3.5563,-0.499606 -7.28622,-0.773622 -11.1638,-0.773622 -3.9815,0 -7.78701,0.137008 -11.4496,0.455906 -3.65669,0.272835 -7.17638,0.77126 -10.513,1.45157 -6.67795,1.36535 -13.1362,2.99882 -19.3831,4.90748 -0.537402,0.137008 -1.07598,0.318898 -1.54016,0.590551 -0.504331,0.271654 -0.936614,0.636614 -1.25906,1.04528 -0.42874,0.408661 -0.75,0.908268 -0.968504,1.45394 -0.216142,0.591732 -0.322441,1.27205 -0.322441,2.09055l0 16.6276c0,0.681496 0.106299,1.36181 0.285827,1.95354 0.214961,0.635433 0.467717,1.17992 0.790157,1.58858 0.324803,0.408661 0.753543,0.72874 1.25551,1.00039 0.467717,0.226772 1.00512,0.36378 1.5437,0.36378l0.431102 0c4.73858,-0.545669 8.82992,-1.08898 12.2764,-1.63583 1.72087,-0.271654 3.40748,-0.543307 5.02441,-0.773622 1.61339,-0.271654 3.15709,-0.453543 4.66181,-0.588189 1.50827,-0.137008 3.01535,-0.226772 4.52362,-0.275197 1.50709,-0.0448819 3.01417,-0.133465 4.52244,-0.271654 1.40079,-0.134646 2.94449,-0.226772 4.66772,-0.226772 1.68661,-0.0448819 3.51732,-0.0448819 5.45315,-0.0448819 2.47677,0 4.70197,0.18189 6.67795,0.591732 1.9748,0.361417 3.76535,0.907087 5.38228,1.58858 1.61693,0.680315 3.01535,1.49882 4.27087,2.45433 1.22126,0.95315 2.29724,2.04331 3.26693,3.27047 0.859843,1.22717 1.61339,2.54409 2.2252,3.90591 0.647244,1.40906 1.11142,2.90906 1.43386,4.54488 0.322441,1.49882 0.540945,3.13346 0.681496,4.81417 0.108661,1.68189 0.18189,3.3626 0.18189,4.99843l0 4.63228c0,1.77402 -0.0366142,3.49961 -0.142913,5.13307 -0.108661,1.68189 -0.288189,3.31772 -0.504331,4.95472 -0.322441,1.63346 -0.716929,3.13228 -1.18228,4.54252 -0.467717,1.36181 -1.07953,2.6811 -1.83307,3.90591 -0.753543,1.22717 -1.65,2.3622 -2.72598,3.40748 -1.04291,1.04528 -2.22756,1.90748 -3.51732,2.59134 -1.29449,0.681496 -2.76496,1.2248 -4.37953,1.58858 -1.65,0.409843 -3.47953,0.591732 -5.5252,0.591732l-38.1177 0c-1.40079,0 -2.44016,0.408661 -3.0874,1.27205 -0.681496,0.818504 -1.00276,2.13543 -1.00276,3.90591l0 17.1744c0,1.77047 0.32126,3.08858 1.00276,3.90591 0.647244,0.863386 1.68661,1.27205 3.0874,1.27205l38.1177 0c2.04567,0 3.8752,0.183071 5.5252,0.591732 1.61457,0.408661 3.08504,1.04528 4.37953,1.86024 1.28976,0.683858 2.47441,1.54724 3.51732,2.59252 1.07598,1.04173 1.97244,2.18031 2.72598,3.40748 0.753543,1.36181 1.36535,2.72362 1.83307,4.13268 0.465354,1.45394 0.859843,2.95394 1.18228,4.58976 0.216142,1.63346 0.395669,3.31535 0.504331,5.08583 0.106299,1.72677 0.142913,3.49961 0.142913,5.27126l0 5.99646c0,4.77165 -0.431102,8.99409 -1.32874,12.5835 -0.859843,3.63425 -2.22756,6.63307 -4.05354,8.95039 -3.6626,4.9063 -9.90591,7.36063 -18.7382,7.36063 -2.58307,0 -5.38228,-0.092126 -8.36102,-0.226772 -3.01535,-0.18189 -6.17362,-0.453543 -9.51142,-0.862205 -3.44291,-0.409843 -7.10551,-0.818504 -10.9807,-1.27323 -3.87874,-0.408661 -7.9689,-0.91063 -12.2764,-1.45394l-0.431102 0c-0.538583,0 -1.07598,0.137008 -1.5437,0.364961 -0.501969,0.271654 -0.930709,0.588189 -1.25551,0.99685 -0.322441,0.409843 -0.575197,0.955512 -0.790157,1.54724 -0.179528,0.635433 -0.285827,1.31693 -0.285827,1.99724l0 16.6276c0,0.818504 0.106299,1.5 0.322441,2.09055 0.218504,0.544488 0.539764,1.04528 0.968504,1.45512 0.322441,0.408661 0.754724,0.725197 1.25906,0.99685 0.464173,0.275197 1.00276,0.501969 1.54016,0.636614 6.24685,1.90748 12.7051,3.54449 19.3831,4.9063 3.33661,0.680315 6.8563,1.18228 10.513,1.45394 3.6626,0.320079 7.46811,0.454724 11.4496,0.454724 3.77126,0 7.4315,-0.272835 10.9843,-0.863386 3.55276,-0.543307 6.99685,-1.45394 10.337,-2.67874 3.3378,-1.22717 6.42283,-2.72717 9.25866,-4.54488 2.83465,-1.77165 5.49213,-3.90709 7.9689,-6.36142 2.36693,-2.31378 4.52008,-5.04094 6.42165,-8.13189 1.93937,-3.04252 3.59055,-6.45 4.99134,-10.1291 1.39843,-3.6815 2.44016,-7.72323 3.08504,-12.085 0.680315,-4.36063 1.0063,-9.04016 1.0063,-14.0835z"/>
   </g>
   <polygon id="_490944624" class="fil1" points="200.373,401.779 200.373,324.057 207.387,324.057 207.387,401.779 "/>
   <path id="_4909446241" class="fil1" d="M220.932 379.853l7.21299 0.0531496c-0.0366142,0.252756 -0.0543307,0.55748 -0.0720472,0.917717 -0.0177165,0.377953 -0.0366142,0.898819 -0.0366142,1.61929 0,4.87441 1.16929,8.54291 3.52559,11.0079 2.3563,2.46378 5.86417,3.6874 10.5047,3.6874 4.2815,0 7.69843,-1.25906 10.2709,-3.79488 2.57244,-2.53701 3.84921,-5.90079 3.84921,-10.1091 0,-3.02244 -0.827953,-5.68465 -2.50039,-7.9689 -1.67244,-2.28425 -5.86417,-5.55827 -12.5728,-9.8563 -0.594094,-0.377953 -1.49291,-0.954331 -2.67992,-1.72677 -5.14488,-3.23858 -8.77795,-5.79213 -10.9181,-7.64528 -1.9252,-1.72677 -3.40039,-3.8315 -4.42559,-6.33071 -1.0252,-2.48268 -1.52835,-5.25236 -1.52835,-8.2748 0,-5.72008 1.9063,-10.2709 5.72008,-13.6157 3.8126,-3.36378 8.9752,-5.0374 15.5232,-5.0374 6.49252,0 11.4579,1.69134 14.9114,5.09055 3.43465,3.3815 5.16142,8.2748 5.16142,14.6776l0 1.58386 -7.12205 0 0 -0.738189c0,-4.96417 -1.09724,-8.63386 -3.29173,-11.0445 -2.19449,-2.40945 -5.55827,-3.61535 -10.0913,-3.61535 -4.1374,0 -7.46457,1.11614 -9.94724,3.34606 -2.50039,2.22992 -3.74055,5.21575 -3.74055,8.93976 0,3.21969 1.0252,6.13346 3.05787,8.68819 2.0315,2.57126 7.01457,6.33071 14.9469,11.2772 6.96142,4.29921 11.4756,7.89685 13.5449,10.8106 2.06811,2.91378 3.11102,6.42165 3.11102,10.5402 0,6.56575 -1.88858,11.674 -5.68346,15.3071 -3.79606,3.63425 -9.13819,5.45079 -16.0264,5.45079 -6.85394,0 -12.0343,-1.74567 -15.5409,-5.21693 -3.50787,-3.47126 -5.27126,-8.59724 -5.27126,-15.3425 0,-0.738189 0,-1.29567 0.0188976,-1.67362 0.0177165,-0.395669 0.0531496,-0.719291 0.0897638,-1.0063z"/>
   <path id="_49094462412" class="fil1" d="M275.109 362.944c0,-10.6476 0.467717,-18.2031 1.40315,-22.6453 0.916535,-4.44331 2.50039,-7.98661 4.7126,-10.6134 1.96063,-2.28425 4.42441,-3.99213 7.3748,-5.10827 2.94921,-1.13268 6.38504,-1.69016 10.324,-1.69016 3.90354,0 7.35709,0.575197 10.3606,1.70906 3.00472,1.15039 5.45079,2.84173 7.33937,5.08937 2.24764,2.6622 3.84921,6.27756 4.76693,10.8106 0.934252,4.51535 1.40197,11.9976 1.40197,22.448 0,10.4693 -0.467717,17.9693 -1.40197,22.5024 -0.917717,4.53307 -2.51929,8.11181 -4.76693,10.7386 -1.88858,2.17559 -4.38898,3.88465 -7.48346,5.09055 -3.09331,1.20472 -6.49252,1.81654 -10.2165,1.81654 -3.72283,0 -7.12205,-0.611811 -10.1988,-1.81654 -3.07559,-1.20591 -5.57598,-2.91496 -7.5,-5.09055 -2.24882,-2.62677 -3.8315,-6.20551 -4.74921,-10.7386 -0.916535,-4.53307 -1.36654,-12.0331 -1.36654,-22.5024zm7.21299 -0.0177165c0,13.526 1.20472,22.5921 3.63307,27.1961 2.42835,4.60512 6.74528,6.90709 12.9685,6.90709 6.22441,0 10.5224,-2.28425 12.9331,-6.85276 2.41063,-4.5685 3.61535,-13.6524 3.61535,-27.2504 0,-13.6524 -1.20472,-22.7717 -3.61535,-27.3402 -2.41063,-4.56969 -6.70866,-6.85394 -12.9331,-6.85394 -6.22323,0 -10.5402,2.30315 -12.9685,6.92598 -2.42835,4.62165 -3.63307,13.7055 -3.63307,27.2681z"/>
   <polygon id="_490944624123" class="fil1" points="337.291,401.779 337.291,324.057 344.414,324.057 344.414,395.718 370.28,395.718 370.28,401.779 "/>
   <path id="_4909446241234" class="fil1" d="M387.763 375.014l26.3693 0 -12.9862 -43.7988 -13.3831 43.7988zm-8.05748 26.765l-7.10551 0 24.913 -77.7224 7.86024 0 24.4087 77.7224 -7.64528 0 -6.38504 -20.7035 -29.8772 0 -6.1689 20.7035z"/>
   <path id="_49094462412345" class="fil1" d="M438.217 401.779l0 -77.7224 11.3315 0 18.6531 55.7965c0.55748,1.65472 1.20472,3.90236 1.94291,6.72638 0.737008,2.82402 1.49291,5.93622 2.26654,9.35433 1.40315,-5.70236 2.39173,-9.60591 2.9315,-11.7461 0.539764,-2.15906 0.935433,-3.59764 1.18701,-4.33465l18.6531 -55.7965 11.3315 0 0 77.7224 -6.69094 0 0 -58.3866c0,-0.917717 0.0354331,-2.75197 0.126378,-5.50394 0.0897638,-2.75197 0.214961,-5.88189 0.341339,-9.35315l-24.1925 73.2437 -7.78937 0 -24.1382 -73.5673c0.161811,4.01102 0.305906,7.17638 0.395669,9.49724 0.0897638,2.31969 0.126378,4.20827 0.126378,5.68346l0 58.3866 -6.47598 0z"/>
   <polygon id="_490944624123456" class="fil1" points="555.657,401.779 520.779,401.779 520.779,324.057 555.657,324.057 555.657,330.118 527.794,330.118 527.794,358.844 554.02,358.844 554.02,364.527 527.794,364.527 527.794,395.303 555.657,395.303 "/>
   <path id="_4909446241234567" class="fil1" d="M567.312 401.779l0 -77.7224 10.9181 0 32.8087 73.298c-0.448819,-2.8063 -0.791339,-5.64803 -0.988583,-8.49094 -0.216142,-2.84173 -0.323622,-5.70118 -0.323622,-8.57953l0 -56.2276 6.79843 0 0 77.7224 -10.4858 0 -32.8807 -72.7228c0.359055,2.24882 0.629528,4.67717 0.791339,7.24961 0.179528,2.59016 0.269291,5.34213 0.269291,8.29134l0 57.1819 -6.90709 0z"/>
   <polygon id="_49094462412345678" class="fil1" points="643.416,401.779 643.416,330.118 624.494,330.118 624.494,324.057 669.084,324.057 669.084,330.118 650.107,330.118 650.107,401.779 "/>
   <path id="_490944624123456789" class="fil1" d="M673.779 362.944c0,-10.6476 0.467717,-18.2031 1.40315,-22.6453 0.916535,-4.44331 2.50039,-7.98661 4.7126,-10.6134 1.96063,-2.28425 4.42441,-3.99213 7.3748,-5.10827 2.94921,-1.13268 6.38504,-1.69016 10.324,-1.69016 3.90354,0 7.35709,0.575197 10.3606,1.70906 3.00472,1.15039 5.45079,2.84173 7.33937,5.08937 2.24764,2.6622 3.84921,6.27756 4.76693,10.8106 0.934252,4.51535 1.40197,11.9976 1.40197,22.448 0,10.4693 -0.467717,17.9693 -1.40197,22.5024 -0.917717,4.53307 -2.51929,8.11181 -4.76693,10.7386 -1.88858,2.17559 -4.38898,3.88465 -7.48346,5.09055 -3.09331,1.20472 -6.49252,1.81654 -10.2165,1.81654 -3.72283,0 -7.12205,-0.611811 -10.1988,-1.81654 -3.07559,-1.20591 -5.57598,-2.91496 -7.5,-5.09055 -2.24882,-2.62677 -3.8315,-6.20551 -4.74921,-10.7386 -0.916535,-4.53307 -1.36654,-12.0331 -1.36654,-22.5024zm7.21299 -0.0177165c0,13.526 1.20472,22.5921 3.63307,27.1961 2.42835,4.60512 6.74528,6.90709 12.9685,6.90709 6.22441,0 10.5224,-2.28425 12.9331,-6.85276 2.41063,-4.5685 3.61535,-13.6524 3.61535,-27.2504 0,-13.6524 -1.20472,-22.7717 -3.61535,-27.3402 -2.41063,-4.56969 -6.70866,-6.85394 -12.9331,-6.85394 -6.22323,0 -10.5402,2.30315 -12.9685,6.92598 -2.42835,4.62165 -3.63307,13.7055 -3.63307,27.2681z"/>
   <polygon id="_49094462412345678910" class="fil1" points="771.791,401.779 771.791,330.118 752.869,330.118 752.869,324.057 797.459,324.057 797.459,330.118 778.482,330.118 778.482,401.779 "/>
   <path id="_4909446241234567891011" class="fil1" d="M840.287 401.779l-34.878 0 0 -77.7224 34.878 0 0 6.06142 -27.8622 0 0 28.7256 26.2252 0 0 5.68346 -26.2252 0 0 30.776 27.8622 0 0 6.47598zm-18.5811 -84.7913l-4.85669 0 11.0268 -18.3472 8.00315 0 -14.1732 18.3472z"/>
   <path id="_490944624123456789101112" class="fil1" d="M873.131 364.312l-14.3894 0 0 37.4669 -6.79961 0 0 -77.7224 15.4335 0c9.83858,0 16.3866,1.38425 19.6417,4.15512 3.2563,2.7874 4.87441,7.95 4.87441,15.5043 0,5.28898 -0.881102,9.33543 -2.6622,12.1051 -1.77992,2.77087 -4.62283,4.60512 -8.56181,5.48622 3.93898,0.738189 6.65551,2.21339 8.18504,4.44331 1.52835,2.22992 2.30197,6.11575 2.30197,11.6374l0 4.94646c0,2.91378 0.10748,5.99055 0.341339,9.22795 0.233858,3.21969 0.576378,6.63661 1.0252,10.2165l-7.53661 0c-0.485433,-5.41417 -0.791339,-11.1697 -0.863386,-17.25 -0.0897638,-6.09685 -0.179528,-9.49724 -0.251575,-10.1988 -0.377953,-3.63307 -1.40315,-6.20551 -3.05787,-7.73386 -1.63701,-1.52953 -4.20945,-2.28425 -7.68071,-2.28425zm-14.3894 -5.48622l8.22047 0c6.67323,0 11.3315,-1.16929 13.9571,-3.50787 2.64449,-2.33858 3.95787,-6.45709 3.95787,-12.3567 0,-4.98307 -1.13386,-8.4189 -3.39921,-10.3252 -2.26654,-1.88858 -6.6378,-2.84173 -13.0949,-2.84173l-9.64134 0 0 29.0315z"/>
   <path id="_49094462412345678910111213" class="fil1" d="M905.598 401.779l0 -77.7224 11.3315 0 18.6531 55.7965c0.55748,1.65472 1.20472,3.90236 1.94291,6.72638 0.737008,2.82402 1.49291,5.93622 2.26654,9.35433 1.40315,-5.70236 2.39173,-9.60591 2.9315,-11.7461 0.539764,-2.15906 0.935433,-3.59764 1.18701,-4.33465l18.6531 -55.7965 11.3315 0 0 77.7224 -6.69094 0 0 -58.3866c0,-0.917717 0.0354331,-2.75197 0.126378,-5.50394 0.0897638,-2.75197 0.214961,-5.88189 0.341339,-9.35315l-24.1925 73.2437 -7.78937 0 -24.1382 -73.5673c0.161811,4.01102 0.305906,7.17638 0.395669,9.49724 0.0897638,2.31969 0.126378,4.20827 0.126378,5.68346l0 58.3866 -6.47598 0z"/>
   <polygon id="_4909446241234567891011121314" class="fil1" points="988.269,401.779 988.269,324.057 995.283,324.057 995.283,401.779 "/>
   <path id="_490944624123456789101112131415" class="fil1" d="M1044.77 379.115l7.42795 0 0 0.323622c0,7.5189 -1.86969,13.3287 -5.61142,17.4661 -3.74173,4.1185 -9.02953,6.1878 -15.8823,6.1878 -3.86811,0 -7.30394,-0.773622 -10.2898,-2.32087 -2.98583,-1.54724 -5.43189,-3.79488 -7.3748,-6.74528 -1.54606,-2.3563 -2.62559,-5.32441 -3.25512,-8.93976 -0.629528,-3.59764 -0.95315,-9.91063 -0.95315,-18.9402l0 -3.00354c0,-7.78819 0.179528,-13.5272 0.522047,-17.178 0.359055,-3.65197 0.934252,-6.81732 1.74449,-9.47953 1.29449,-4.2626 3.72283,-7.59094 7.26614,-9.98268 3.5622,-2.41063 7.8248,-3.61535 12.8067,-3.61535 7.17756,0 12.3579,1.70906 15.5776,5.1437 3.21969,3.41811 4.82008,8.93976 4.82008,16.5661l0 0.414567 -7.21299 0c-0.0708661,-5.75669 -1.13268,-9.94724 -3.16535,-12.5374 -2.03268,-2.60787 -5.30551,-3.90354 -9.80315,-3.90354 -5.62913,0 -9.56929,2.17677 -11.8358,6.52913 -2.26535,4.35354 -3.39921,12.3756 -3.39921,24.0319 0,6.25866 0.108661,11.5299 0.341339,15.8102 0.233858,4.29921 0.594094,7.73504 1.07953,10.3252 0.701575,3.70512 2.2122,6.56457 4.53307,8.59724 2.32087,2.03268 5.21575,3.05787 8.70591,3.05787 4.35236,0 7.77047,-1.42087 10.2343,-4.2626 2.48268,-2.84173 3.72402,-6.78189 3.72402,-11.8004l0 -1.74449z"/>
   <path id="_49094462412345678910111213141516" class="fil1" d="M1063.01 362.944c0,-10.6476 0.467717,-18.2031 1.40315,-22.6453 0.916535,-4.44331 2.50039,-7.98661 4.7126,-10.6134 1.96063,-2.28425 4.42441,-3.99213 7.3748,-5.10827 2.94921,-1.13268 6.38504,-1.69016 10.324,-1.69016 3.90354,0 7.35709,0.575197 10.3606,1.70906 3.00472,1.15039 5.45079,2.84173 7.33937,5.08937 2.24764,2.6622 3.84921,6.27756 4.76693,10.8106 0.934252,4.51535 1.40197,11.9976 1.40197,22.448 0,10.4693 -0.467717,17.9693 -1.40197,22.5024 -0.917717,4.53307 -2.51929,8.11181 -4.76693,10.7386 -1.88858,2.17559 -4.38898,3.88465 -7.48346,5.09055 -3.09331,1.20472 -6.49252,1.81654 -10.2165,1.81654 -3.72283,0 -7.12205,-0.611811 -10.1988,-1.81654 -3.07559,-1.20591 -5.57598,-2.91496 -7.5,-5.09055 -2.24882,-2.62677 -3.8315,-6.20551 -4.74921,-10.7386 -0.916535,-4.53307 -1.36654,-12.0331 -1.36654,-22.5024zm7.21299 -0.0177165c0,13.526 1.20472,22.5921 3.63307,27.1961 2.42835,4.60512 6.74528,6.90709 12.9685,6.90709 6.22441,0 10.5224,-2.28425 12.9331,-6.85276 2.41063,-4.5685 3.61535,-13.6524 3.61535,-27.2504 0,-13.6524 -1.20472,-22.7717 -3.61535,-27.3402 -2.41063,-4.56969 -6.70866,-6.85394 -12.9331,-6.85394 -6.22323,0 -10.5402,2.30315 -12.9685,6.92598 -2.42835,4.62165 -3.63307,13.7055 -3.63307,27.2681z"/>
   <path id="_4909446241234567891011121314151617" class="fil1" d="M1155.91 401.779l-7.01575 0 0 -77.7224 18.3472 0c7.30276,0 12.5551,1.61811 15.7394,4.8378 3.20079,3.23858 4.80236,8.54409 4.80236,15.9189 0,7.62638 -1.67362,13.0406 -5.03622,16.2248 -3.34606,3.20197 -9.12047,4.80236 -17.3043,4.80236l-9.53268 0 0 35.9386zm0 -72.2906l0 30.9744 10.0547 0c5.77323,0 9.74882,-1.13386 11.9433,-3.41811 2.19449,-2.28425 3.29173,-6.36732 3.29173,-12.2315 0,-5.68346 -1.11496,-9.65906 -3.32835,-11.9256 -2.2122,-2.26654 -6.1689,-3.39921 -11.9067,-3.39921l-10.0547 0z"/>
   <path id="_490944624123456789101112131415161718" class="fil1" d="M1195.75 362.944c0,-10.6476 0.467717,-18.2031 1.40315,-22.6453 0.916535,-4.44331 2.50039,-7.98661 4.7126,-10.6134 1.96063,-2.28425 4.42441,-3.99213 7.3748,-5.10827 2.94921,-1.13268 6.38504,-1.69016 10.324,-1.69016 3.90354,0 7.35709,0.575197 10.3606,1.70906 3.00472,1.15039 5.45079,2.84173 7.33937,5.08937 2.24764,2.6622 3.84921,6.27756 4.76693,10.8106 0.934252,4.51535 1.40197,11.9976 1.40197,22.448 0,10.4693 -0.467717,17.9693 -1.40197,22.5024 -0.917717,4.53307 -2.51929,8.11181 -4.76693,10.7386 -1.88858,2.17559 -4.38898,3.88465 -7.48346,5.09055 -3.09331,1.20472 -6.49252,1.81654 -10.2165,1.81654 -3.72283,0 -7.12205,-0.611811 -10.1988,-1.81654 -3.07559,-1.20591 -5.57598,-2.91496 -7.5,-5.09055 -2.24882,-2.62677 -3.8315,-6.20551 -4.74921,-10.7386 -0.916535,-4.53307 -1.36654,-12.0331 -1.36654,-22.5024zm7.21299 -0.0177165c0,13.526 1.20472,22.5921 3.63307,27.1961 2.42835,4.60512 6.74528,6.90709 12.9685,6.90709 6.22441,0 10.5224,-2.28425 12.9331,-6.85276 2.41063,-4.5685 3.61535,-13.6524 3.61535,-27.2504 0,-13.6524 -1.20472,-22.7717 -3.61535,-27.3402 -2.41063,-4.56969 -6.70866,-6.85394 -12.9331,-6.85394 -6.22323,0 -10.5402,2.30315 -12.9685,6.92598 -2.42835,4.62165 -3.63307,13.7055 -3.63307,27.2681z"/>
   <path id="_49094462412345678910111213141516171819" class="fil1" d="M1278.01 364.312l-14.3894 0 0 37.4669 -6.79961 0 0 -77.7224 15.4335 0c9.83858,0 16.3866,1.38425 19.6417,4.15512 3.2563,2.7874 4.87441,7.95 4.87441,15.5043 0,5.28898 -0.881102,9.33543 -2.6622,12.1051 -1.77992,2.77087 -4.62283,4.60512 -8.56181,5.48622 3.93898,0.738189 6.65551,2.21339 8.18504,4.44331 1.52835,2.22992 2.30197,6.11575 2.30197,11.6374l0 4.94646c0,2.91378 0.10748,5.99055 0.341339,9.22795 0.233858,3.21969 0.576378,6.63661 1.0252,10.2165l-7.53661 0c-0.485433,-5.41417 -0.791339,-11.1697 -0.863386,-17.25 -0.0897638,-6.09685 -0.179528,-9.49724 -0.251575,-10.1988 -0.377953,-3.63307 -1.40315,-6.20551 -3.05787,-7.73386 -1.63701,-1.52953 -4.20945,-2.28425 -7.68071,-2.28425zm-14.3894 -5.48622l8.22047 0c6.67323,0 11.3315,-1.16929 13.9571,-3.50787 2.64449,-2.33858 3.95787,-6.45709 3.95787,-12.3567 0,-4.98307 -1.13386,-8.4189 -3.39921,-10.3252 -2.26654,-1.88858 -6.6378,-2.84173 -13.0949,-2.84173l-9.64134 0 0 29.0315z"/>
   <path id="_4909446241234567891011121314151617181920" class="fil1" d="M1335.71 401.779l0 -77.7224 15.4335 0c9.83858,0 16.3866,1.38425 19.6417,4.15512 3.2563,2.7874 4.87441,7.95 4.87441,15.5043 0,5.25236 -0.881102,9.2811 -2.6622,12.052 -1.77992,2.7874 -4.64055,4.62283 -8.56181,5.53937 4.42559,0.917717 7.68071,2.89606 9.74882,5.95394 2.06929,3.05787 3.1122,7.35709 3.1122,12.9154 0,4.49646 -0.539764,8.18386 -1.63701,11.0799 -1.07835,2.91378 -2.76969,5.21575 -5.05394,6.94252 -1.76339,1.29567 -3.95787,2.21339 -6.56575,2.77087 -2.62559,0.539764 -6.90709,0.809055 -12.8965,0.809055l-15.4335 0zm6.79961 -42.9531l8.22047 0c6.56457,0 11.1697,-1.13386 13.8319,-3.41811 2.64449,-2.28425 3.97559,-6.22323 3.97559,-11.8169 0,-5.43307 -1.06181,-9.10157 -3.16654,-10.9724 -2.10472,-1.88858 -6.85276,-2.82402 -14.2276,-2.82402l-8.63386 0 0 29.0315zm0 37.2154l8.63386 0c7.87795,0 12.9508,-1.11496 15.235,-3.34606 2.28425,-2.22992 3.43583,-6.4748 3.43583,-12.7346 0,-5.82756 -1.3311,-9.89291 -4.01102,-12.1949 -2.6622,-2.30315 -7.69843,-3.45354 -15.0732,-3.45354l-8.22047 0 0 31.7291z"/>
   <path id="_490944624123456789101112131415161718192021" class="fil1" d="M1398.41 375.014l26.3693 0 -12.9862 -43.7988 -13.3831 43.7988zm-8.05748 26.765l-7.10551 0 24.913 -77.7224 7.86024 0 24.4087 77.7224 -7.64528 0 -6.38504 -20.7035 -29.8772 0 -6.1689 20.7035z"/>
   <path id="_49094462412345678910111213141516171819202122" class="fil1" d="M1470.47 364.312l-14.3894 0 0 37.4669 -6.79961 0 0 -77.7224 15.4335 0c9.83858,0 16.3866,1.38425 19.6417,4.15512 3.2563,2.7874 4.87441,7.95 4.87441,15.5043 0,5.28898 -0.881102,9.33543 -2.6622,12.1051 -1.77992,2.77087 -4.62283,4.60512 -8.56181,5.48622 3.93898,0.738189 6.65551,2.21339 8.18504,4.44331 1.52835,2.22992 2.30197,6.11575 2.30197,11.6374l0 4.94646c0,2.91378 0.10748,5.99055 0.341339,9.22795 0.233858,3.21969 0.576378,6.63661 1.0252,10.2165l-7.53661 0c-0.485433,-5.41417 -0.791339,-11.1697 -0.863386,-17.25 -0.0897638,-6.09685 -0.179528,-9.49724 -0.251575,-10.1988 -0.377953,-3.63307 -1.40315,-6.20551 -3.05787,-7.73386 -1.63701,-1.52953 -4.20945,-2.28425 -7.68071,-2.28425zm-14.3894 -5.48622l8.22047 0c6.67323,0 11.3315,-1.16929 13.9571,-3.50787 2.64449,-2.33858 3.95787,-6.45709 3.95787,-12.3567 0,-4.98307 -1.13386,-8.4189 -3.39921,-10.3252 -2.26654,-1.88858 -6.6378,-2.84173 -13.0949,-2.84173l-9.64134 0 0 29.0315z"/>
   <path id="_4909446241234567891011121314151617181920212223" class="fil1" d="M1524.54 364.312l-14.3894 0 0 37.4669 -6.79961 0 0 -77.7224 15.4335 0c9.83858,0 16.3866,1.38425 19.6417,4.15512 3.2563,2.7874 4.87441,7.95 4.87441,15.5043 0,5.28898 -0.881102,9.33543 -2.6622,12.1051 -1.77992,2.77087 -4.62283,4.60512 -8.56181,5.48622 3.93898,0.738189 6.65551,2.21339 8.18504,4.44331 1.52835,2.22992 2.30197,6.11575 2.30197,11.6374l0 4.94646c0,2.91378 0.10748,5.99055 0.341339,9.22795 0.233858,3.21969 0.576378,6.63661 1.0252,10.2165l-7.53661 0c-0.485433,-5.41417 -0.791339,-11.1697 -0.863386,-17.25 -0.0897638,-6.09685 -0.179528,-9.49724 -0.251575,-10.1988 -0.377953,-3.63307 -1.40315,-6.20551 -3.05787,-7.73386 -1.63701,-1.52953 -4.20945,-2.28425 -7.68071,-2.28425zm-14.3894 -5.48622l8.22047 0c6.67323,0 11.3315,-1.16929 13.9571,-3.50787 2.64449,-2.33858 3.95787,-6.45709 3.95787,-12.3567 0,-4.98307 -1.13386,-8.4189 -3.39921,-10.3252 -2.26654,-1.88858 -6.6378,-2.84173 -13.0949,-2.84173l-9.64134 0 0 29.0315z"/>
   <polygon id="_490944624123456789101112131415161718192021222324" class="fil1" points="1592.3,401.779 1557.42,401.779 1557.42,324.057 1592.3,324.057 1592.3,330.118 1564.44,330.118 1564.44,358.844 1590.66,358.844 1590.66,364.527 1564.44,364.527 1564.44,395.303 1592.3,395.303 "/>
   <polygon id="_49094462412345678910111213141516171819202122232425" class="fil1" points="1604.06,401.779 1604.06,324.057 1611.08,324.057 1611.08,401.779 "/>
   <path id="_4909446241234567891011121314151617181920212223242526" class="fil1" d="M1647.18 364.312l-14.3894 0 0 37.4669 -6.79961 0 0 -77.7224 15.4335 0c9.83858,0 16.3866,1.38425 19.6417,4.15512 3.2563,2.7874 4.87441,7.95 4.87441,15.5043 0,5.28898 -0.881102,9.33543 -2.6622,12.1051 -1.77992,2.77087 -4.62283,4.60512 -8.56181,5.48622 3.93898,0.738189 6.65551,2.21339 8.18504,4.44331 1.52835,2.22992 2.30197,6.11575 2.30197,11.6374l0 4.94646c0,2.91378 0.10748,5.99055 0.341339,9.22795 0.233858,3.21969 0.576378,6.63661 1.0252,10.2165l-7.53661 0c-0.485433,-5.41417 -0.791339,-11.1697 -0.863386,-17.25 -0.0897638,-6.09685 -0.179528,-9.49724 -0.251575,-10.1988 -0.377953,-3.63307 -1.40315,-6.20551 -3.05787,-7.73386 -1.63701,-1.52953 -4.20945,-2.28425 -7.68071,-2.28425zm-14.3894 -5.48622l8.22047 0c6.67323,0 11.3315,-1.16929 13.9571,-3.50787 2.64449,-2.33858 3.95787,-6.45709 3.95787,-12.3567 0,-4.98307 -1.13386,-8.4189 -3.39921,-10.3252 -2.26654,-1.88858 -6.6378,-2.84173 -13.0949,-2.84173l-9.64134 0 0 29.0315z"/>
   <path id="_490944624123456789101112131415161718192021222324252627" class="fil1" d="M1689.32 375.014l26.3693 0 -12.9862 -43.7988 -13.3831 43.7988zm-8.05748 26.765l-7.10551 0 24.913 -77.7224 7.86024 0 24.4087 77.7224 -7.64528 0 -6.38504 -20.7035 -29.8772 0 -6.1689 20.7035z"/>
  </g>
 </g>
</svg>
